<svg width="44" height="44" viewBox="0 0 44 44" fill="none" xmlns="http://www.w3.org/2000/svg">
<path d="M33.8128 40.5486C31.6172 42.677 29.2199 42.341 26.9122 41.3328C24.4701 40.3022 22.2297 40.2574 19.6531 41.3328C16.4269 42.7219 14.7241 42.3186 12.7973 40.5486C1.86391 29.2791 3.47704 12.1172 15.8892 11.4899C18.9138 11.6467 21.0198 13.1478 22.7898 13.2822C25.4335 12.7445 27.9652 11.1986 30.7882 11.4003C34.1713 11.6691 36.7254 13.0134 38.4058 15.4331C31.4156 19.6227 33.0735 28.831 39.4812 31.4075C38.2041 34.7682 36.5462 38.1065 33.7904 40.571L33.8128 40.5486ZM22.5657 11.3554C22.2297 6.35922 26.2849 2.23678 30.9451 1.8335C31.5948 7.61388 25.7024 11.9156 22.5657 11.3554Z" fill="#001514"/>
</svg>
