<svg width="14" height="15" viewBox="0 0 14 15" fill="none" xmlns="http://www.w3.org/2000/svg">
<g id="Group 13">
<path id="Vector" d="M9.92253 7.91188H2.10003C1.90169 7.91188 1.73533 7.84468 1.60093 7.71028C1.46653 7.57588 1.39956 7.40975 1.40003 7.21188C1.40003 7.01355 1.46723 6.84718 1.60163 6.71278C1.73603 6.57838 1.90216 6.51141 2.10003 6.51188H9.92253L6.49253 3.08188C6.35253 2.94188 6.28533 2.77855 6.29093 2.59188C6.29653 2.40521 6.36956 2.24188 6.51003 2.10188C6.65003 1.97355 6.81336 1.90635 7.00003 1.90028C7.18669 1.89421 7.35003 1.96141 7.49003 2.10188L12.11 6.72188C12.18 6.79188 12.2297 6.86771 12.2591 6.94938C12.2885 7.03105 12.303 7.11855 12.3025 7.21188C12.3025 7.30521 12.2878 7.39271 12.2584 7.47438C12.229 7.55605 12.1796 7.63188 12.11 7.70188L7.49003 12.3219C7.36169 12.4502 7.20139 12.5144 7.00913 12.5144C6.81686 12.5144 6.65049 12.4502 6.51003 12.3219C6.37003 12.1819 6.30003 12.0155 6.30003 11.8228C6.30003 11.63 6.37003 11.4639 6.51003 11.3244L9.92253 7.91188Z" fill="#6CB876"/>
</g>
</svg>
