<svg width="34" height="34" viewBox="0 0 34 34" fill="none" xmlns="http://www.w3.org/2000/svg">
<path fill-rule="evenodd" clip-rule="evenodd" d="M16.9999 3.89551C14.6516 3.89551 12.3996 4.82836 10.7391 6.48884C9.0786 8.14932 8.14575 10.4014 8.14575 12.7497C8.14575 15.0979 9.0786 17.35 10.7391 19.0105C12.3996 20.671 14.6516 21.6038 16.9999 21.6038C19.3482 21.6038 21.6003 20.671 23.2608 19.0105C24.9212 17.35 25.8541 15.0979 25.8541 12.7497C25.8541 10.4014 24.9212 8.14932 23.2608 6.48884C21.6003 4.82836 19.3482 3.89551 16.9999 3.89551ZM6.02075 12.7497C6.02189 11.1455 6.37457 9.56099 7.05397 8.10774C7.73336 6.65449 8.72297 5.36778 9.95315 4.33815C11.1833 3.30852 12.6242 2.56097 14.1744 2.14813C15.7246 1.73528 17.3464 1.66715 18.9257 1.94854C20.5051 2.22993 22.0036 2.854 23.3158 3.77684C24.628 4.69968 25.722 5.89887 26.5209 7.29002C27.3198 8.68117 27.8041 10.2305 27.9397 11.829C28.0754 13.4274 27.8592 15.0362 27.3062 16.5421L30.5475 19.8968C30.9116 20.275 31.2148 20.5895 31.4414 20.8516C31.6653 21.1094 31.8948 21.4041 32.0293 21.7469C32.5025 22.944 32.1228 24.3607 30.9824 25.0577C30.6566 25.2588 30.2826 25.341 29.9624 25.3948C29.6338 25.4515 29.2173 25.494 28.7257 25.5464L28.6917 25.5493C28.0414 25.6187 27.9182 25.6399 27.8346 25.6725C27.7035 25.7241 27.5852 25.8037 27.4881 25.9057C27.3909 26.0078 27.3173 26.1298 27.2722 26.2633C27.2353 26.3624 27.2141 26.5083 27.1475 27.1756L27.1447 27.2068C27.0937 27.7182 27.0512 28.1474 26.9988 28.4846C26.9478 28.8104 26.8713 29.1844 26.6828 29.5117C26.017 30.6762 24.6159 31.1125 23.4004 30.5983C23.059 30.4538 22.7686 30.2115 22.5221 29.982C22.2671 29.7468 21.9653 29.4323 21.6013 29.0541L21.5729 29.0258L16.9999 24.2105L12.4213 29.0343L12.4 29.0555C12.0359 29.4338 11.7328 29.7483 11.4792 29.9834C11.2313 30.2129 10.9408 30.4552 10.6008 30.5997C9.3825 31.1139 7.98284 30.6776 7.317 29.5131C7.13 29.1858 7.05209 28.8133 7.00109 28.4846C6.94867 28.1488 6.90617 27.7196 6.85659 27.2096L6.85234 27.177C6.78717 26.5098 6.7645 26.3653 6.72909 26.2647C6.684 26.1312 6.61031 26.0092 6.51317 25.9071C6.41603 25.8051 6.29777 25.7255 6.16667 25.6739C6.08167 25.6413 5.95842 25.6201 5.30817 25.5507L5.27559 25.5478C4.784 25.4954 4.3675 25.4515 4.03884 25.3963C3.71867 25.3438 3.34467 25.2603 3.01742 25.0591C1.87842 24.3621 1.49875 22.9454 1.9705 21.7483C2.1065 21.4055 2.33459 21.1108 2.55842 20.853C2.78509 20.5909 3.08825 20.2764 3.45375 19.8982L6.69367 16.5435C6.24705 15.3286 6.01922 14.0441 6.02075 12.7497ZM7.68959 18.5708L5.00359 21.3517C4.61259 21.7568 4.34909 22.0288 4.16492 22.2428C4.08252 22.3293 4.0094 22.4243 3.94675 22.5261C3.81925 22.8519 3.94675 23.1268 4.11534 23.2387C4.12809 23.2429 4.20034 23.267 4.39017 23.2996C4.64517 23.3421 4.99934 23.3803 5.532 23.437L5.63825 23.4483C6.11992 23.4979 6.54634 23.5433 6.92742 23.6892C7.776 24.015 8.42484 24.695 8.72942 25.5478C8.86542 25.9289 8.90792 26.3596 8.95609 26.8611L8.96742 26.9673C9.02125 27.5184 9.05809 27.8868 9.10059 28.1573C9.13742 28.3868 9.16575 28.4605 9.16717 28.4648C9.2805 28.656 9.51284 28.7495 9.76925 28.6418C9.76925 28.6418 9.84009 28.6036 10.0328 28.4237C10.2382 28.2338 10.5003 27.9633 10.8898 27.5595L10.8927 27.5567L14.746 23.4965C13.2989 23.1924 11.9281 22.5994 10.7156 21.753C9.50316 20.9066 8.47393 19.8243 7.68959 18.5708ZM19.2538 23.4979C20.7013 23.1938 22.0724 22.6007 23.2852 21.754C24.4979 20.9074 25.5273 19.8247 26.3117 18.5708L28.9977 21.3517C29.3887 21.7568 29.6508 22.0288 29.8349 22.2428C30.0092 22.4411 30.0488 22.519 30.0531 22.5261C30.1806 22.8519 30.0531 23.1268 29.8859 23.2387C29.8718 23.2429 29.8009 23.267 29.6111 23.2996C29.3547 23.3421 29.0019 23.3803 28.4678 23.437L28.3616 23.4483C27.8813 23.4979 27.4535 23.5433 27.0724 23.6892C26.2253 24.015 25.575 24.695 25.2704 25.5478C25.1344 25.9289 25.0919 26.3596 25.0438 26.8611L25.0324 26.9673C24.9786 27.5184 24.9418 27.8868 24.8993 28.1573C24.8638 28.3868 24.8341 28.4605 24.8341 28.4648C24.7208 28.656 24.487 28.7509 24.2292 28.6418H24.232C24.232 28.6418 24.1612 28.6036 23.9671 28.4237C23.6742 28.1429 23.3884 27.8547 23.11 27.5595L23.1072 27.5567L19.2538 23.4979ZM17.0013 9.96451C16.9178 10.1076 16.8257 10.2719 16.718 10.466L16.5792 10.7153C16.5687 10.7342 16.5583 10.7531 16.548 10.772C16.4361 10.976 16.2519 11.3132 15.9445 11.5469C15.6314 11.7849 15.2532 11.8671 15.0336 11.9153L14.9727 11.928L14.7021 11.9889C14.4528 12.0456 14.2516 12.0909 14.0788 12.1348C14.1907 12.2723 14.3366 12.4451 14.5264 12.6675L14.7106 12.8828L14.7531 12.931C14.9061 13.1081 15.154 13.3914 15.2673 13.7598C15.3807 14.1224 15.341 14.4964 15.3169 14.7316C15.3144 14.7538 15.3121 14.776 15.3098 14.7982L15.2815 15.0858C15.2599 15.3028 15.2406 15.52 15.2234 15.7374C15.3708 15.6723 15.5379 15.5958 15.7377 15.5037L15.9913 15.3875L16.0479 15.3592C16.2519 15.2643 16.6061 15.0985 16.9999 15.0985C17.3952 15.0985 17.7479 15.2643 17.9519 15.3606L18.0086 15.3875L18.2636 15.5037C18.4619 15.5958 18.6291 15.6737 18.7778 15.7374C18.7594 15.5201 18.7396 15.3029 18.7183 15.0858L18.69 14.7982C18.6878 14.776 18.6854 14.7538 18.6829 14.7316C18.6588 14.495 18.6206 14.1224 18.7325 13.7598C18.8458 13.3914 19.0938 13.1081 19.2468 12.931L19.2893 12.8828L19.4734 12.6675C19.6633 12.4451 19.8092 12.2723 19.9225 12.1348C19.7497 12.0923 19.5471 12.0456 19.2992 11.9889L19.0286 11.928L18.9677 11.9138C18.7467 11.8671 18.3698 11.7849 18.0553 11.5455C17.7479 11.3132 17.5638 10.976 17.4533 10.7734L17.4207 10.7153L17.2818 10.466C17.1742 10.2719 17.0835 10.1076 16.9999 9.96451H17.0013ZM15.6017 8.21634C15.8453 7.89759 16.2888 7.43718 16.9985 7.43718C17.7097 7.43718 18.1531 7.89759 18.3968 8.21634C18.6291 8.51951 18.8643 8.94026 19.1051 9.37234L19.1363 9.43043L19.2765 9.68118L19.3558 9.82284L19.4961 9.85543L19.7653 9.91634L19.8333 9.93051C20.2979 10.0368 20.7583 10.1402 21.1125 10.2804C21.5049 10.4348 22.0333 10.7338 22.2388 11.3925C22.4399 12.0371 22.1863 12.5839 21.9653 12.9367C21.7599 13.2625 21.4497 13.6252 21.1295 13.9978L21.087 14.0473L20.9028 14.2641L20.7867 14.4015L20.8037 14.5928L20.832 14.8803L20.8377 14.9455C20.8873 15.4442 20.934 15.9258 20.9156 16.3112C20.8986 16.7163 20.8023 17.3283 20.2526 17.7434C19.6859 18.1741 19.0626 18.0806 18.6659 17.9658C18.3004 17.8624 17.8698 17.6627 17.4334 17.4629L17.3725 17.4346L17.1189 17.317C17.0788 17.2985 17.0387 17.2801 16.9985 17.2618L16.8781 17.3184L16.6259 17.4346L16.5636 17.4629C16.1287 17.6627 15.6966 17.8624 15.3311 17.9658C14.9344 18.0792 14.3111 18.1741 13.7444 17.7434C13.1962 17.3283 13.0998 16.7163 13.0814 16.3126C13.0644 15.9258 13.1098 15.4442 13.1593 14.9455L13.1664 14.8803L13.1948 14.5928L13.2118 14.4015C13.1729 14.3555 13.1337 14.3096 13.0942 14.2641L12.91 14.0473L12.8675 13.9978C12.5488 13.6252 12.2371 13.2611 12.0317 12.9353C11.8107 12.5839 11.5585 12.0371 11.7583 11.3911C11.9637 10.7352 12.4935 10.4348 12.8845 10.2804C13.2387 10.1402 13.7005 10.0368 14.1652 9.93193L14.2303 9.91776L14.5009 9.85543L14.6426 9.82284L14.7219 9.68118L14.8608 9.43043L14.8933 9.37234C15.1342 8.94026 15.3679 8.51951 15.6017 8.21634Z" fill="#050A09"/>
</svg>
