<svg width="35" height="35" viewBox="0 0 35 35" fill="none" xmlns="http://www.w3.org/2000/svg">
<g id="mdi:certificate-outline">
<path id="Vector" d="M18.9583 30.625L21.875 29.1667L24.7916 30.625V20.4167H18.9583M24.7916 13.125V10.2083L21.875 11.6667L18.9583 10.2083V13.125L16.0416 14.5833L18.9583 16.0417V18.9583L21.875 17.5L24.7916 18.9583V16.0417L27.7083 14.5833M29.1666 4.375H5.83329C5.05974 4.375 4.31788 4.68229 3.7709 5.22927C3.22392 5.77625 2.91663 6.51812 2.91663 7.29167V21.875C2.91663 22.6485 3.22392 23.3904 3.7709 23.9374C4.31788 24.4844 5.05974 24.7917 5.83329 24.7917H16.0416V21.875H5.83329V7.29167H29.1666V21.875H27.7083V24.7917H29.1666C29.9402 24.7917 30.682 24.4844 31.229 23.9374C31.776 23.3904 32.0833 22.6485 32.0833 21.875V7.29167C32.0833 6.51812 31.776 5.77625 31.229 5.22927C30.682 4.68229 29.9402 4.375 29.1666 4.375ZM16.0416 11.6667H7.29163V8.75H16.0416M13.125 16.0417H7.29163V13.125H13.125M16.0416 20.4167H7.29163V17.5H16.0416V20.4167Z" fill="#050A09"/>
</g>
</svg>
