<svg width="35" height="35" viewBox="0 0 35 35" fill="none" xmlns="http://www.w3.org/2000/svg">
<g id="mdi:clock-fast">
<path id="Vector" d="M21.875 5.83325C24.9692 5.83325 27.9367 7.06242 30.1246 9.25034C32.3125 11.4383 33.5417 14.4057 33.5417 17.4999C33.5417 20.5941 32.3125 23.5616 30.1246 25.7495C27.9367 27.9374 24.9692 29.1666 21.875 29.1666C18.7808 29.1666 15.8134 27.9374 13.6255 25.7495C11.4375 23.5616 10.2084 20.5941 10.2084 17.4999C10.2084 14.4057 11.4375 11.4383 13.6255 9.25034C15.8134 7.06242 18.7808 5.83325 21.875 5.83325ZM21.875 8.74992C19.5544 8.74992 17.3288 9.67179 15.6879 11.3127C14.0469 12.9537 13.125 15.1793 13.125 17.4999C13.125 19.8206 14.0469 22.0462 15.6879 23.6871C17.3288 25.328 19.5544 26.2499 21.875 26.2499C24.1957 26.2499 26.4213 25.328 28.0622 23.6871C29.7032 22.0462 30.625 19.8206 30.625 17.4999C30.625 15.1793 29.7032 12.9537 28.0622 11.3127C26.4213 9.67179 24.1957 8.74992 21.875 8.74992ZM20.4167 11.6666H22.6042V17.1791L26.0021 20.577L24.4563 22.1228L20.4167 18.0833V11.6666ZM2.91671 26.2499C2.52993 26.2499 2.159 26.0963 1.88551 25.8228C1.61202 25.5493 1.45837 25.1784 1.45837 24.7916C1.45837 24.4048 1.61202 24.0339 1.88551 23.7604C2.159 23.4869 2.52993 23.3333 2.91671 23.3333H8.50212C8.95421 24.3687 9.53754 25.3458 10.2084 26.2499H2.91671ZM4.37504 18.9583C3.98827 18.9583 3.61733 18.8046 3.34384 18.5311C3.07035 18.2576 2.91671 17.8867 2.91671 17.4999C2.91671 17.1131 3.07035 16.7422 3.34384 16.4687C3.61733 16.1952 3.98827 16.0416 4.37504 16.0416H7.36462L7.29171 17.4999L7.36462 18.9583H4.37504ZM5.83337 11.6666C5.4466 11.6666 5.07567 11.5129 4.80218 11.2394C4.52869 10.966 4.37504 10.595 4.37504 10.2083C4.37504 9.82148 4.52869 9.45055 4.80218 9.17705C5.07567 8.90356 5.4466 8.74992 5.83337 8.74992H10.2084C9.53754 9.65409 8.95421 10.6312 8.50212 11.6666H5.83337Z" fill="#050A09"/>
</g>
</svg>
