<svg width="30" height="30" viewBox="0 0 30 30" fill="none" xmlns="http://www.w3.org/2000/svg">
<g clip-path="url(#clip0_812_7383)">
<path fill-rule="evenodd" clip-rule="evenodd" d="M14.118 -0.100576L14.1214 -0.100586L15.882 -0.100581C16.5497 -0.0986032 17.2013 0.104984 17.7514 0.483521C18.3013 0.861964 18.7241 1.39763 18.9645 2.02039C18.9645 2.02023 18.9646 2.02054 18.9645 2.02039L19.7361 4.01198L22.1502 5.40096L24.2733 5.07711L24.2924 5.07435C24.9437 4.98595 25.6065 5.09316 26.1967 5.38237C26.787 5.67157 27.2779 6.12972 27.6071 6.69857L27.6103 6.70416L28.4642 8.19846C28.8012 8.77482 28.9563 9.43957 28.9092 10.1057C28.8619 10.7728 28.614 11.41 28.198 11.9336L26.8861 13.6049V16.3862L28.2379 18.0624C28.6557 18.5867 28.9047 19.2253 28.952 19.8941C28.9992 20.5601 28.8441 21.2248 28.5072 21.8011L27.65 23.3012C27.3207 23.87 26.8298 24.3282 26.2396 24.6174C25.6494 24.9066 24.9865 25.0138 24.3352 24.9254L24.3161 24.9226L22.1931 24.5988L19.7789 25.9878L19.0076 27.9789C19.0075 27.979 19.0076 27.9787 19.0076 27.9789C18.7672 28.6016 18.3441 29.1378 17.7942 29.5162C17.2442 29.8948 16.5926 30.0983 15.9249 30.1003L15.9214 30.1003H14.1214L14.118 30.1003C13.4502 30.0983 12.7987 29.8948 12.2486 29.5162C11.6987 29.1378 11.2759 28.6021 11.0354 27.9794C11.0354 27.9792 11.0355 27.9795 11.0354 27.9794L10.2639 25.9878L7.84973 24.5988L5.7267 24.9226L5.70761 24.9254C5.05632 25.0138 4.39345 24.9066 3.80323 24.6174C3.21302 24.3282 2.72211 23.87 2.39287 23.3012L2.38964 23.2956L1.53568 21.8011C1.19875 21.2248 1.04365 20.5601 1.09081 19.8941C1.13804 19.2269 1.38601 18.5896 1.80206 18.066L3.11383 16.3949V13.6135L1.76206 11.9373C1.34427 11.413 1.09529 10.7744 1.04795 10.1057C1.0008 9.43961 1.1559 8.77489 1.49286 8.19856L2.35 6.69856C2.67923 6.12971 3.17016 5.67157 3.76038 5.38237C4.35059 5.09316 5.01346 4.98595 5.66475 5.07435L5.68385 5.07711L7.81068 5.40154L10.2653 4.00837L11.0353 2.02085C11.0354 2.02049 11.0355 2.02013 11.0357 2.01977C11.2761 1.39727 11.6989 0.861838 12.2486 0.483521C12.7987 0.104984 13.4502 -0.0986032 14.118 -0.100576ZM15.8765 2.24317H14.1235C13.9284 2.24403 13.738 2.30364 13.5773 2.41426C13.4162 2.52515 13.2923 2.68211 13.2219 2.86459L12.2999 5.24461C12.2023 5.49658 12.0206 5.70708 11.7856 5.84046L8.61414 7.64046C8.38522 7.77039 8.11921 7.81946 7.85898 7.77977L5.34182 7.39579C5.15351 7.37177 4.96223 7.40346 4.79166 7.48703C4.61955 7.57137 4.47627 7.70474 4.37984 7.87033L3.5246 9.36699L3.51736 9.37949C3.41783 9.54878 3.37198 9.74427 3.38585 9.94015C3.39965 10.1351 3.47196 10.3213 3.59329 10.4745L5.1979 12.4642C5.36594 12.6726 5.45758 12.9322 5.45758 13.1999V16.7999C5.45758 17.0623 5.36952 17.317 5.20751 17.5234L3.63792 19.5231C3.51554 19.6766 3.44257 19.8637 3.42871 20.0596C3.41484 20.2555 3.46069 20.451 3.56022 20.6202L3.56746 20.6327L4.42138 22.1271C4.4218 22.1279 4.42222 22.1286 4.42264 22.1293C4.51907 22.2949 4.66238 22.4284 4.83452 22.5127C5.0051 22.5963 5.1964 22.628 5.38472 22.6039L7.90184 22.22C8.16439 22.1799 8.43276 22.2302 8.66297 22.3627L11.7915 24.1627C12.0237 24.2963 12.2031 24.5054 12.2999 24.7551L13.2219 27.1351C13.2923 27.3176 13.4162 27.4746 13.5773 27.5855C13.738 27.6961 13.9283 27.7557 14.1234 27.7566H15.9194C16.1145 27.7557 16.3048 27.6961 16.4655 27.5855C16.6267 27.4746 16.7506 27.3176 16.821 27.1351L17.743 24.7551C17.8397 24.5054 18.0191 24.2963 18.2513 24.1627L21.3799 22.3627C21.6101 22.2302 21.8784 22.1799 22.141 22.22L24.6581 22.6039C24.8464 22.628 25.0377 22.5963 25.2083 22.5127C25.3804 22.4284 25.5237 22.295 25.6201 22.1294C25.6206 22.1286 25.621 22.1279 25.6214 22.1271L26.4754 20.6327L26.4826 20.6202C26.5821 20.451 26.628 20.2555 26.6141 20.0596C26.6003 19.8646 26.528 19.6784 26.4067 19.5252C26.4061 19.5245 26.4055 19.5238 26.4049 19.523L24.8021 17.5355C24.634 17.3272 24.5424 17.0675 24.5424 16.7999V13.1999C24.5424 12.9375 24.6305 12.6827 24.7925 12.4763L26.3621 10.4767C26.4844 10.3231 26.5574 10.136 26.5713 9.94015C26.5851 9.74427 26.5393 9.54878 26.4398 9.37949L26.4325 9.36699L25.5786 7.87259C25.5782 7.87185 25.5777 7.87111 25.5773 7.87037C25.4809 7.70476 25.3376 7.57137 25.1655 7.48703C24.9949 7.40346 24.8036 7.37177 24.6153 7.39579L22.0981 7.77977C21.8356 7.81982 21.5672 7.7695 21.337 7.63705L18.2084 5.83705C17.9763 5.70347 17.7969 5.49438 17.7001 5.24461L16.7781 2.86459C16.7077 2.68211 16.5838 2.52515 16.4227 2.41426C16.2619 2.30364 16.0716 2.24403 15.8765 2.24317ZM11.1409 11.1408C12.1644 10.1173 13.5525 9.54228 15 9.54228C16.0794 9.54228 17.1346 9.86236 18.0321 10.462C18.9296 11.0617 19.6291 11.9141 20.0421 12.9113C20.4552 13.9086 20.5633 15.0059 20.3527 16.0646C20.1421 17.1233 19.6223 18.0957 18.8591 18.859C18.0958 19.6222 17.1234 20.142 16.0647 20.3526C15.006 20.5632 13.9087 20.4551 12.9115 20.042C11.9142 19.629 11.0619 18.9294 10.4622 18.0319C9.86248 17.1344 9.5424 16.0793 9.5424 14.9999C9.5424 13.5524 10.1174 12.1643 11.1409 11.1408ZM15 11.886C14.1741 11.886 13.3821 12.2141 12.7982 12.798C12.2142 13.382 11.8861 14.174 11.8861 14.9999C11.8861 15.6157 12.0688 16.2178 12.4109 16.7298C12.7531 17.2419 13.2394 17.641 13.8084 17.8767C14.3774 18.1124 15.0034 18.174 15.6075 18.0539C16.2115 17.9337 16.7663 17.6372 17.2018 17.2017C17.6373 16.7662 17.9338 16.2114 18.054 15.6073C18.1741 15.0033 18.1125 14.3772 17.8768 13.8083C17.6411 13.2393 17.242 12.753 16.7299 12.4108C16.2179 12.0687 15.6158 11.886 15 11.886Z" fill="#050A09"/>
</g>
<defs>
<clipPath id="clip0_812_7383">
<rect width="30" height="30" fill="white"/>
</clipPath>
</defs>
</svg>
