<svg width="32" height="32" viewBox="0 0 32 32" fill="none" xmlns="http://www.w3.org/2000/svg">
<path d="M15.8334 26.667C15.9223 26.667 16.0112 26.6448 16.1001 26.6003C16.189 26.5559 16.2556 26.5114 16.3001 26.467L27.2334 15.5337C27.5001 15.267 27.6947 14.967 27.8174 14.6337C27.9401 14.3003 28.001 13.967 28.0001 13.6337C28.0001 13.2781 27.9387 12.939 27.8161 12.6163C27.6934 12.2937 27.4992 12.0105 27.2334 11.767L21.5667 6.10033C21.3223 5.83366 21.0387 5.63899 20.7161 5.51633C20.3934 5.39366 20.0552 5.33277 19.7014 5.33366C19.3681 5.33366 19.0347 5.39499 18.7014 5.51766C18.3681 5.64033 18.0681 5.83455 17.8014 6.10033L17.4347 6.46699L19.9014 8.96699C20.2347 9.2781 20.4792 9.63366 20.6347 10.0337C20.7903 10.4337 20.8681 10.8559 20.8681 11.3003C20.8681 12.2337 20.5516 13.0172 19.9187 13.651C19.2858 14.2848 18.5023 14.6012 17.5681 14.6003C17.1236 14.6003 16.6956 14.5225 16.2841 14.367C15.8725 14.2114 15.5116 13.9781 15.2014 13.667L12.7001 11.2003L6.86674 17.0337C6.80007 17.1003 6.74985 17.1728 6.71607 17.251C6.68229 17.3292 6.66585 17.4119 6.66674 17.499C6.66674 17.6768 6.7334 17.8381 6.86674 17.983C7.00007 18.1279 7.15562 18.1999 7.3334 18.199C7.42229 18.199 7.51118 18.1768 7.60007 18.1323C7.68896 18.0879 7.75562 18.0434 7.80007 17.999L12.3334 13.4657L14.2001 15.3323L9.70007 19.8657C9.6334 19.9323 9.58318 20.0048 9.5494 20.083C9.51562 20.1612 9.49918 20.2443 9.50007 20.3323C9.50007 20.5101 9.56674 20.6657 9.70007 20.799C9.8334 20.9323 9.98896 20.999 10.1667 20.999C10.2556 20.999 10.3445 20.9768 10.4334 20.9323C10.5223 20.8879 10.589 20.8434 10.6334 20.799L15.1667 16.299L17.0334 18.1657L12.5334 22.699C12.4667 22.7434 12.4165 22.8101 12.3827 22.899C12.349 22.9879 12.3325 23.0768 12.3334 23.1657C12.3334 23.3434 12.4001 23.499 12.5334 23.6323C12.6667 23.7657 12.8223 23.8323 13.0001 23.8323C13.089 23.8323 13.1725 23.8154 13.2507 23.7817C13.329 23.7479 13.401 23.6981 13.4667 23.6323L18.0001 19.1323L19.8667 20.999L15.3334 25.5323C15.2667 25.599 15.2165 25.671 15.1827 25.7483C15.149 25.8257 15.1325 25.9092 15.1334 25.999C15.1334 26.1768 15.2058 26.3323 15.3507 26.4657C15.4956 26.599 15.6565 26.667 15.8334 26.667ZM15.8001 29.3337C14.9778 29.3337 14.2498 29.0612 13.6161 28.5163C12.9823 27.9714 12.6103 27.2883 12.5001 26.467C11.7445 26.3559 11.1112 26.0448 10.6001 25.5337C10.089 25.0225 9.77785 24.3892 9.66674 23.6337C8.91118 23.5225 8.28318 23.2057 7.78274 22.683C7.28229 22.1603 6.97696 21.5328 6.86674 20.8003C6.02229 20.6892 5.3334 20.3225 4.80007 19.7003C4.26674 19.0781 4.00007 18.3448 4.00007 17.5003C4.00007 17.0559 4.08362 16.6283 4.25074 16.2177C4.41785 15.807 4.65651 15.4457 4.96673 15.1337L12.7001 7.43366L17.0667 11.8003C17.1112 11.867 17.1778 11.9172 17.2667 11.951C17.3556 11.9848 17.4445 12.0012 17.5334 12.0003C17.7334 12.0003 17.9001 11.9394 18.0334 11.8177C18.1667 11.6959 18.2334 11.5345 18.2334 11.3337C18.2334 11.2448 18.2165 11.1559 18.1827 11.067C18.149 10.9781 18.0992 10.9114 18.0334 10.867L13.2667 6.10033C13.0223 5.83366 12.7392 5.63899 12.4174 5.51633C12.0956 5.39366 11.7565 5.33277 11.4001 5.33366C11.0667 5.33366 10.7334 5.39499 10.4001 5.51766C10.0667 5.64033 9.76674 5.83455 9.50007 6.10033L4.80007 10.8337C4.60007 11.0337 4.4334 11.267 4.30007 11.5337C4.16674 11.8003 4.07785 12.067 4.0334 12.3337C3.98896 12.6003 3.98896 12.8728 4.0334 13.151C4.07785 13.4292 4.16674 13.6901 4.30007 13.9337L2.36673 15.867C1.98896 15.3559 1.71118 14.795 1.5334 14.1843C1.35562 13.5737 1.28896 12.9568 1.3334 12.3337C1.37785 11.7114 1.5334 11.1057 1.80007 10.5163C2.06674 9.92699 2.4334 9.39944 2.90007 8.93366L7.60007 4.23366C8.1334 3.72255 8.72807 3.33366 9.38407 3.06699C10.0401 2.80033 10.7121 2.66699 11.4001 2.66699C12.089 2.66699 12.7614 2.80033 13.4174 3.06699C14.0734 3.33366 14.6565 3.72255 15.1667 4.23366L15.5334 4.60033L15.9001 4.23366C16.4334 3.72255 17.0281 3.33366 17.6841 3.06699C18.3401 2.80033 19.0121 2.66699 19.7001 2.66699C20.389 2.66699 21.0614 2.80033 21.7174 3.06699C22.3734 3.33366 22.9565 3.72255 23.4667 4.23366L29.1001 9.86699C29.6112 10.3781 30.0001 10.967 30.2667 11.6337C30.5334 12.3003 30.6667 12.9781 30.6667 13.667C30.6667 14.3559 30.5334 15.0283 30.2667 15.6843C30.0001 16.3403 29.6112 16.9234 29.1001 17.4337L18.1667 28.3337C17.8556 28.6448 17.4943 28.8892 17.0827 29.067C16.6712 29.2448 16.2436 29.3337 15.8001 29.3337Z" fill="#050A09"/>
</svg>
