<svg width="44" height="44" viewBox="0 0 44 44" fill="none" xmlns="http://www.w3.org/2000/svg">
<path d="M38.6108 24.1816L32.0247 27.9091L26.1175 22.0389L32.0717 16.1216L38.6108 19.8222C38.9968 20.0405 39.3178 20.3572 39.5412 20.7402C39.7646 21.1232 39.8823 21.5586 39.8823 22.0019C39.8823 22.4453 39.7646 22.8807 39.5412 23.2637C39.3178 23.6466 38.9968 23.9634 38.6108 24.1816ZM3.85491 3.38624C3.7302 3.68901 3.66624 4.01335 3.66669 4.3408V39.6614C3.66669 40.0261 3.74232 40.3655 3.87508 40.6697L22.6219 22.0372L3.85491 3.38624ZM24.3697 20.3012L29.845 14.8595L7.40596 2.1611C6.925 1.88471 6.36484 1.77871 5.81614 1.86028L24.3697 20.3012ZM24.3697 23.7749L5.88336 42.1486C6.38417 42.2091 6.91187 42.1217 7.40596 41.8411L29.7979 29.1696L24.3697 23.7749Z" fill="#001514"/>
</svg>
