<svg width="28" height="28" viewBox="0 0 28 28" fill="none" xmlns="http://www.w3.org/2000/svg">
<path fill-rule="evenodd" clip-rule="evenodd" d="M13.9996 3.42676C13.7359 3.42676 13.4455 3.56651 13.2806 3.9367L4.69146 23.1986C4.49707 23.634 4.61318 24.0539 4.86836 24.321C5.11564 24.5799 5.42945 24.6474 5.74642 24.4787M5.74642 24.4787L12.6336 20.8017C13.4906 20.3433 14.5085 20.3438 15.3656 20.8013L22.2536 24.4786C22.5702 24.6477 22.8835 24.5805 23.131 24.3213C23.3865 24.0537 23.5026 23.6335 23.3087 23.1988L14.7198 3.93733C14.5543 3.56665 14.2633 3.42676 13.9996 3.42676M11.2826 3.04607C12.3567 0.636174 15.6425 0.637929 16.7173 3.04568L25.3064 22.3075C25.8905 23.6169 25.5319 24.9743 24.7132 25.8318C23.8865 26.6979 22.5262 27.1039 21.2234 26.4084L14.3355 22.7311C14.1215 22.6169 13.8771 22.6174 13.6654 22.7306L6.77664 26.4084C5.47446 27.1026 4.11377 26.6978 3.28669 25.8321C2.46748 24.9747 2.10897 23.6176 2.69359 22.3077M2.69359 22.3077L11.2826 3.04607L2.69359 22.3077Z" fill="#050A09"/>
</svg>
