<svg width="30" height="30" viewBox="0 0 30 30" fill="none" xmlns="http://www.w3.org/2000/svg">
<path d="M8.5 10.6668C9.64927 10.6668 10.7515 10.2103 11.5641 9.39765C12.3768 8.58505 12.8333 7.48293 12.8333 6.33374C12.8333 5.18456 12.3768 4.08243 11.5641 3.26984C10.7515 2.45724 9.64927 2.00072 8.5 2.00072C7.35073 2.00072 6.24853 2.45724 5.43587 3.26984C4.62321 4.08243 4.16667 5.18456 4.16667 6.33374C4.16667 7.48293 4.62321 8.58505 5.43587 9.39765C6.24853 10.2103 7.35073 10.6668 8.5 10.6668ZM8.5 8.50025C7.92536 8.50025 7.37426 8.272 6.96794 7.8657C6.56161 7.4594 6.33333 6.90834 6.33333 6.33374C6.33333 5.75915 6.56161 5.20809 6.96794 4.80179C7.37426 4.39549 7.92536 4.16723 8.5 4.16723C9.07464 4.16723 9.62574 4.39549 10.0321 4.80179C10.4384 5.20809 10.6667 5.75915 10.6667 6.33374C10.6667 6.90834 10.4384 7.4594 10.0321 7.8657C9.62574 8.272 9.07464 8.50025 8.5 8.50025ZM2 14.6387C2 13.2435 3.13244 12.1111 4.52778 12.1111H12.4722C13.8676 12.1111 15 13.2435 15 14.6387V21.4993C15 23.2231 14.3152 24.8763 13.0962 26.0952C11.8772 27.3141 10.2239 27.9988 8.5 27.9988C6.77609 27.9988 5.12279 27.3141 3.90381 26.0952C2.68482 24.8763 2 23.2231 2 21.4993V14.6387ZM4.52778 14.2776C4.43201 14.2776 4.34015 14.3157 4.27243 14.3834C4.20471 14.4511 4.16667 14.5429 4.16667 14.6387V21.4993C4.16667 22.6485 4.62321 23.7506 5.43587 24.5632C6.24853 25.3758 7.35073 25.8323 8.5 25.8323C9.64927 25.8323 10.7515 25.3758 11.5641 24.5632C12.3768 23.7506 12.8333 22.6485 12.8333 21.4993V14.6387C12.8333 14.5429 12.7953 14.4511 12.7276 14.3834C12.6598 14.3157 12.568 14.2776 12.4722 14.2776H4.52778ZM12.8723 10.1093C13.5317 10.4803 14.2767 10.6722 15.0333 10.6659C15.7899 10.6596 16.5316 10.4554 17.1848 10.0735C17.8379 9.69161 18.3796 9.14538 18.7561 8.48915C19.1326 7.83292 19.3307 7.08956 19.3307 6.33302C19.3307 5.57648 19.1326 4.83312 18.7561 4.17689C18.3796 3.52066 17.8379 2.97444 17.1848 2.59255C16.5316 2.21066 15.7899 2.00642 15.0333 2.00015C14.2767 1.99388 13.5317 2.18579 12.8723 2.55679C13.3447 3.10275 13.7159 3.73826 13.9586 4.43444C14.2885 4.25368 14.6598 4.16195 15.036 4.16826C15.4122 4.17458 15.7802 4.27872 16.1039 4.47045C16.4276 4.66218 16.6958 4.93489 16.882 5.26173C17.0683 5.58857 17.1663 5.95828 17.1663 6.33447C17.1663 6.71066 17.0683 7.08037 16.882 7.4072C16.6958 7.73404 16.4276 8.00675 16.1039 8.19848C15.7802 8.39021 15.4122 8.49436 15.036 8.50067C14.6598 8.50699 14.2885 8.41525 13.9586 8.2345C13.7181 8.92239 13.3495 9.55852 12.8723 10.1093ZM13.3533 27.788C14.3149 28.0398 15.3214 28.0677 16.2955 27.8696C17.2696 27.6715 18.1852 27.2527 18.972 26.6453C19.7588 26.0379 20.3959 25.2582 20.8341 24.3661C21.2724 23.474 21.5002 22.4932 21.5 21.4993V14.6387C21.5 13.9683 21.2337 13.3254 20.7596 12.8514C20.2856 12.3774 19.6426 12.1111 18.9722 12.1111H15.5344C16.0299 12.7105 16.352 13.4587 16.4271 14.2776H18.9693C19.0651 14.2776 19.157 14.3157 19.2247 14.3834C19.2924 14.4511 19.3304 14.5429 19.3304 14.6387V21.4993C19.3305 22.6203 18.8961 23.6976 18.1185 24.5051C17.3409 25.3125 16.2806 25.7872 15.1603 25.8294C14.6707 26.5805 14.0611 27.242 13.3533 27.788ZM19.3723 10.1093C20.0317 10.4803 20.7767 10.6722 21.5333 10.6659C22.2899 10.6596 23.0316 10.4554 23.6848 10.0735C24.3379 9.69161 24.8796 9.14538 25.2561 8.48915C25.6326 7.83292 25.8307 7.08956 25.8307 6.33302C25.8307 5.57648 25.6326 4.83312 25.2561 4.17689C24.8796 3.52066 24.3379 2.97444 23.6848 2.59255C23.0316 2.21066 22.2899 2.00642 21.5333 2.00015C20.7767 1.99388 20.0317 2.18579 19.3723 2.55679C19.8447 3.10275 20.2159 3.73826 20.4586 4.43444C20.7885 4.25368 21.1598 4.16195 21.536 4.16826C21.9122 4.17458 22.2802 4.27872 22.6039 4.47045C22.9276 4.66218 23.1958 4.93489 23.382 5.26173C23.5683 5.58857 23.6663 5.95828 23.6663 6.33447C23.6663 6.71066 23.5683 7.08037 23.382 7.4072C23.1958 7.73404 22.9276 8.00675 22.6039 8.19848C22.2802 8.39021 21.9122 8.49436 21.536 8.50067C21.1598 8.50699 20.7885 8.41525 20.4586 8.2345C20.2181 8.92239 19.8495 9.55852 19.3723 10.1093ZM19.8533 27.788C20.8149 28.0398 21.8214 28.0677 22.7955 27.8696C23.7695 27.6715 24.6852 27.2527 25.472 26.6453C26.2588 26.0379 26.8959 25.2582 27.3341 24.3661C27.7724 23.474 28.0002 22.4932 28 21.4993V14.6387C28 13.9683 27.7337 13.3254 27.2596 12.8514C26.7856 12.3774 26.1426 12.1111 25.4722 12.1111H22.0344C22.5299 12.7105 22.8534 13.4587 22.9271 14.2776H25.4693C25.5651 14.2776 25.657 14.3157 25.7247 14.3834C25.7924 14.4511 25.8304 14.5429 25.8304 14.6387V21.4993C25.8305 22.6203 25.3961 23.6976 24.6185 24.5051C23.8409 25.3125 22.7806 25.7872 21.6603 25.8294C21.1707 26.5805 20.5611 27.242 19.8533 27.788Z" fill="#050A09"/>
</svg>
