<svg width="29" height="26" viewBox="0 0 29 26" fill="none" xmlns="http://www.w3.org/2000/svg">
<path fill-rule="evenodd" clip-rule="evenodd" d="M9.27886 2.97062C8.49194 2.88667 7.69616 2.96657 6.94164 3.20528C6.18712 3.44399 5.4902 3.83635 4.89476 4.35763C4.29933 4.87892 3.81827 5.51785 3.48189 6.23418C3.14552 6.95051 2.9611 7.72874 2.94026 8.51984C2.91942 9.31095 3.06261 10.0978 3.36081 10.8309C3.65901 11.5639 4.10576 12.2273 4.67293 12.7792L4.68221 12.7882L4.68217 12.7882L14.4508 22.4631L24.2195 12.7882C24.2496 12.7585 24.2806 12.7302 24.3125 12.7036C24.8333 12.1692 25.245 11.5379 25.5241 10.845C25.8189 10.1132 25.9595 9.32849 25.9371 8.53989C25.9146 7.7513 25.7297 6.97583 25.3938 6.262C25.0578 5.54818 24.5782 4.91138 23.9849 4.39145C23.3915 3.87152 22.6972 3.47966 21.9455 3.24039C21.1937 3.00113 20.4007 2.9196 19.616 3.00092C18.8313 3.08224 18.0718 3.32466 17.3851 3.713C16.6984 4.10134 16.0992 4.62724 15.6251 5.25779C15.3467 5.62803 14.91 5.84529 14.4467 5.844C13.9835 5.84271 13.548 5.62303 13.2717 5.25124C12.7996 4.61608 12.2012 4.08554 11.514 3.69303C10.8268 3.30053 10.0658 3.05456 9.27886 2.97062ZM26.1868 14.9753L15.4846 25.5747C14.9121 26.1418 13.9896 26.1418 13.417 25.5747L2.61894 14.8803C1.76336 14.0464 1.08931 13.0447 0.639114 11.938C0.188069 10.8292 -0.0285129 9.63907 0.00300679 8.44247C0.0345266 7.24587 0.313465 6.06876 0.822258 4.98526C1.33105 3.90176 2.05867 2.93534 2.95931 2.14687C3.85995 1.35839 4.91409 0.764931 6.05535 0.403865C7.19661 0.0427993 8.40027 -0.0780523 9.59053 0.0489183C10.7808 0.175889 11.9319 0.547932 12.9713 1.14162C13.5043 1.44608 14.0021 1.80545 14.4569 2.21292C14.9111 1.81044 15.4076 1.4557 15.9387 1.15536C16.9774 0.56797 18.1262 0.2013 19.3131 0.0782976C20.5 -0.0447054 21.6995 0.0786063 22.8366 0.440514C23.9737 0.802422 25.0238 1.39514 25.9213 2.18156C26.8188 2.96799 27.5443 3.93119 28.0524 5.01089C28.5605 6.09059 28.8402 7.26355 28.8742 8.45634C28.9081 9.64914 28.6955 10.8361 28.2496 11.9429C27.8037 13.0498 27.1341 14.0527 26.2828 14.8888C26.2518 14.9193 26.2197 14.9481 26.1868 14.9753Z" fill="#050A09"/>
</svg>
