<svg width="35" height="35" viewBox="0 0 35 35" fill="none" xmlns="http://www.w3.org/2000/svg">
<g id="mdi:school-online">
<path id="Vector" d="M30.625 4.375H4.37501C3.60146 4.375 2.8596 4.68229 2.31262 5.22927C1.76563 5.77625 1.45834 6.51812 1.45834 7.29167V11.6667H4.37501V7.29167H30.625V27.7083H20.4167V30.625H30.625C31.3986 30.625 32.1404 30.3177 32.6874 29.7707C33.2344 29.2237 33.5417 28.4819 33.5417 27.7083V7.29167C33.5417 6.51812 33.2344 5.77625 32.6874 5.22927C32.1404 4.68229 31.3986 4.375 30.625 4.375ZM1.45834 26.25V30.625H5.83334C5.83334 29.4647 5.37241 28.3519 4.55194 27.5314C3.73146 26.7109 2.61867 26.25 1.45834 26.25ZM1.45834 20.4167V23.3333C2.4159 23.3333 3.36408 23.5219 4.24874 23.8884C5.13341 24.2548 5.93724 24.7919 6.61433 25.469C7.29142 26.1461 7.82852 26.9499 8.19496 27.8346C8.56141 28.7193 8.75001 29.6674 8.75001 30.625H11.6667C11.6667 27.9176 10.5912 25.3211 8.67672 23.4066C6.76229 21.4922 4.16576 20.4167 1.45834 20.4167ZM1.45834 14.5833V17.5C3.18194 17.5 4.88867 17.8395 6.48106 18.4991C8.07346 19.1587 9.52035 20.1255 10.7391 21.3442C11.9579 22.563 12.9247 24.0099 13.5843 25.6023C14.2439 27.1947 14.5833 28.9014 14.5833 30.625H17.5C17.5 21.7583 10.3104 14.5833 1.45834 14.5833ZM16.0417 16.1729V19.0896L21.1458 21.875L26.25 19.0896V16.1729L21.1458 18.9583L16.0417 16.1729ZM21.1458 8.75L13.125 13.125L21.1458 17.5L29.1667 13.125L21.1458 8.75Z" fill="#050A09"/>
</g>
</svg>
