<svg width="35" height="35" viewBox="0 0 35 35" fill="none" xmlns="http://www.w3.org/2000/svg">
<g id="mdi:table-clock">
<path id="Vector" d="M24.0625 23.0708L27.6209 25.1271L26.5271 27.0229L21.875 24.3396V18.9583H24.0625V23.0708ZM29.1667 14.9625V7.29167C29.1667 6.51812 28.8594 5.77625 28.3124 5.22927C27.7654 4.68229 27.0236 4.375 26.25 4.375H5.83335C4.22919 4.375 2.91669 5.6875 2.91669 7.29167V24.7917C2.91669 25.5652 3.22398 26.3071 3.77096 26.8541C4.31794 27.401 5.05981 27.7083 5.83335 27.7083H14.1167C15.7646 31.15 19.2646 33.5417 23.3334 33.5417C28.9771 33.5417 33.5417 28.9771 33.5417 23.3333C33.5417 19.8625 31.8063 16.8146 29.1667 14.9625ZM26.25 10.2083V13.5479C25.3313 13.2854 24.3542 13.125 23.3334 13.125C21.1459 13.125 19.1479 13.8104 17.5 14.9625V10.2083H26.25ZM5.83335 10.2083H14.5834V16.0417H5.83335V10.2083ZM5.83335 24.7917V18.9583H14.1167C13.4668 20.3254 13.1281 21.8196 13.125 23.3333C13.125 23.8292 13.1688 24.3104 13.2417 24.7917H5.83335ZM23.3334 30.625C19.3084 30.625 16.0417 27.3583 16.0417 23.3333C16.0417 19.3083 19.3084 16.0417 23.3334 16.0417C27.3584 16.0417 30.625 19.3083 30.625 23.3333C30.625 27.3583 27.3584 30.625 23.3334 30.625Z" fill="#050A09"/>
</g>
</svg>
