<svg width="22" height="21" viewBox="0 0 22 21" fill="none" xmlns="http://www.w3.org/2000/svg">
<path d="M16.2756 13.5125C16.1153 14.3054 15.6861 15.0186 15.0605 15.5315C14.4349 16.0444 13.6514 16.3254 12.8425 16.3271C10.6765 16.3248 8.59986 15.4633 7.06828 13.9317C5.5367 12.4001 4.67523 10.3235 4.67292 8.15755C4.67459 7.3486 4.95564 6.56506 5.46851 5.93948C5.98138 5.31389 6.6946 4.88466 7.48752 4.7244C7.73818 4.67479 7.99819 4.70883 8.22764 4.82127C8.4571 4.93371 8.6433 5.11835 8.75769 5.34684L9.87419 7.58373C9.96576 7.76749 10.0072 7.97216 9.99443 8.17707C9.98162 8.38198 9.91499 8.57989 9.80125 8.75081L8.97262 9.99375C9.39925 10.8833 10.1167 11.6008 11.0063 12.0274L12.2492 11.1988C12.4201 11.085 12.618 11.0184 12.8229 11.0056C13.0278 10.9928 13.2325 11.0342 13.4163 11.1258L15.6532 12.2423C15.8817 12.3567 16.0663 12.5429 16.1787 12.7724C16.2912 13.0018 16.3252 13.2618 16.2756 13.5125ZM21.012 10.4917C21.0124 12.2909 20.5506 14.0601 19.6709 15.6295C18.7912 17.199 17.5231 18.5162 15.9881 19.4549C14.4532 20.3936 12.7029 20.9222 10.9049 20.9901C9.10702 21.0581 7.32178 20.663 5.72037 19.8429L2.56634 20.8981C2.22299 21.0139 1.85414 21.0314 1.50137 20.9487C1.14859 20.866 0.82592 20.6865 0.569715 20.4303C0.31351 20.1741 0.133958 19.8514 0.0512964 19.4986C-0.0313652 19.1459 -0.0138506 18.777 0.101866 18.4337L1.15321 15.2796C0.431264 13.8655 0.0393104 12.3061 0.00681661 10.7186C-0.0256772 9.13122 0.302134 7.55707 0.965605 6.11457C1.62907 4.67208 2.61094 3.39876 3.83737 2.39036C5.0638 1.38197 6.50289 0.664732 8.04642 0.292587C9.58996 -0.0795579 11.1978 -0.0969294 12.749 0.241779C14.3002 0.580487 15.7545 1.26646 17.0024 2.24812C18.2503 3.22978 19.2595 4.48159 19.954 5.90942C20.6484 7.33724 21.0102 8.90394 21.012 10.4917ZM18.6778 10.4917C18.6774 9.23859 18.3886 8.00239 17.834 6.87873C17.2793 5.75506 16.4736 4.77405 15.4791 4.01159C14.4847 3.24913 13.3282 2.72565 12.099 2.48165C10.8699 2.23765 9.60113 2.27967 8.39085 2.60446C7.18057 2.92926 6.06122 3.52811 5.1194 4.3547C4.17758 5.18129 3.43854 6.21347 2.95944 7.37137C2.48034 8.52927 2.27402 9.78187 2.35646 11.0323C2.4389 12.2827 2.80787 13.4973 3.43484 14.5823C3.51771 14.7254 3.56923 14.8844 3.586 15.0489C3.60277 15.2134 3.58439 15.3795 3.5321 15.5364L2.56634 18.4337L5.46361 17.4679C5.5828 17.4282 5.70757 17.4078 5.83319 17.4076C6.03816 17.408 6.23942 17.4623 6.41673 17.5652C7.65871 18.2838 9.06808 18.6627 10.503 18.6636C11.9379 18.6645 13.3478 18.2875 14.5907 17.5705C15.8336 16.8534 16.8657 15.8217 17.5832 14.579C18.3007 13.3363 18.6783 11.9266 18.6778 10.4917Z" fill="#001514"/>
</svg>
