<svg width="652" height="300" viewBox="0 0 652 300" fill="none" xmlns="http://www.w3.org/2000/svg">
<rect width="652" height="300" fill="#001514"/>
<path d="M413.756 98.5246C421.265 98.5246 427.353 92.4371 427.353 84.9278C427.353 77.4185 421.265 71.331 413.756 71.331C406.247 71.331 400.159 77.4185 400.159 84.9278C400.159 92.4371 406.247 98.5246 413.756 98.5246Z" stroke="#6CB876" stroke-width="4" stroke-linecap="round"/>
<path d="M223.903 227.694H372.475C374.465 227.694 376.416 227.147 378.117 226.115C379.818 225.082 381.203 223.602 382.121 221.837C383.04 220.072 383.456 218.089 383.326 216.103C383.195 214.117 382.522 212.206 381.381 210.576L307.088 104.453C306.085 103.022 304.751 101.854 303.201 101.048C301.651 100.242 299.929 99.8208 298.182 99.8208C296.435 99.8208 294.713 100.242 293.163 101.048C291.612 101.854 290.279 103.022 289.276 104.453L214.969 210.576C213.827 212.207 213.154 214.12 213.024 216.106C212.894 218.093 213.312 220.078 214.232 221.843C215.152 223.609 216.539 225.088 218.242 226.12C219.945 227.152 221.898 227.696 223.889 227.694H223.903Z" stroke="#6CB876" stroke-width="4" stroke-linecap="round"/>
<path d="M311.78 227.695H428.128C430.069 227.694 431.975 227.174 433.647 226.188C435.319 225.202 436.697 223.786 437.638 222.088C438.579 220.39 439.048 218.471 438.996 216.531C438.945 214.59 438.376 212.699 437.347 211.052L388.983 133.687C388.005 132.125 386.645 130.837 385.033 129.944C383.42 129.051 381.607 128.583 379.764 128.583C377.921 128.583 376.108 129.051 374.496 129.944C372.883 130.837 371.524 132.125 370.546 133.687L350.694 165.435" stroke="#6CB876" stroke-width="4" stroke-linecap="round"/>
</svg>
