<svg width="119" height="33" viewBox="0 0 119 33" fill="none" xmlns="http://www.w3.org/2000/svg">
<g id="Group">
<g id="Group_2">
<g id="Group_3">
<path id="Vector" d="M9.04793 30.1201C8.56679 30.1201 8.08235 30.1043 7.59395 30.0733C7.10489 30.0422 6.62375 29.9993 6.1512 29.9452C5.67797 29.8918 5.21993 29.8251 4.77839 29.7479C4.33685 29.67 3.92963 29.5849 3.55673 29.4925V26.304C4.05305 26.3509 4.60415 26.3898 5.20871 26.4208C5.81327 26.4518 6.43037 26.4749 7.05869 26.4901C7.68702 26.506 8.28035 26.5132 8.83871 26.5132C9.39707 26.5132 9.84323 26.471 10.2227 26.3852C10.6029 26.3 10.8939 26.1529 11.0959 25.9436C11.2972 25.7338 11.3982 25.4434 11.3982 25.0705V24.6289C11.3982 24.2098 11.2616 23.8924 10.991 23.6752C10.7191 23.4581 10.3745 23.3498 9.95543 23.3498H8.60573C6.86795 23.3498 5.54928 22.9697 4.65036 22.2094C3.75078 21.4497 3.30066 20.17 3.30066 18.3708V17.5557C3.30066 15.8654 3.79697 14.6128 4.78961 13.7983C5.78225 12.9839 7.20983 12.5767 9.07103 12.5767C9.75413 12.5767 10.4128 12.6123 11.0491 12.6816C11.6846 12.7516 12.2899 12.8334 12.8634 12.9258C13.4369 13.0195 13.9412 13.1205 14.3754 13.2287V16.3928C13.662 16.3459 12.8634 16.2997 11.979 16.2535C11.0953 16.2067 10.2881 16.1836 9.55943 16.1836C9.07829 16.1836 8.65193 16.2265 8.27969 16.3116C7.90745 16.3974 7.62035 16.5518 7.41905 16.7769C7.21709 17.002 7.11677 17.332 7.11677 17.7662V18.0916C7.11677 18.5886 7.25999 18.9523 7.54709 19.1852C7.83353 19.4176 8.27178 19.5344 8.86182 19.5344H10.4669C11.5374 19.5344 12.4219 19.7317 13.1201 20.1277C13.8184 20.5237 14.3418 21.0662 14.6903 21.7559C15.0394 22.4463 15.2143 23.2258 15.2143 24.0943V24.955C15.2143 26.3825 14.9615 27.4676 14.4573 28.2127C13.9537 28.9572 13.2396 29.4621 12.3169 29.7248C11.3942 29.9888 10.3039 30.1208 9.04793 30.1208V30.1201Z" fill="white"/>
<path id="Vector_2" d="M21.9377 30.12C21.5654 30.12 21.1272 30.0811 20.623 30.0039C20.1187 29.926 19.6336 29.7597 19.169 29.5036C18.7037 29.2482 18.3156 28.8522 18.0054 28.3169C17.6945 27.7816 17.5401 27.057 17.5401 26.1409V16.8567C17.5401 16.0508 17.6675 15.3756 17.9235 14.8324C18.179 14.2899 18.5057 13.8669 18.9004 13.5646C19.2964 13.2623 19.7419 13.0452 20.2382 12.9132C20.7345 12.7812 21.215 12.7158 21.6809 12.7158C22.9211 12.7158 23.9995 12.7356 24.9149 12.7739C25.8297 12.8122 26.6369 12.8551 27.3345 12.9019C28.0328 12.9481 28.6611 12.995 29.2195 13.0412V16.4382H22.8907C22.4723 16.4382 22.1462 16.5352 21.9139 16.7293C21.6816 16.9233 21.5648 17.2289 21.5648 17.648V19.5561L28.0796 19.7884V22.9531L21.5648 23.163V24.9773C21.5648 25.3185 21.6189 25.5865 21.7278 25.7799C21.836 25.9739 21.9839 26.1171 22.17 26.2102C22.3561 26.3032 22.5574 26.3494 22.7745 26.3494H29.2195V29.7234C28.537 29.8019 27.7774 29.8712 26.9398 29.9332C26.1023 29.9953 25.2528 30.0382 24.3915 30.0613C23.5309 30.0844 22.7125 30.1035 21.937 30.1194L21.9377 30.12Z" fill="white"/>
<path id="Vector_3" d="M55.5732 30.12C55.201 30.12 54.7627 30.0811 54.2585 30.0039C53.7542 29.926 53.2691 29.7597 52.8045 29.5036C52.3392 29.2482 51.9511 28.8522 51.6409 28.3169C51.3301 27.7816 51.1756 27.057 51.1756 26.1409V16.8567C51.1756 16.0508 51.303 15.3756 51.5591 14.8324C51.8145 14.2899 52.1412 13.8669 52.5359 13.5646C52.9319 13.2623 53.3774 13.0452 53.8737 12.9132C54.37 12.7812 54.8505 12.7158 55.3165 12.7158C56.5566 12.7158 57.635 12.7356 58.5505 12.7739C59.4652 12.8122 60.2724 12.8551 60.97 12.9019C61.6683 12.9481 62.2966 12.995 62.855 13.0412V16.4382H56.5263C56.1078 16.4382 55.7818 16.5352 55.5494 16.7293C55.3171 16.9233 55.2003 17.2289 55.2003 17.648V19.5561L61.7152 19.7884V22.9531L55.2003 23.163V24.9773C55.2003 25.3185 55.2544 25.5865 55.3633 25.7799C55.4716 25.9739 55.6194 26.1171 55.8055 26.2102C55.9917 26.3032 56.193 26.3494 56.4101 26.3494H62.855V29.7234C62.1725 29.8019 61.4129 29.8712 60.5753 29.9332C59.7378 29.9953 58.8884 30.0382 58.0271 30.0613C57.1665 30.0844 56.3481 30.1035 55.5726 30.1194L55.5732 30.12Z" fill="white"/>
<path id="Vector_4" d="M65.229 29.9808V12.7158H68.4174L75.0254 23.163V12.7158H79.0514V29.9808H75.8398L69.2319 19.5567V29.9808H65.2296H65.229Z" fill="white"/>
<path id="Vector_5" d="M52.994 6.25529L42.2248 29.981H39.006L26.7042 2.87939H31.2873L40.615 23.4298L46.8685 9.65495L46.8738 9.64307H42.3033V13.0302H38.9274V6.25529H52.994Z" fill="#004D49"/>
</g>
<g id="Group_4">
<g id="Group_5">
<path id="Vector_6" d="M88.7464 23.4487V12.8154H93.332C93.6858 12.8154 94.0481 12.8564 94.421 12.9375C94.7939 13.0187 95.1352 13.1837 95.4454 13.4319C95.7562 13.6807 96.0064 14.0556 96.1978 14.5565C96.3885 15.0581 96.4842 15.7247 96.4842 16.5556C96.4842 17.3866 96.3885 18.0578 96.1978 18.5686C96.0064 19.0801 95.7602 19.4643 95.4599 19.7223C95.1589 19.9804 94.8316 20.1546 94.4785 20.245C94.1247 20.3361 93.7808 20.3817 93.4462 20.3817C93.2746 20.3817 93.0832 20.3724 92.8734 20.3526C92.6628 20.3335 92.4529 20.3097 92.243 20.2807C92.0325 20.2523 91.8391 20.2213 91.6629 20.1876C91.486 20.1546 91.3402 20.1328 91.2253 20.1236V23.448H88.7464V23.4487ZM91.2253 18.1608H93.0595C93.2793 18.1608 93.4588 18.1034 93.5967 17.9885C93.7353 17.8737 93.8383 17.7021 93.9049 17.4731C93.9716 17.2434 94.0052 16.9424 94.0052 16.5702C94.0052 16.2171 93.9696 15.928 93.8977 15.7036C93.8264 15.4792 93.7234 15.3122 93.5895 15.202C93.4555 15.0918 93.2832 15.037 93.0733 15.037H91.2247V18.1614L91.2253 18.1608Z" fill="white"/>
<path id="Vector_7" d="M97.7455 23.4487V12.8154H102.217C102.666 12.8154 103.079 12.8702 103.456 12.9804C103.834 13.0906 104.163 13.2768 104.445 13.5394C104.727 13.8021 104.947 14.1579 105.104 14.6067C105.262 15.0561 105.341 15.6244 105.341 16.3121C105.341 16.78 105.298 17.1787 105.212 17.5087C105.126 17.838 105.011 18.1152 104.868 18.3396C104.725 18.564 104.56 18.7482 104.374 18.8914C104.188 19.0346 103.994 19.1587 103.793 19.2643L105.699 23.4487H103.177L101.586 19.6656C101.49 19.6656 101.383 19.6629 101.264 19.6583C101.144 19.6537 101.028 19.6511 100.913 19.6511H100.225V23.4487H97.7461H97.7455ZM100.224 17.6876H101.772C101.944 17.6876 102.097 17.6664 102.231 17.6235C102.365 17.58 102.479 17.5041 102.575 17.3945C102.67 17.2843 102.742 17.1437 102.79 16.9715C102.837 16.7999 102.862 16.5847 102.862 16.3266C102.862 16.0686 102.837 15.856 102.79 15.6891C102.742 15.5221 102.67 15.3934 102.575 15.3023C102.479 15.2119 102.365 15.1446 102.231 15.1017C102.097 15.0581 101.944 15.037 101.772 15.037H100.224V17.6882V17.6876Z" fill="white"/>
<path id="Vector_8" d="M111.029 23.5352C110.294 23.5352 109.647 23.4633 109.088 23.32C108.529 23.1768 108.061 22.9141 107.683 22.532C107.306 22.1499 107.024 21.6054 106.838 20.8985C106.652 20.1916 106.558 19.2696 106.558 18.1331C106.558 16.9966 106.654 16.0864 106.845 15.3743C107.036 14.6628 107.317 14.1157 107.69 13.7335C108.063 13.3514 108.529 13.0867 109.088 12.9382C109.647 12.7904 110.294 12.7158 111.029 12.7158C111.765 12.7158 112.427 12.7897 112.986 12.9382C113.545 13.0861 114.01 13.3514 114.383 13.7335C114.756 14.1157 115.035 14.6628 115.221 15.3743C115.407 16.0864 115.5 17.0058 115.5 18.1331C115.5 19.2604 115.407 20.1923 115.221 20.8985C115.035 21.606 114.753 22.1505 114.375 22.532C113.998 22.9141 113.532 23.1768 112.978 23.32C112.424 23.4633 111.774 23.5352 111.029 23.5352ZM111.029 21.3143C111.421 21.3143 111.746 21.2688 112.004 21.1777C112.262 21.0873 112.465 20.9295 112.613 20.7051C112.76 20.4807 112.865 20.1606 112.928 19.7448C112.99 19.3297 113.021 18.7918 113.021 18.1331C113.021 17.4744 112.99 16.9055 112.928 16.4851C112.866 16.0647 112.761 15.7419 112.613 15.5175C112.465 15.2931 112.262 15.14 112.004 15.0588C111.746 14.9776 111.421 14.9374 111.029 14.9374C110.637 14.9374 110.327 14.9776 110.07 15.0588C109.812 15.14 109.608 15.2931 109.46 15.5175C109.313 15.7419 109.205 16.0647 109.138 16.4851C109.071 16.9055 109.038 17.4546 109.038 18.1331C109.038 18.8116 109.069 19.3297 109.131 19.7448C109.193 20.1606 109.298 20.4807 109.446 20.7051C109.594 20.9295 109.797 21.0873 110.055 21.1777C110.313 21.2688 110.638 21.3143 111.029 21.3143Z" fill="white"/>
</g>
<path id="Vector_9" d="M115.501 28.6455H88.7464V29.98H115.501V28.6455Z" fill="#004D49"/>
</g>
</g>
</g>
</svg>
