<svg width="196" height="40" viewBox="0 0 196 40" fill="none" xmlns="http://www.w3.org/2000/svg">
<g clip-path="url(#clip0_812_7509)">
<path d="M1.75037 35.7461L0.439026 39.1014C4.15895 38.3617 7.90563 37.8069 11.6791 37.4634L13.713 29.4053C11.9199 29.8544 10.1269 30.3828 8.38735 31.0169C5.79143 32.0209 3.35609 33.4211 1.75037 35.7461Z" fill="#818181"/>
<path d="M36.8086 23.0117C34.4268 24.1742 30.6266 25.3103 28.8336 25.7066L31.8041 37.4635C35.5776 37.807 39.3243 38.3618 43.0442 39.1015L36.8086 23.0117Z" fill="#818181"/>
<path d="M10.4213 23.7781C13.2045 22.9062 15.7737 22.3778 18.4767 21.7438C21.1796 21.1097 23.9094 20.4228 26.5856 19.7623C29.235 19.1018 32.0985 18.4148 34.5071 17.0938C36.6481 15.9313 38.227 13.6856 37.3171 11.2021C36.2734 13.8442 33.5972 15.0859 31.0281 15.9578C28.5659 16.7768 25.97 17.4373 23.4276 18.0185C20.805 18.6262 18.1823 19.181 15.5864 19.7887C12.9904 20.3963 10.341 21.004 7.90566 22.0608C5.81822 22.9591 3.51669 24.0159 3.91812 27.3448C5.52384 25.469 8.17328 24.4914 10.4213 23.7781Z" fill="#818181"/>
<path d="M23.4276 16.2221C26.2108 15.5881 28.9406 14.769 31.6168 13.7915C32.714 13.3688 33.8648 12.8139 34.6944 11.9949C35.524 11.1495 36.0057 9.74922 35.4973 8.63957C34.8282 9.987 33.6507 10.8589 32.3126 11.5194L28.1912 0.87207H22.5444L25.7826 13.6858C22.9459 14.452 20.0823 15.0332 17.2188 15.6673L20.9655 0.87207H15.3187L8.60143 18.1244C7.37038 18.7056 6.27313 19.6039 6.27313 21.4533C6.94218 20.8456 8.36057 19.9209 11.7593 18.9434C17.3526 17.3318 18.4499 17.3846 23.4276 16.2221Z" fill="#818181"/>
<path d="M37.879 19.974C39.1101 18.7059 39.7791 16.5923 39.0298 14.9014C37.3973 18.5473 33.0351 19.7627 29.4757 20.7666C25.7023 21.8234 21.9021 22.7481 18.1019 23.6464C14.5425 24.4919 10.8494 25.1788 7.50412 26.7111C4.61382 28.0321 1.93762 29.908 1.88409 34.1088C3.48982 31.8102 5.92516 30.3835 8.54784 29.406C11.4381 28.3228 14.4622 27.6623 17.4328 26.8961C19.1724 26.4469 20.8851 25.9978 22.5979 25.5487C25.5952 24.7561 28.6194 23.9899 31.5899 23.0123C33.7041 22.2726 36.3001 21.6121 37.879 19.974Z" fill="#818181"/>
<path d="M63.7312 4.54404V6.94826H71.626V10.1715H63.7312V12.9985H72.4021V16.4595H59.8507V1.08301H72.4021V4.54404H63.7312Z" fill="#818181"/>
<path d="M87.6297 0.87207V16.4335H83.7492V14.6634C82.5717 15.9315 80.8857 16.6713 79.1461 16.6184C77.1122 16.6184 74.7304 14.6105 74.7304 11.1495C74.7304 7.68845 77.1925 5.86547 79.9222 5.86547C81.2336 5.89189 82.5449 6.15609 83.776 6.65807V1.26837C85.0605 1.26837 86.3719 1.13627 87.6297 0.87207ZM83.7492 12.2063V8.98304C83.1604 8.77168 82.5449 8.666 81.9294 8.63958C79.7349 8.63958 78.6377 9.40576 78.6377 11.1495C78.5574 12.4441 79.5743 13.5537 80.8857 13.6066C80.966 13.6066 81.0195 13.6066 81.0998 13.6066C82.2773 13.6066 83.1069 12.946 83.7492 12.2063Z" fill="#818181"/>
<path d="M101.064 6.07617V16.4593H97.1837V14.742C96.2203 15.7723 94.9357 16.6442 93.1962 16.6442C91.0552 16.6442 89.7974 15.2704 89.7974 11.4394V6.07617H93.6779V11.096C93.6779 12.4963 93.9991 13.4738 95.0695 13.4738C95.7654 13.4738 96.4076 13.0775 97.1837 12.2849V6.07617H101.064Z" fill="#818181"/>
<path d="M106.898 11.3078C106.898 12.6288 107.621 13.8969 109.682 13.8969C110.939 13.8969 112.599 13.395 114.071 12.8666V15.7992C113.107 16.3276 111.18 16.6182 109.708 16.6182C105.453 16.6182 103.018 14.716 103.018 11.2814C103.018 7.76748 105.453 5.86523 109.414 5.86523C111.02 5.89165 112.599 6.15585 114.097 6.68426V9.66973C112.625 9.14132 110.939 8.63934 109.708 8.63934C107.621 8.66576 106.898 9.93393 106.898 11.3078Z" fill="#818181"/>
<path d="M128.549 11.4662V16.4596H125.23L124.695 14.2932C123.732 16.0898 121.644 16.6446 119.503 16.6446C117.63 16.6446 116.051 15.5878 116.051 13.6327C116.051 11.5719 117.657 10.1981 121.136 10.1981C122.741 10.1981 124.668 10.5151 124.668 9.53757C124.668 9.08843 123.973 8.71855 121.484 8.71855C119.396 8.71855 116.452 9.45831 116.292 9.51115V6.6842C118.192 6.18222 120.146 5.91802 122.126 5.8916C126.675 5.8916 128.549 7.87311 128.549 11.4662ZM124.668 11.5983C124.133 11.9946 123.196 12.1267 121.055 12.1267C119.958 12.1267 119.61 12.5759 119.61 13.0779C119.61 13.6327 120.012 13.9761 121.082 13.9761C122.715 13.9761 124.668 12.9722 124.668 11.5983Z" fill="#818181"/>
<path d="M134.169 11.3078C134.169 12.6288 134.891 13.897 136.952 13.897C138.21 13.897 139.869 13.395 141.341 12.8666V15.7992C140.592 16.1955 139.254 16.4862 138.023 16.5654L135.346 20.2642L131.198 18.9432L134.945 16.4333C131.974 15.9049 130.262 14.1084 130.262 11.255C130.262 7.74111 132.697 5.83887 136.658 5.83887C138.263 5.86529 139.842 6.12949 141.341 6.65789V9.66978C139.869 9.14138 138.183 8.6394 136.952 8.6394C134.891 8.66582 134.169 9.93398 134.169 11.3078Z" fill="#818181"/>
<path d="M155.712 11.4663V16.4597H152.394L151.859 14.2933C150.842 16.1162 148.754 16.6447 146.613 16.6447C144.74 16.6447 143.161 15.5878 143.161 13.6328C143.161 11.572 144.767 10.1982 148.246 10.1982C149.851 10.1982 151.778 10.5152 151.778 9.53765C151.778 9.08851 151.082 8.71863 148.594 8.71863C146.506 8.71863 143.562 9.45839 143.402 9.51123V6.68428C145.302 6.1823 147.255 5.9181 149.236 5.89168C153.839 5.89168 155.712 7.87318 155.712 11.4663ZM146.908 3.01189C145.891 3.03831 144.927 3.40819 144.178 4.06869V1.08322C144.847 0.634082 145.944 0 147.229 0C148.915 0 150.173 1.08322 151.752 1.08322C152.715 1.08322 153.571 0.686922 154.428 0.0528402V2.82695C154.16 3.27609 152.929 4.09511 151.457 4.09511C149.771 4.06869 148.513 3.01189 146.908 3.01189ZM151.805 11.5984C151.27 11.9947 150.333 12.1268 148.192 12.1268C147.095 12.1268 146.747 12.576 146.747 13.0779C146.747 13.6328 147.122 13.9762 148.219 13.9762C149.851 13.9762 151.805 12.9723 151.805 11.5984Z" fill="#818181"/>
<path d="M171.395 11.2549C171.395 14.531 168.959 16.6446 164.41 16.6446C159.86 16.6446 157.452 14.531 157.452 11.2549C157.452 7.97879 159.887 5.8916 164.41 5.8916C168.959 5.8916 171.395 8.00521 171.395 11.2549ZM167.514 11.2549C167.514 9.51115 166.524 8.66571 164.41 8.66571C162.296 8.66571 161.306 9.48473 161.306 11.2549C161.306 13.025 162.296 13.8705 164.41 13.8705C166.524 13.8705 167.514 12.9986 167.514 11.2549Z" fill="#818181"/>
<path d="M73.3655 38.9429L71.4654 34.0816C68.7892 34.1344 64.8819 35.3762 62.9818 38.9429H58.6732L65.2031 23.5664H71.171L77.701 38.9429H73.3655ZM70.3146 31.149L68.1737 25.68L65.0693 33.606C66.5947 32.3907 68.3878 31.5453 70.3146 31.149Z" fill="#818181"/>
<path d="M90.975 23.3555V38.9433H87.0945V37.1732C85.917 38.4413 84.2309 39.1547 82.4914 39.1283C80.4575 39.1283 78.0757 37.1203 78.0757 33.6593C78.0757 30.1983 80.511 28.3753 83.2408 28.3753C84.5521 28.4017 85.8634 28.6659 87.0945 29.1679V23.7254C88.3791 23.7254 89.6904 23.5932 90.975 23.3555ZM87.0945 34.6633V31.44C86.5057 31.2287 85.8902 31.123 85.2747 31.0966C83.1069 31.0966 81.9829 31.8892 81.9829 33.6065C81.9027 34.901 82.8928 36.0107 84.2042 36.0899C84.2845 36.0899 84.3648 36.0899 84.4183 36.0899C85.6226 36.0899 86.4254 35.403 87.0945 34.6633Z" fill="#818181"/>
<path d="M106.229 28.5332L102.135 38.9427H96.5949L92.5003 28.5596H96.7822L99.4049 36.697L102.028 28.5596L106.229 28.5332Z" fill="#818181"/>
<path d="M113.509 36.5653C115.275 36.5653 116.961 36.0633 118.433 35.5349V38.2826C117.469 38.811 115.543 39.1016 113.482 39.1016C108.772 39.1016 106.31 37.1994 106.31 33.844C106.31 30.4887 108.745 28.3486 112.492 28.3486C116.747 28.3486 118.834 30.7793 118.834 34.6102H110.27C110.645 35.6934 111.501 36.5653 113.509 36.5653ZM110.244 32.9721H115.088C114.9 31.704 114.124 31.1492 112.518 31.1492C111.234 31.1756 110.431 31.7832 110.244 32.9721Z" fill="#818181"/>
<path d="M132.67 33.5534V38.9167H128.817V33.8969C128.817 32.2853 128.495 31.5455 127.157 31.5455C126.488 31.5455 125.552 31.8626 124.535 32.4966V38.9167H120.627V28.7186C121.939 28.6921 123.223 28.56 124.508 28.3223V30.1717C125.605 29.3262 127.425 28.3223 129.271 28.3223C131.386 28.3487 132.67 29.5112 132.67 33.5534Z" fill="#818181"/>
<path d="M140.431 31.3339V34.7685C140.431 35.7989 141.127 36.0367 141.876 36.0367C142.652 36.0367 143.348 35.9838 144.927 35.2969V38.3088C143.268 38.89 141.528 39.1807 139.762 39.1278C138.397 39.1278 136.497 38.3617 136.497 36.0895L136.524 31.3603H134.008V28.5334C136.551 28.5334 136.872 28.507 136.899 26.4726V24.9667C138.076 24.9402 139.28 24.8081 140.431 24.5439V28.5334H144.927V31.3339H140.431Z" fill="#818181"/>
<path d="M147.122 26.7633V23.54H151.002V26.7633H147.122ZM147.122 38.9165V28.5334H151.002V38.9165H147.122Z" fill="#818181"/>
<path d="M160.529 32.7609C163.393 33.3421 164.49 34.4782 164.49 36.1162C164.49 38.3355 162.59 39.1281 159.004 39.1281C157.05 39.1546 155.124 38.8904 153.25 38.3619V35.4029C155.445 36.2748 156.836 36.4861 158.335 36.4861C160.021 36.4861 160.583 36.3012 160.583 35.8785C160.583 35.218 159.165 35.218 157.211 34.8481C154.722 34.3461 152.983 33.5007 152.983 31.572C152.983 29.5112 154.963 28.2959 158.201 28.2959C160.503 28.2959 163.099 28.9036 164.169 29.1413V31.9683C162.537 31.4663 160.851 31.2285 159.138 31.2021C157.693 31.2021 156.81 31.4135 156.81 31.7305C156.836 32.1797 159.191 32.4703 160.529 32.7609Z" fill="#818181"/>
<path d="M172.064 31.3339V34.7685C172.064 35.7989 172.76 36.0367 173.509 36.0367C174.285 36.0367 174.981 35.9838 176.56 35.2969V38.3088C174.901 38.89 173.161 39.1807 171.395 39.1278C170.03 39.1278 168.13 38.3617 168.13 36.0895L168.157 31.3603H165.641V28.5334C168.183 28.5334 168.504 28.507 168.531 26.4726V24.9667C169.709 24.9667 170.913 24.8081 172.064 24.5439V28.5334H176.56V31.3339H172.064Z" fill="#818181"/>
<path d="M191.226 33.9497V38.9431H187.907L187.372 36.7767C186.408 38.5733 184.321 39.1281 182.18 39.1281C180.307 39.1281 178.728 38.0713 178.728 36.1162C178.728 34.0554 180.333 32.6816 183.812 32.6816C185.418 32.6816 187.345 32.9986 187.345 32.0211C187.345 31.5719 186.649 31.2021 184.16 31.2021C182.073 31.2021 179.129 31.9418 178.995 31.9947V29.1413C180.895 28.6393 182.849 28.3751 184.829 28.3223C189.352 28.3487 191.226 30.3566 191.226 33.9497ZM187.318 34.0554C186.783 34.4517 185.846 34.5838 183.705 34.5838C182.608 34.5838 182.26 35.033 182.26 35.5349C182.26 36.0898 182.662 36.4332 183.732 36.4332C185.365 36.4332 187.318 35.4557 187.318 34.0554Z" fill="#818181"/>
</g>
<defs>
<clipPath id="clip0_812_7509">
<rect width="195.122" height="40" fill="white" transform="translate(0.439026)"/>
</clipPath>
</defs>
</svg>
