<svg width="140" height="29" viewBox="0 0 140 29" fill="none" xmlns="http://www.w3.org/2000/svg">
<g id="logo 1" clip-path="url(#clip0_996_1224)">
<path id="Vector" d="M0.940886 25.6482L0 28.0556C2.66904 27.5249 5.35729 27.1268 8.06474 26.8803L9.52407 21.0986C8.23755 21.4209 6.95104 21.8 5.70292 22.255C3.84035 22.9753 2.09299 23.98 0.940886 25.6482Z" fill="white"/>
<path id="Vector_2" d="M26.0952 16.5112C24.3862 17.3453 21.6596 18.1604 20.373 18.4448L22.5044 26.8804C25.2119 27.1268 27.9001 27.5249 30.5692 28.0557L26.0952 16.5112Z" fill="white"/>
<path id="Vector_3" d="M7.16228 17.0608C9.15926 16.4353 11.0026 16.0562 12.942 15.6012C14.8814 15.1463 16.84 14.6534 18.7601 14.1795C20.6611 13.7056 22.7157 13.2127 24.4439 12.2649C25.98 11.4308 27.1129 9.8195 26.46 8.0376C25.7112 9.93324 23.791 10.8242 21.9476 11.4498C20.1811 12.0374 18.3185 12.5113 16.4943 12.9283C14.6126 13.3643 12.7308 13.7624 10.8682 14.1984C9.00565 14.6344 7.10467 15.0704 5.35731 15.8287C3.85958 16.4732 2.20823 17.2315 2.49625 19.62C3.64836 18.2741 5.54933 17.5727 7.16228 17.0608Z" fill="white"/>
<path id="Vector_4" d="M16.4944 11.6392C18.4913 11.1842 20.4499 10.5966 22.3701 9.89517C23.1574 9.59187 23.983 9.19378 24.5783 8.60614C25.1736 7.99953 25.5192 6.99484 25.1544 6.19867C24.6743 7.16545 23.8294 7.79101 22.8693 8.26492L19.9123 0.625488H15.8607L18.1841 9.81935C16.1487 10.3691 14.0941 10.7861 12.0396 11.2411L14.7278 0.625488H10.6762L5.85659 13.004C4.97331 13.4211 4.18604 14.0656 4.18604 15.3925C4.66608 14.9565 5.68377 14.2931 8.1224 13.5917C12.1356 12.4353 12.9228 12.4732 16.4944 11.6392Z" fill="white"/>
<path id="Vector_5" d="M26.8632 14.331C27.7465 13.4211 28.2265 11.9046 27.6889 10.6914C26.5176 13.3074 23.3877 14.1794 20.8339 14.8997C18.1264 15.658 15.3998 16.3215 12.6731 16.966C10.1193 17.5726 7.46945 18.0654 5.06923 19.1649C2.99544 20.1127 1.07527 21.4586 1.03687 24.4727C2.18897 22.8235 3.93633 21.7999 5.8181 21.0985C7.89189 20.3213 10.0617 19.8474 12.1931 19.2976C13.4412 18.9754 14.6701 18.6531 15.899 18.3308C18.0496 17.7621 20.2194 17.2124 22.3508 16.511C23.8678 15.9802 25.7303 15.5063 26.8632 14.331Z" fill="white"/>
<path id="Vector_6" d="M45.4122 3.26063V4.98567H51.0767V7.29835H45.4122V9.32668H51.6336V11.81H42.6279V0.777344H51.6336V3.26063H45.4122Z" fill="white"/>
<path id="Vector_7" d="M62.5593 0.625488V11.7908H59.7751V10.5207C58.9302 11.4306 57.7205 11.9614 56.4724 11.9235C55.013 11.9235 53.3041 10.4828 53.3041 7.99953C53.3041 5.51624 55.0706 4.20825 57.0292 4.20825C57.9701 4.22721 58.911 4.41677 59.7943 4.77694V0.909834C60.716 0.909834 61.6568 0.815052 62.5593 0.625488ZM59.7751 8.75779V6.44511C59.3526 6.29345 58.911 6.21763 58.4693 6.19867C56.8948 6.19867 56.1075 6.74841 56.1075 7.99953C56.0499 8.9284 56.7796 9.72456 57.7205 9.76248C57.7781 9.76248 57.8165 9.76248 57.8741 9.76248C58.719 9.76248 59.3142 9.28857 59.7751 8.75779Z" fill="white"/>
<path id="Vector_8" d="M72.1986 4.35986V11.8097H69.4143V10.5776C68.723 11.3169 67.8014 11.9424 66.5532 11.9424C65.0171 11.9424 64.1146 10.9567 64.1146 8.20801V4.35986H66.8989V7.96158C66.8989 8.96627 67.1293 9.66766 67.8974 9.66766C68.3966 9.66766 68.8575 9.38331 69.4143 8.81462V4.35986H72.1986Z" fill="white"/>
<path id="Vector_9" d="M76.3846 8.11352C76.3846 9.06134 76.903 9.97124 78.3816 9.97124C79.2841 9.97124 80.4746 9.61107 81.5307 9.23194V11.3361C80.8394 11.7152 79.4569 11.9238 78.4008 11.9238C75.3477 11.9238 73.6003 10.5589 73.6003 8.09456C73.6003 5.57336 75.3477 4.2085 78.1896 4.2085C79.3417 4.22745 80.4746 4.41702 81.5499 4.79614V6.93822C80.4938 6.55909 79.2841 6.19892 78.4008 6.19892C76.903 6.21788 76.3846 7.12778 76.3846 8.11352Z" fill="white"/>
<path id="Vector_10" d="M91.9188 8.22685V11.8096H89.5377L89.1537 10.2552C88.4624 11.5442 86.9647 11.9423 85.4286 11.9423C84.0844 11.9423 82.9515 11.1841 82.9515 9.78128C82.9515 8.30268 84.1036 7.31695 86.5999 7.31695C87.752 7.31695 89.1345 7.54442 89.1345 6.84304C89.1345 6.52078 88.6353 6.25539 86.8495 6.25539C85.3518 6.25539 83.2396 6.78617 83.1244 6.82408V4.79574C84.4877 4.43557 85.8894 4.24601 87.3103 4.22705C90.5746 4.22705 91.9188 5.64878 91.9188 8.22685ZM89.1345 8.32164C88.7505 8.60598 88.0784 8.70076 86.5423 8.70076C85.755 8.70076 85.5054 9.02302 85.5054 9.38319C85.5054 9.78128 85.7934 10.0277 86.5615 10.0277C87.7328 10.0277 89.1345 9.30737 89.1345 8.32164Z" fill="white"/>
<path id="Vector_11" d="M95.9512 8.11343C95.9512 9.06125 96.4696 9.97116 97.9481 9.97116C98.8506 9.97116 100.041 9.61099 101.097 9.23186V11.336C100.56 11.6204 99.5995 11.8289 98.7162 11.8858L96.796 14.5397L93.8198 13.5918L96.508 11.791C94.3766 11.4118 93.1477 10.1228 93.1477 8.07552C93.1477 5.55431 94.8951 4.18945 97.7369 4.18945C98.889 4.20841 100.022 4.39797 101.097 4.7771V6.93813C100.041 6.559 98.8314 6.19883 97.9481 6.19883C96.4696 6.21779 95.9512 7.1277 95.9512 8.11343Z" fill="white"/>
<path id="Vector_12" d="M111.409 8.22708V11.8098H109.028L108.644 10.2554C107.914 11.5634 106.416 11.9425 104.88 11.9425C103.536 11.9425 102.403 11.1843 102.403 9.78151C102.403 8.30291 103.555 7.31717 106.051 7.31717C107.203 7.31717 108.586 7.54465 108.586 6.84326C108.586 6.521 108.087 6.25561 106.301 6.25561C104.803 6.25561 102.691 6.78639 102.576 6.82431V4.79597C103.939 4.4358 105.341 4.24624 106.762 4.22728C110.064 4.22728 111.409 5.64901 111.409 8.22708ZM105.091 2.16103C104.362 2.17999 103.67 2.44538 103.133 2.91929V0.777213C103.613 0.454954 104.4 0 105.322 0C106.531 0 107.434 0.777213 108.567 0.777213C109.258 0.777213 109.872 0.492867 110.487 0.0379128V2.02834C110.295 2.35059 109.412 2.93824 108.355 2.93824C107.146 2.91929 106.243 2.16103 105.091 2.16103ZM108.605 8.32186C108.221 8.60621 107.549 8.70099 106.013 8.70099C105.226 8.70099 104.976 9.02325 104.976 9.38342C104.976 9.78151 105.245 10.0279 106.032 10.0279C107.203 10.0279 108.605 9.3076 108.605 8.32186Z" fill="white"/>
<path id="Vector_13" d="M122.661 8.0752C122.661 10.4258 120.913 11.9423 117.649 11.9423C114.385 11.9423 112.657 10.4258 112.657 8.0752C112.657 5.72461 114.404 4.22705 117.649 4.22705C120.913 4.22705 122.661 5.74356 122.661 8.0752ZM119.877 8.0752C119.877 6.82408 119.166 6.21747 117.649 6.21747C116.132 6.21747 115.422 6.80512 115.422 8.0752C115.422 9.34528 116.132 9.95189 117.649 9.95189C119.166 9.95189 119.877 9.32632 119.877 8.0752Z" fill="white"/>
<path id="Vector_14" d="M52.3247 27.9418L50.9614 24.4538C49.0412 24.4917 46.2378 25.3827 44.8744 27.9418H41.783L46.4682 16.9092H50.7502L55.4354 27.9418H52.3247ZM50.1357 22.3497L48.5996 18.4257L46.3722 24.1126C47.4667 23.2406 48.7532 22.634 50.1357 22.3497Z" fill="white"/>
<path id="Vector_15" d="M64.9596 16.7573V27.9416H62.1753V26.6715C61.3305 27.5814 60.1207 28.0933 58.8726 28.0743C57.4133 28.0743 55.7043 26.6336 55.7043 24.1503C55.7043 21.667 57.4517 20.359 59.4103 20.359C60.3512 20.378 61.2921 20.5676 62.1753 20.9277V17.0227C63.097 17.0227 64.0379 16.9279 64.9596 16.7573ZM62.1753 24.8707V22.558C61.7529 22.4063 61.3113 22.3305 60.8696 22.3116C59.3143 22.3116 58.5078 22.8802 58.5078 24.1124C58.4502 25.0413 59.1607 25.8374 60.1015 25.8943C60.1592 25.8943 60.2168 25.8943 60.2552 25.8943C61.1192 25.8943 61.6953 25.4014 62.1753 24.8707Z" fill="white"/>
<path id="Vector_16" d="M75.9046 20.4731L72.9667 27.942H68.9919L66.0541 20.4921H69.1264L71.0081 26.3307L72.8899 20.4921L75.9046 20.4731Z" fill="white"/>
<path id="Vector_17" d="M81.1274 26.2358C82.3947 26.2358 83.6045 25.8756 84.6606 25.4965V27.4679C83.9693 27.8471 82.5868 28.0556 81.1082 28.0556C77.7287 28.0556 75.9622 26.6907 75.9622 24.2833C75.9622 21.8758 77.7095 20.3403 80.3978 20.3403C83.4508 20.3403 84.9486 22.0843 84.9486 24.833H78.804C79.0728 25.6102 79.6873 26.2358 81.1274 26.2358ZM78.7848 23.6577H82.2603C82.1259 22.7478 81.5691 22.3497 80.417 22.3497C79.4953 22.3687 78.9192 22.8047 78.7848 23.6577Z" fill="white"/>
<path id="Vector_18" d="M94.8759 24.0747V27.9228H92.1108V24.3211C92.1108 23.1648 91.8804 22.634 90.9203 22.634C90.4403 22.634 89.7682 22.8614 89.0386 23.3164V27.9228H86.2351V20.6056C87.176 20.5867 88.0977 20.4919 89.0194 20.3213V21.6482C89.8066 21.0416 91.1124 20.3213 92.4373 20.3213C93.9542 20.3402 94.8759 21.1743 94.8759 24.0747Z" fill="white"/>
<path id="Vector_19" d="M100.444 22.4821V24.9465C100.444 25.6858 100.944 25.8564 101.481 25.8564C102.038 25.8564 102.537 25.8185 103.67 25.3256V27.4866C102.48 27.9037 101.232 28.1122 99.9643 28.0743C98.985 28.0743 97.6217 27.5246 97.6217 25.8943L97.6409 22.5011H95.8359V20.4728C97.6601 20.4728 97.8905 20.4538 97.9097 18.9942V17.9137C98.7546 17.8947 99.6187 17.7999 100.444 17.6104V20.4728H103.67V22.4821H100.444Z" fill="white"/>
<path id="Vector_20" d="M105.245 19.2028V16.8901H108.029V19.2028H105.245ZM105.245 27.9228V20.4729H108.029V27.9228H105.245Z" fill="white"/>
<path id="Vector_21" d="M114.865 23.5059C116.919 23.9229 117.707 24.738 117.707 25.9133C117.707 27.5057 116.343 28.0744 113.77 28.0744C112.369 28.0933 110.986 27.9038 109.642 27.5246V25.4015C111.217 26.0271 112.215 26.1787 113.29 26.1787C114.5 26.1787 114.903 26.046 114.903 25.7427C114.903 25.2688 113.886 25.2688 112.484 25.0034C110.698 24.6433 109.45 24.0367 109.45 22.6528C109.45 21.1742 110.871 20.3022 113.194 20.3022C114.846 20.3022 116.708 20.7382 117.476 20.9089V22.9372C116.305 22.577 115.095 22.4064 113.866 22.3875C112.829 22.3875 112.196 22.5391 112.196 22.7666C112.215 23.0888 113.905 23.2974 114.865 23.5059Z" fill="white"/>
<path id="Vector_22" d="M123.141 22.4821V24.9465C123.141 25.6858 123.64 25.8564 124.178 25.8564C124.735 25.8564 125.234 25.8185 126.367 25.3256V27.4866C125.176 27.9037 123.928 28.1122 122.661 28.0743C121.682 28.0743 120.318 27.5246 120.318 25.8943L120.337 22.5011H118.532V20.4728C120.357 20.4728 120.587 20.4538 120.606 18.9942V17.9137C121.451 17.9137 122.315 17.7999 123.141 17.6104V20.4728H126.367V22.4821H123.141Z" fill="white"/>
<path id="Vector_23" d="M136.889 24.359V27.9418H134.508L134.124 26.3873C133.433 27.6764 131.935 28.0745 130.399 28.0745C129.055 28.0745 127.922 27.3162 127.922 25.9134C127.922 24.4348 129.074 23.4491 131.57 23.4491C132.723 23.4491 134.105 23.6766 134.105 22.9752C134.105 22.6529 133.606 22.3875 131.82 22.3875C130.322 22.3875 128.21 22.9183 128.114 22.9562V20.9089C129.477 20.5488 130.879 20.3592 132.3 20.3213C135.545 20.3402 136.889 21.7809 136.889 24.359ZM134.086 24.4348C133.702 24.7192 133.03 24.814 131.494 24.814C130.706 24.814 130.457 25.1362 130.457 25.4964C130.457 25.8945 130.745 26.1409 131.513 26.1409C132.684 26.1409 134.086 25.4395 134.086 24.4348Z" fill="white"/>
</g>
<defs>
<clipPath id="clip0_996_1224">
<rect width="140" height="28.7" fill="white"/>
</clipPath>
</defs>
</svg>
