<svg width="14" height="15" viewBox="0 0 14 15" fill="none" xmlns="http://www.w3.org/2000/svg">
<path d="M9.9224 7.912H2.0999C1.90157 7.912 1.7352 7.8448 1.6008 7.7104C1.4664 7.576 1.39944 7.40987 1.3999 7.212C1.3999 7.01367 1.4671 6.8473 1.6015 6.7129C1.7359 6.5785 1.90204 6.51153 2.0999 6.512H9.9224L6.4924 3.082C6.3524 2.942 6.2852 2.77867 6.2908 2.592C6.2964 2.40533 6.36944 2.242 6.5099 2.102C6.6499 1.97367 6.81324 1.90647 6.99991 1.9004C7.18657 1.89433 7.34991 1.96153 7.4899 2.102L12.1099 6.722C12.1799 6.792 12.2296 6.86783 12.259 6.9495C12.2884 7.03117 12.3029 7.11867 12.3024 7.212C12.3024 7.30533 12.2877 7.39283 12.2583 7.4745C12.2289 7.55617 12.1794 7.632 12.1099 7.702L7.4899 12.322C7.36157 12.4503 7.20127 12.5145 7.009 12.5145C6.81674 12.5145 6.65037 12.4503 6.5099 12.322C6.3699 12.182 6.2999 12.0156 6.2999 11.8229C6.2999 11.6302 6.3699 11.464 6.5099 11.3245L9.9224 7.912Z" fill="#007D77"/>
</svg>
