<svg width="356" height="356" viewBox="0 0 356 356" fill="none" xmlns="http://www.w3.org/2000/svg">
<path d="M179.403 318.673V314.973H175.369V313.782H179.403V309.97H174.893V308.779H180.848V319.864H174.893V318.673H179.403Z" fill="#FCFCFC"/>
<path d="M156.885 318.213L158.034 307.283L159.471 307.435L158.615 315.584L163.104 307.816L164.115 307.923L166.905 316.472L167.763 308.306L169.2 308.457L168.052 319.387L166.504 319.224L163.41 309.765L158.417 318.374L156.885 318.213Z" fill="#FCFCFC"/>
<path d="M134.059 307.104C133.696 306.919 133.399 306.65 133.169 306.297C132.928 305.94 132.778 305.546 132.718 305.115C132.647 304.68 132.681 304.252 132.818 303.829C132.992 303.295 133.285 302.856 133.697 302.511C134.107 302.177 134.614 301.968 135.219 301.887C135.811 301.812 136.46 301.889 137.165 302.118L141.092 303.394L137.671 313.921L133.895 312.695C133.18 312.462 132.61 312.144 132.185 311.738C131.757 311.343 131.483 310.903 131.362 310.419C131.241 309.934 131.262 309.44 131.426 308.937C131.629 308.312 131.968 307.849 132.445 307.548C132.908 307.253 133.446 307.105 134.059 307.104ZM137.774 308.929L135.463 308.178C134.818 307.968 134.271 307.958 133.82 308.145C133.37 308.333 133.058 308.693 132.884 309.227C132.711 309.761 132.751 310.236 133.006 310.652C133.26 311.069 133.719 311.385 134.384 311.601L136.665 312.342L137.774 308.929ZM136.917 303.29C136.233 303.068 135.647 303.055 135.159 303.253C134.672 303.451 134.335 303.837 134.149 304.411C133.959 304.995 134.011 305.519 134.306 305.982C134.598 306.455 135.081 306.801 135.755 307.02L138.142 307.796L139.349 304.08L136.917 303.29Z" fill="#FCFCFC"/>
<path d="M122.827 296.463L123.394 301.67L124.99 302.381L126.831 298.246L128.151 298.834L123.649 308.946L120.385 307.492C119.621 307.152 119.035 306.735 118.629 306.241C118.214 305.743 117.974 305.214 117.911 304.653C117.848 304.092 117.944 303.526 118.198 302.955C118.508 302.259 118.984 301.735 119.628 301.384C120.261 301.028 121.018 300.942 121.898 301.126L121.245 295.759L122.827 296.463ZM124.518 303.44L122.574 302.574C121.859 302.255 121.244 302.19 120.731 302.379C120.214 302.578 119.824 302.972 119.562 303.562C119.295 304.162 119.267 304.706 119.478 305.194C119.68 305.678 120.144 306.081 120.869 306.404L122.813 307.27L124.518 303.44Z" fill="#FCFCFC"/>
<path d="M108.937 300.427L110.787 297.222L107.294 295.205L107.889 294.174L111.383 296.191L113.288 292.89L109.382 290.635L109.978 289.603L115.136 292.581L109.593 302.181L104.435 299.203L105.031 298.172L108.937 300.427Z" fill="#FCFCFC"/>
<path d="M90.0522 289.292L99.9375 282.792L101.287 283.772L98.1593 295.182L96.913 294.277L99.7094 284.511L91.2856 290.188L90.0522 289.292Z" fill="#FCFCFC"/>
<path d="M84.9923 283.392L87.4683 280.643L84.4706 277.943L85.2676 277.058L88.2653 279.757L90.8156 276.925L87.4639 273.907L88.2609 273.022L92.6866 277.007L85.2693 285.245L80.8436 281.26L81.6406 280.374L84.9923 283.392Z" fill="#FCFCFC"/>
<path d="M51.5853 231.126L52.7024 230.629L55.2797 236.418L54.1626 236.915L51.5853 231.126Z" fill="#6CB876"/>
<path d="M37.3271 179.403H41.0273V175.369H42.2184V179.403H46.0299V174.893H47.221V180.848H36.136V174.893H37.3271V179.403Z" fill="#FCFCFC"/>
<path d="M37.787 156.885L48.7165 158.034L48.5655 159.471L40.4157 158.615L48.1837 163.104L48.0774 164.115L39.5284 166.905L47.6939 167.763L47.5429 169.201L36.6134 168.052L36.7761 166.504L46.2352 163.41L37.626 158.417L37.787 156.885Z" fill="#FCFCFC"/>
<path d="M48.8963 134.059C49.081 133.696 49.35 133.399 49.7031 133.169C50.0595 132.928 50.4535 132.778 50.8849 132.718C51.3197 132.647 51.7485 132.681 52.1714 132.818C52.705 132.992 53.1442 133.285 53.4888 133.697C53.8234 134.107 54.0315 134.614 54.1131 135.219C54.1879 135.811 54.1108 136.46 53.8818 137.165L52.6058 141.092L42.0785 137.671L43.3054 133.895C43.5377 133.18 43.8564 132.61 44.2617 132.185C44.6568 131.757 45.0967 131.483 45.5813 131.362C46.0658 131.241 46.5598 131.262 47.0633 131.426C47.6876 131.629 48.1505 131.968 48.4521 132.445C48.7469 132.908 48.895 133.446 48.8963 134.059ZM47.0713 137.774L47.8222 135.463C48.0315 134.818 48.0425 134.271 47.8549 133.82C47.6673 133.37 47.3067 133.058 46.773 132.884C46.2394 132.711 45.7642 132.751 45.3477 133.006C44.9311 133.26 44.6148 133.719 44.3989 134.384L43.6579 136.665L47.0713 137.774ZM52.7097 136.917C52.9322 136.233 52.9445 135.647 52.7466 135.159C52.5487 134.672 52.1628 134.335 51.5889 134.149C51.0048 133.959 50.4813 134.011 50.0181 134.306C49.5449 134.598 49.1987 135.081 48.9795 135.755L48.2041 138.142L51.9196 139.349L52.7097 136.917Z" fill="#FCFCFC"/>
<path d="M59.5372 122.827L54.3301 123.394L53.6196 124.99L57.7544 126.831L57.1666 128.151L47.0544 123.649L48.5078 120.385C48.848 119.62 49.2649 119.035 49.7586 118.629C50.2566 118.214 50.7862 117.974 51.3474 117.911C51.9086 117.848 52.4745 117.944 53.0451 118.198C53.7415 118.508 54.2653 118.984 54.6164 119.627C54.9718 120.261 55.0578 121.018 54.8745 121.898L60.2412 121.245L59.5372 122.827ZM52.5605 124.518L53.426 122.574C53.7447 121.859 53.8096 121.244 53.6207 120.731C53.4222 120.214 53.0279 119.824 52.438 119.562C51.8383 119.295 51.2944 119.267 50.8062 119.478C50.3223 119.68 49.9189 120.144 49.5959 120.869L48.7304 122.813L52.5605 124.518Z" fill="#FCFCFC"/>
<path d="M55.5733 108.937L58.7778 110.787L60.7947 107.294L61.8262 107.889L59.8093 111.383L63.1102 113.288L65.3653 109.382L66.3968 109.978L63.4191 115.136L53.8192 109.593L56.7969 104.435L57.8284 105.031L55.5733 108.937Z" fill="#FCFCFC"/>
<path d="M66.7083 90.0522L73.2083 99.9375L72.2282 101.287L60.8181 98.1593L61.7236 96.913L71.4895 99.7094L65.8121 91.2856L66.7083 90.0522Z" fill="#FCFCFC"/>
<path d="M72.6076 84.9922L75.3575 87.4682L78.0566 84.4705L78.9418 85.2675L76.2426 88.2652L79.0751 90.8156L82.093 87.4638L82.9782 88.2608L78.9932 92.6865L70.7555 85.2692L74.7404 80.8435L75.6256 81.6405L72.6076 84.9922Z" fill="#FCFCFC"/>
<path d="M124.874 51.5852L125.371 52.7024L119.582 55.2797L119.085 54.1625L124.874 51.5852Z" fill="#6CB876"/>
<path d="M176.597 37.3271V41.0273H180.631V42.2184H176.597V46.0299H181.107V47.221H175.152V36.136H181.107V37.3271H176.597Z" fill="#FCFCFC"/>
<path d="M199.115 37.787L197.966 48.7165L196.529 48.5655L197.385 40.4157L192.896 48.1837L191.885 48.0774L189.095 39.5284L188.237 47.6939L186.8 47.5429L187.948 36.6134L189.496 36.7761L192.59 46.2352L197.583 37.626L199.115 37.787Z" fill="#FCFCFC"/>
<path d="M221.941 48.8963C222.304 49.081 222.601 49.35 222.831 49.7031C223.072 50.0595 223.222 50.4535 223.282 50.8849C223.353 51.3197 223.319 51.7485 223.182 52.1714C223.008 52.705 222.715 53.1442 222.303 53.4888C221.893 53.8234 221.386 54.0315 220.781 54.1131C220.189 54.1879 219.54 54.1108 218.835 53.8818L214.908 52.6058L218.329 42.0785L222.105 43.3054C222.82 43.5377 223.39 43.8564 223.815 44.2617C224.243 44.6568 224.517 45.0967 224.638 45.5813C224.759 46.0658 224.738 46.5598 224.574 47.0633C224.371 47.6876 224.032 48.1505 223.555 48.4521C223.092 48.7469 222.554 48.895 221.941 48.8963ZM218.226 47.0713L220.537 47.8222C221.182 48.0315 221.729 48.0425 222.18 47.8549C222.63 47.6673 222.942 47.3067 223.116 46.773C223.289 46.2394 223.249 45.7642 222.994 45.3477C222.74 44.9311 222.281 44.6148 221.616 44.3989L219.335 43.6579L218.226 47.0713ZM219.083 52.7097C219.767 52.9322 220.353 52.9445 220.841 52.7466C221.328 52.5487 221.665 52.1628 221.851 51.5889C222.041 51.0048 221.989 50.4813 221.694 50.0181C221.402 49.5449 220.919 49.1987 220.245 48.9795L217.858 48.2041L216.651 51.9196L219.083 52.7097Z" fill="#FCFCFC"/>
<path d="M233.173 59.5371L232.606 54.33L231.01 53.6195L229.169 57.7543L227.849 57.1665L232.351 47.0544L235.615 48.5077C236.379 48.8479 236.965 49.2649 237.371 49.7586C237.786 50.2566 238.026 50.7861 238.089 51.3473C238.152 51.9085 238.056 52.4744 237.802 53.0451C237.492 53.7415 237.016 54.2652 236.372 54.6163C235.739 54.9717 234.982 55.0577 234.102 54.8744L234.755 60.2412L233.173 59.5371ZM231.482 52.5604L233.426 53.426C234.141 53.7446 234.756 53.8095 235.269 53.6207C235.786 53.4221 236.176 53.0279 236.438 52.4379C236.705 51.8382 236.733 51.2943 236.522 50.8061C236.32 50.3222 235.856 49.9188 235.131 49.5959L233.187 48.7303L231.482 52.5604Z" fill="#FCFCFC"/>
<path d="M247.063 55.5733L245.213 58.7778L248.706 60.7947L248.111 61.8262L244.617 59.8093L242.712 63.1102L246.618 65.3653L246.022 66.3968L240.864 63.4191L246.407 53.8192L251.565 56.7969L250.969 57.8284L247.063 55.5733Z" fill="#FCFCFC"/>
<path d="M265.948 66.7082L256.062 73.2083L254.713 72.2281L257.841 60.8181L259.087 61.7235L256.29 71.4895L264.714 65.8121L265.948 66.7082Z" fill="#FCFCFC"/>
<path d="M271.008 72.6076L268.532 75.3574L271.529 78.0566L270.732 78.9417L267.735 76.2426L265.184 79.075L268.536 82.093L267.739 82.9781L263.313 78.9932L270.731 70.7554L275.156 74.7404L274.359 75.6255L271.008 72.6076Z" fill="#FCFCFC"/>
<path d="M304.415 124.874L303.298 125.371L300.72 119.582L301.837 119.085L304.415 124.874Z" fill="#6CB876"/>
<path d="M318.673 176.597H314.973V180.631H313.782V176.597H309.97V181.107H308.779V175.152H319.864V181.107H318.673V176.597Z" fill="#FCFCFC"/>
<path d="M318.213 199.115L307.284 197.966L307.435 196.529L315.584 197.385L307.816 192.896L307.923 191.885L316.472 189.095L308.306 188.237L308.457 186.799L319.387 187.948L319.224 189.496L309.765 192.59L318.374 197.583L318.213 199.115Z" fill="#FCFCFC"/>
<path d="M307.104 221.941C306.919 222.304 306.65 222.601 306.297 222.831C305.94 223.072 305.546 223.222 305.115 223.282C304.68 223.353 304.251 223.319 303.829 223.182C303.295 223.008 302.856 222.715 302.511 222.303C302.176 221.893 301.968 221.386 301.887 220.781C301.812 220.189 301.889 219.54 302.118 218.835L303.394 214.908L313.921 218.329L312.695 222.105C312.462 222.82 312.143 223.39 311.738 223.815C311.343 224.243 310.903 224.517 310.419 224.638C309.934 224.759 309.44 224.738 308.937 224.574C308.312 224.371 307.849 224.032 307.548 223.555C307.253 223.092 307.105 222.554 307.104 221.941ZM308.929 218.226L308.178 220.537C307.968 221.182 307.957 221.729 308.145 222.18C308.333 222.63 308.693 222.942 309.227 223.116C309.761 223.289 310.236 223.249 310.652 222.994C311.069 222.74 311.385 222.281 311.601 221.616L312.342 219.335L308.929 218.226ZM303.29 219.083C303.068 219.767 303.055 220.353 303.253 220.841C303.451 221.328 303.837 221.665 304.411 221.851C304.995 222.041 305.519 221.989 305.982 221.694C306.455 221.402 306.801 220.919 307.02 220.245L307.796 217.858L304.08 216.651L303.29 219.083Z" fill="#FCFCFC"/>
<path d="M296.463 233.173L301.67 232.606L302.38 231.01L298.246 229.169L298.833 227.849L308.946 232.351L307.492 235.615C307.152 236.38 306.735 236.965 306.241 237.371C305.743 237.786 305.214 238.026 304.653 238.089C304.091 238.152 303.526 238.056 302.955 237.802C302.258 237.492 301.735 237.016 301.384 236.373C301.028 235.739 300.942 234.982 301.126 234.102L295.759 234.755L296.463 233.173ZM303.44 231.482L302.574 233.426C302.255 234.141 302.19 234.756 302.379 235.269C302.578 235.786 302.972 236.176 303.562 236.438C304.162 236.705 304.706 236.733 305.194 236.522C305.678 236.32 306.081 235.856 306.404 235.131L307.27 233.187L303.44 231.482Z" fill="#FCFCFC"/>
<path d="M300.427 247.063L297.222 245.213L295.205 248.706L294.174 248.111L296.191 244.617L292.89 242.712L290.635 246.618L289.603 246.022L292.581 240.864L302.181 246.407L299.203 251.565L298.171 250.969L300.427 247.063Z" fill="#FCFCFC"/>
<path d="M289.292 265.948L282.792 256.063L283.772 254.713L295.182 257.841L294.276 259.087L284.51 256.291L290.188 264.714L289.292 265.948Z" fill="#FCFCFC"/>
<path d="M283.392 271.008L280.643 268.532L277.944 271.529L277.058 270.732L279.757 267.735L276.925 265.184L273.907 268.536L273.022 267.739L277.007 263.313L285.245 270.731L281.26 275.156L280.375 274.36L283.392 271.008Z" fill="#FCFCFC"/>
<path d="M231.126 304.415L230.629 303.298L236.418 300.72L236.915 301.837L231.126 304.415Z" fill="#6CB876"/>
</svg>
