<svg width="21" height="21" viewBox="0 0 21 21" fill="none" xmlns="http://www.w3.org/2000/svg">
<g clip-path="url(#clip0_106_6347)">
<path d="M14.9317 0.764118C15.9467 0.810785 16.6483 0.959951 17.2967 1.21162C17.9114 1.44146 18.4679 1.80394 18.9267 2.27328C19.396 2.73202 19.7585 3.28855 19.9883 3.90328C20.24 4.55245 20.3892 5.25328 20.4358 6.26828C20.4933 7.52662 20.5 7.96995 20.5 10.7C20.5 13.43 20.4933 13.8733 20.4358 15.1316C20.3892 16.1466 20.24 16.8483 19.9883 17.4974C19.7584 18.1119 19.3959 18.6681 18.9267 19.1266C18.4679 19.596 17.9114 19.9585 17.2967 20.1883C16.6475 20.44 15.9467 20.5891 14.9317 20.6358C13.6733 20.6933 13.2308 20.7 10.5 20.7C7.76917 20.7 7.32583 20.6933 6.06833 20.6358C5.05333 20.5891 4.35167 20.44 3.7025 20.1883C3.08805 19.9584 2.53181 19.5959 2.07333 19.1266C1.60399 18.6679 1.24151 18.1113 1.01167 17.4966C0.76 16.8475 0.610833 16.1466 0.564167 15.1316C0.506667 13.875 0.5 13.4316 0.5 10.7C0.5 7.96912 0.506667 7.52495 0.564167 6.26828C0.610833 5.25328 0.76 4.55162 1.01167 3.90328C1.24151 3.28855 1.60399 2.73202 2.07333 2.27328C2.53183 1.80405 3.08807 1.44157 3.7025 1.21162C4.3525 0.959951 5.05333 0.810785 6.06833 0.764118C7.325 0.706618 7.76833 0.699951 10.5 0.699951C13.2308 0.699951 13.675 0.706618 14.9317 0.764118ZM10.5 2.92245C7.8 2.92245 7.38667 2.92828 6.16917 2.98412C5.39667 3.01912 4.93333 3.11745 4.5075 3.28328C4.18065 3.4018 3.88531 3.59366 3.64417 3.84412C3.39318 4.08482 3.20123 4.38029 3.08333 4.70745C2.91833 5.13245 2.81917 5.59662 2.78417 6.36912C2.72833 7.58662 2.7225 7.99995 2.7225 10.7C2.7225 13.4 2.72833 13.8133 2.78417 15.0308C2.81917 15.8033 2.9175 16.2666 3.08333 16.6916C3.225 17.055 3.375 17.2858 3.64417 17.5558C3.91417 17.8258 4.145 17.9758 4.5075 18.1166C4.9325 18.2816 5.39667 18.3808 6.16917 18.4158C7.3875 18.4716 7.80083 18.4775 10.5 18.4775C13.2 18.4775 13.6125 18.4716 14.8308 18.4158C15.6033 18.3808 16.0667 18.2824 16.4925 18.1166C16.8194 17.9981 17.1147 17.8062 17.3558 17.5558C17.6258 17.2858 17.7758 17.055 17.9167 16.6925C18.0817 16.2675 18.1808 15.8033 18.2158 15.0308C18.2717 13.8125 18.2775 13.3991 18.2775 10.7C18.2775 8.00078 18.2717 7.58745 18.2158 6.36912C18.1808 5.59662 18.0825 5.13328 17.9167 4.70828C17.7988 4.38085 17.6069 4.0851 17.3558 3.84412C17.1149 3.59304 16.8191 3.4011 16.4917 3.28328C16.0667 3.11828 15.6025 3.01912 14.83 2.98412C13.6125 2.92828 13.1992 2.92245 10.4992 2.92245H10.5ZM10.5 15.885C9.12485 15.885 7.80603 15.3387 6.83365 14.3663C5.86127 13.3939 5.315 12.0751 5.315 10.7C5.315 9.3248 5.86127 8.00598 6.83365 7.0336C7.80603 6.06123 9.12485 5.51495 10.5 5.51495C11.8751 5.51495 13.194 6.06123 14.1663 7.0336C15.1387 8.00598 15.685 9.3248 15.685 10.7C15.685 12.0751 15.1387 13.3939 14.1663 14.3663C13.194 15.3387 11.8751 15.885 10.5 15.885ZM10.5 13.6633C11.2859 13.6633 12.0397 13.3511 12.5954 12.7953C13.1511 12.2396 13.4633 11.4859 13.4633 10.7C13.4633 9.91403 13.1511 9.16029 12.5954 8.60456C12.0397 8.04882 11.2859 7.73662 10.5 7.73662C9.71408 7.73662 8.96034 8.04882 8.40461 8.60456C7.84887 9.16029 7.53667 9.91403 7.53667 10.7C7.53667 11.4859 7.84887 12.2396 8.40461 12.7953C8.96034 13.3511 9.71408 13.6633 10.5 13.6633ZM15.685 6.62578C15.3903 6.62578 15.1076 6.50871 14.8992 6.30031C14.6908 6.09191 14.5737 5.80926 14.5737 5.51453C14.5737 5.21981 14.6908 4.93716 14.8992 4.72876C15.1076 4.52036 15.3903 4.40328 15.685 4.40328C15.9797 4.40328 16.2624 4.52036 16.4708 4.72876C16.6792 4.93716 16.7962 5.21981 16.7962 5.51453C16.7962 5.80926 16.6792 6.09191 16.4708 6.30031C16.2624 6.50871 15.9797 6.62578 15.685 6.62578Z" fill="#1C1C1C"/>
</g>
<defs>
<clipPath id="clip0_106_6347">
<rect width="20" height="20" fill="white" transform="translate(0.5 0.699951)"/>
</clipPath>
</defs>
</svg>
