<svg width="20" height="21" viewBox="0 0 20 21" fill="none" xmlns="http://www.w3.org/2000/svg">
<g clip-path="url(#clip0_93_1489)">
<path d="M5.25295 21H1.31384V8.31467H5.25295V21ZM3.28127 6.58428C2.02167 6.58428 1 5.54095 1 4.28132C1 3.67628 1.24035 3.09602 1.66817 2.66818C2.09599 2.24035 2.67624 2 3.28127 2C3.8863 2 4.46655 2.24035 4.89438 2.66818C5.3222 3.09602 5.56255 3.67628 5.56255 4.28132C5.56255 5.54095 4.54045 6.58428 3.28127 6.58428ZM19.9958 21H16.0651V14.8249C16.0651 13.3532 16.0354 11.4659 14.0171 11.4659C11.9691 11.4659 11.6553 13.0648 11.6553 14.7188V21H7.7204V8.31467H11.4983V10.0451H11.5535C12.0794 9.04839 13.364 7.99658 15.2805 7.99658C19.2671 7.99658 20 10.6219 20 14.0318V21H19.9958Z" fill="black"/>
</g>
<defs>
<clipPath id="clip0_93_1489">
<rect width="20" height="20" fill="white" transform="translate(0 0.699951)"/>
</clipPath>
</defs>
</svg>
