<svg width="140" height="29" viewBox="0 0 140 29" fill="none" xmlns="http://www.w3.org/2000/svg">
<g clip-path="url(#clip0_93_1491)">
<path d="M0.940886 25.648L0 28.0555C2.66904 27.5247 5.35729 27.1266 8.06474 26.8802L9.52407 21.0985C8.23755 21.4208 6.95104 21.7999 5.70292 22.2549C3.84035 22.9752 2.09299 23.9799 0.940886 25.648Z" fill="black"/>
<path d="M26.0952 16.511C24.3862 17.3451 21.6596 18.1602 20.373 18.4445L22.5044 26.8801C25.2119 27.1266 27.9001 27.5247 30.5692 28.0554L26.0952 16.511Z" fill="black"/>
<path d="M7.16216 17.0607C9.15914 16.4352 11.0025 16.056 12.9419 15.6011C14.8813 15.1461 16.8398 14.6533 18.76 14.1794C20.661 13.7054 22.7156 13.2126 24.4437 12.2648C25.9799 11.4307 27.1128 9.81938 26.4599 8.03748C25.7111 9.93312 23.7909 10.8241 21.9475 11.4496C20.181 12.0373 18.3184 12.5112 16.4942 12.9282C14.6124 13.3642 12.7307 13.7623 10.8681 14.1983C9.00553 14.6343 7.10455 15.0703 5.35719 15.8286C3.85945 16.4731 2.2081 17.2313 2.49613 19.6198C3.64824 18.2739 5.54921 17.5725 7.16216 17.0607Z" fill="black"/>
<path d="M16.4944 11.6393C18.4913 11.1843 20.4499 10.5967 22.3701 9.89529C23.1574 9.59199 23.983 9.19391 24.5783 8.60626C25.1736 7.99965 25.5192 6.99496 25.1544 6.19879C24.6743 7.16557 23.8294 7.79113 22.8693 8.26504L19.9123 0.62561H15.8607L18.1841 9.81947C16.1487 10.3692 14.0941 10.7862 12.0396 11.2412L14.7278 0.62561H10.6762L5.85659 13.0041C4.97331 13.4212 4.18604 14.0657 4.18604 15.3927C4.66608 14.9567 5.68377 14.2932 8.1224 13.5918C12.1356 12.4355 12.9228 12.4734 16.4944 11.6393Z" fill="black"/>
<path d="M26.8632 14.331C27.7465 13.4211 28.2265 11.9046 27.6889 10.6914C26.5176 13.3074 23.3877 14.1794 20.8339 14.8997C18.1264 15.658 15.3998 16.3215 12.6731 16.966C10.1193 17.5726 7.46945 18.0654 5.06923 19.1649C2.99544 20.1127 1.07527 21.4586 1.03687 24.4727C2.18897 22.8235 3.93633 21.7999 5.8181 21.0985C7.89189 20.3213 10.0617 19.8474 12.1931 19.2976C13.4412 18.9754 14.6701 18.6531 15.899 18.3308C18.0496 17.7621 20.2194 17.2124 22.3508 16.511C23.8678 15.9802 25.7303 15.5063 26.8632 14.331Z" fill="black"/>
<path d="M45.4122 3.26051V4.98554H51.0767V7.29823H45.4122V9.32656H51.6336V11.8099H42.6279V0.777222H51.6336V3.26051H45.4122Z" fill="black"/>
<path d="M62.5594 0.62561V11.7909H59.7752V10.5209C58.9303 11.4308 57.7206 11.9615 56.4725 11.9236C55.0132 11.9236 53.3042 10.4829 53.3042 7.99965C53.3042 5.51636 55.0708 4.20837 57.0293 4.20837C57.9702 4.22733 58.9111 4.41689 59.7944 4.77706V0.909957C60.7161 0.909957 61.657 0.815174 62.5594 0.62561ZM59.7752 8.75791V6.44523C59.3527 6.29358 58.9111 6.21775 58.4695 6.19879C56.8949 6.19879 56.1077 6.74853 56.1077 7.99965C56.0501 8.92852 56.7797 9.72469 57.7206 9.7626C57.7782 9.7626 57.8166 9.7626 57.8742 9.7626C58.7191 9.7626 59.3143 9.28869 59.7752 8.75791Z" fill="black"/>
<path d="M72.1987 4.35999V11.8099H69.4144V10.5777C68.7232 11.317 67.8015 11.9425 66.5534 11.9425C65.0172 11.9425 64.1147 10.9568 64.1147 8.20814V4.35999H66.899V7.9617C66.899 8.96639 67.1294 9.66778 67.8975 9.66778C68.3967 9.66778 68.8576 9.38343 69.4144 8.81474V4.35999H72.1987Z" fill="black"/>
<path d="M76.3846 8.11339C76.3846 9.06121 76.903 9.97112 78.3816 9.97112C79.2841 9.97112 80.4746 9.61095 81.5307 9.23182V11.336C80.8394 11.7151 79.4569 11.9236 78.4008 11.9236C75.3477 11.9236 73.6003 10.5588 73.6003 8.09444C73.6003 5.57324 75.3477 4.20837 78.1896 4.20837C79.3417 4.22733 80.4746 4.41689 81.5499 4.79602V6.9381C80.4938 6.55897 79.2841 6.1988 78.4008 6.1988C76.903 6.21775 76.3846 7.12766 76.3846 8.11339Z" fill="black"/>
<path d="M91.9189 8.2271V11.8099H89.5379L89.1538 10.2554C88.4626 11.5445 86.9648 11.9426 85.4287 11.9426C84.0846 11.9426 82.9517 11.1843 82.9517 9.78152C82.9517 8.30292 84.1038 7.31719 86.6 7.31719C87.7521 7.31719 89.1346 7.54467 89.1346 6.84328C89.1346 6.52102 88.6354 6.25563 86.8496 6.25563C85.3519 6.25563 83.2397 6.78641 83.1245 6.82432V4.79599C84.4878 4.43582 85.8895 4.24625 87.3105 4.22729C90.5748 4.22729 91.9189 5.64903 91.9189 8.2271ZM89.1346 8.32188C88.7506 8.60623 88.0785 8.70101 86.5424 8.70101C85.7551 8.70101 85.5055 9.02327 85.5055 9.38344C85.5055 9.78152 85.7935 10.028 86.5616 10.028C87.7329 10.028 89.1346 9.30761 89.1346 8.32188Z" fill="black"/>
<path d="M95.9512 8.11331C95.9512 9.06113 96.4696 9.97103 97.9481 9.97103C98.8506 9.97103 100.041 9.61086 101.097 9.23174V11.3359C100.56 11.6202 99.5995 11.8288 98.7162 11.8856L96.796 14.5395L93.8198 13.5917L96.508 11.7908C94.3766 11.4117 93.1477 10.1227 93.1477 8.07539C93.1477 5.55419 94.8951 4.18933 97.7369 4.18933C98.889 4.20829 100.022 4.39785 101.097 4.77698V6.93801C100.041 6.55888 98.8314 6.19871 97.9481 6.19871C96.4696 6.21767 95.9512 7.12757 95.9512 8.11331Z" fill="black"/>
<path d="M111.409 8.22708V11.8098H109.028L108.644 10.2554C107.914 11.5634 106.416 11.9425 104.88 11.9425C103.536 11.9425 102.403 11.1843 102.403 9.78151C102.403 8.30291 103.555 7.31717 106.051 7.31717C107.204 7.31717 108.586 7.54465 108.586 6.84326C108.586 6.521 108.087 6.25561 106.301 6.25561C104.803 6.25561 102.691 6.78639 102.576 6.82431V4.79597C103.939 4.4358 105.341 4.24624 106.762 4.22728C110.065 4.22728 111.409 5.64901 111.409 8.22708ZM105.091 2.16103C104.362 2.17999 103.67 2.44538 103.133 2.91929V0.777213C103.613 0.454954 104.4 0 105.322 0C106.531 0 107.434 0.777213 108.567 0.777213C109.258 0.777213 109.873 0.492867 110.487 0.0379128V2.02834C110.295 2.35059 109.412 2.93824 108.356 2.93824C107.146 2.91929 106.243 2.16103 105.091 2.16103ZM108.605 8.32186C108.221 8.60621 107.549 8.70099 106.013 8.70099C105.226 8.70099 104.976 9.02325 104.976 9.38342C104.976 9.78151 105.245 10.0279 106.032 10.0279C107.204 10.0279 108.605 9.3076 108.605 8.32186Z" fill="black"/>
<path d="M122.661 8.07545C122.661 10.426 120.913 11.9426 117.649 11.9426C114.385 11.9426 112.657 10.426 112.657 8.07545C112.657 5.72485 114.404 4.22729 117.649 4.22729C120.913 4.22729 122.661 5.74381 122.661 8.07545ZM119.877 8.07545C119.877 6.82432 119.166 6.21772 117.649 6.21772C116.132 6.21772 115.422 6.80537 115.422 8.07545C115.422 9.34553 116.132 9.95213 117.649 9.95213C119.166 9.95213 119.877 9.32657 119.877 8.07545Z" fill="black"/>
<path d="M52.3247 27.9417L50.9614 24.4537C49.0412 24.4916 46.2378 25.3826 44.8744 27.9417H41.783L46.4682 16.9091H50.7502L55.4354 27.9417H52.3247ZM50.1357 22.3495L48.5996 18.4256L46.3722 24.1125C47.4667 23.2405 48.7532 22.6339 50.1357 22.3495Z" fill="black"/>
<path d="M64.9596 16.7574V27.9417H62.1753V26.6716C61.3305 27.5816 60.1207 28.0934 58.8726 28.0744C57.4133 28.0744 55.7043 26.6337 55.7043 24.1504C55.7043 21.6672 57.4517 20.3592 59.4103 20.3592C60.3512 20.3781 61.2921 20.5677 62.1753 20.9279V17.0228C63.097 17.0228 64.0379 16.9281 64.9596 16.7574ZM62.1753 24.8708V22.5581C61.7529 22.4065 61.3113 22.3306 60.8696 22.3117C59.3143 22.3117 58.5078 22.8804 58.5078 24.1125C58.4502 25.0414 59.1607 25.8376 60.1015 25.8944C60.1592 25.8944 60.2168 25.8944 60.2552 25.8944C61.1192 25.8944 61.6953 25.4016 62.1753 24.8708Z" fill="black"/>
<path d="M75.9045 20.4729L72.9666 27.9417H68.9918L66.054 20.4919H69.1262L71.008 26.3304L72.8898 20.4919L75.9045 20.4729Z" fill="black"/>
<path d="M81.1274 26.2357C82.3947 26.2357 83.6045 25.8755 84.6606 25.4964V27.4678C83.9693 27.8469 82.5868 28.0555 81.1082 28.0555C77.7287 28.0555 75.9622 26.6906 75.9622 24.2831C75.9622 21.8757 77.7095 20.3402 80.3978 20.3402C83.4508 20.3402 84.9486 22.0842 84.9486 24.8329H78.804C79.0728 25.6101 79.6873 26.2357 81.1274 26.2357ZM78.7848 23.6576H82.2603C82.1259 22.7477 81.5691 22.3496 80.417 22.3496C79.4953 22.3685 78.9192 22.8045 78.7848 23.6576Z" fill="black"/>
<path d="M94.8759 24.0747V27.9228H92.1108V24.3211C92.1108 23.1648 91.8804 22.634 90.9203 22.634C90.4403 22.634 89.7682 22.8614 89.0386 23.3164V27.9228H86.2351V20.6056C87.176 20.5867 88.0977 20.4919 89.0194 20.3213V21.6482C89.8066 21.0416 91.1124 20.3213 92.4373 20.3213C93.9542 20.3402 94.8759 21.1743 94.8759 24.0747Z" fill="black"/>
<path d="M100.444 22.4823V24.9466C100.444 25.6859 100.944 25.8565 101.481 25.8565C102.038 25.8565 102.537 25.8186 103.67 25.3257V27.4868C102.48 27.9038 101.232 28.1123 99.9643 28.0744C98.985 28.0744 97.6217 27.5247 97.6217 25.8944L97.6409 22.5012H95.8359V20.4729C97.6601 20.4729 97.8905 20.4539 97.9097 18.9943V17.9138C98.7546 17.8948 99.6187 17.8 100.444 17.6105V20.4729H103.67V22.4823H100.444Z" fill="black"/>
<path d="M105.245 19.2028V16.8901H108.029V19.2028H105.245ZM105.245 27.9228V20.4729H108.029V27.9228H105.245Z" fill="black"/>
<path d="M114.865 23.506C116.919 23.923 117.707 24.7382 117.707 25.9135C117.707 27.5058 116.343 28.0745 113.77 28.0745C112.369 28.0935 110.986 27.9039 109.642 27.5248V25.4016C111.217 26.0272 112.215 26.1789 113.29 26.1789C114.5 26.1789 114.903 26.0462 114.903 25.7429C114.903 25.2689 113.886 25.2689 112.484 25.0036C110.698 24.6434 109.45 24.0368 109.45 22.653C109.45 21.1744 110.871 20.3024 113.194 20.3024C114.846 20.3024 116.708 20.7384 117.476 20.909V22.9373C116.305 22.5771 115.095 22.4065 113.866 22.3876C112.829 22.3876 112.196 22.5392 112.196 22.7667C112.215 23.089 113.905 23.2975 114.865 23.506Z" fill="black"/>
<path d="M123.141 22.4823V24.9466C123.141 25.6859 123.64 25.8565 124.178 25.8565C124.735 25.8565 125.234 25.8186 126.367 25.3257V27.4868C125.176 27.9038 123.928 28.1123 122.661 28.0744C121.682 28.0744 120.318 27.5247 120.318 25.8944L120.337 22.5012H118.532V20.4729C120.357 20.4729 120.587 20.4539 120.606 18.9943V17.9138C121.451 17.9138 122.315 17.8 123.141 17.6105V20.4729H126.367V22.4823H123.141Z" fill="black"/>
<path d="M136.889 24.359V27.9418H134.508L134.124 26.3873C133.433 27.6764 131.935 28.0745 130.399 28.0745C129.055 28.0745 127.922 27.3162 127.922 25.9134C127.922 24.4348 129.074 23.4491 131.57 23.4491C132.723 23.4491 134.105 23.6766 134.105 22.9752C134.105 22.6529 133.606 22.3875 131.82 22.3875C130.322 22.3875 128.21 22.9183 128.114 22.9562V20.9089C129.477 20.5488 130.879 20.3592 132.3 20.3213C135.545 20.3402 136.889 21.7809 136.889 24.359ZM134.086 24.4348C133.702 24.7192 133.03 24.814 131.494 24.814C130.706 24.814 130.457 25.1362 130.457 25.4964C130.457 25.8945 130.745 26.1409 131.513 26.1409C132.684 26.1409 134.086 25.4395 134.086 24.4348Z" fill="black"/>
</g>
<defs>
<clipPath id="clip0_93_1491">
<rect width="140" height="28.7" fill="white"/>
</clipPath>
</defs>
</svg>
