<svg width="163" height="116" viewBox="0 0 163 116" fill="none" xmlns="http://www.w3.org/2000/svg">
<g clip-path="url(#clip0_37_65)">
<path d="M12.368 58.2999C11.3324 58.2999 10.2903 58.2673 9.24161 58.2021C8.18636 58.1369 7.15733 58.0456 6.13485 57.9283C5.11893 57.8109 4.12922 57.674 3.17884 57.5045C2.22846 57.3351 1.35018 57.159 0.550551 56.9569V50.1315C1.61891 50.2293 2.80525 50.314 4.10301 50.3792C5.40077 50.4444 6.7313 50.4966 8.08149 50.5292C9.43169 50.5618 10.7098 50.5813 11.9092 50.5813C13.1087 50.5813 14.0722 50.49 14.8849 50.3075C15.7042 50.125 16.3269 49.8121 16.766 49.3623C17.1986 48.9124 17.4149 48.2931 17.4149 47.4913V46.546C17.4149 45.6464 17.1199 44.9684 16.5366 44.5056C15.9533 44.0427 15.2126 43.808 14.3081 43.808H11.4045C7.66857 43.808 4.83054 42.9931 2.89045 41.3699C0.95692 39.7467 -0.0131226 37.0021 -0.0131226 33.1559V31.4088C-0.0131226 27.7907 1.05524 25.1114 3.19195 23.3643C5.32867 21.6172 8.3961 20.7501 12.4074 20.7501C13.8755 20.7501 15.2978 20.8284 16.6611 20.9718C18.031 21.1217 19.3287 21.2977 20.5675 21.4933C21.7997 21.6954 22.8878 21.9105 23.825 22.1387V28.912C22.2913 28.8142 20.5675 28.7164 18.6668 28.6121C16.766 28.5143 15.0291 28.4622 13.4626 28.4622C12.427 28.4622 11.5094 28.5534 10.7098 28.736C9.91016 28.9185 9.28749 29.251 8.85491 29.7334C8.42232 30.2158 8.20603 30.9199 8.20603 31.8521V32.5496C8.20603 33.6122 8.51408 34.3945 9.13019 34.89C9.7463 35.3854 10.6901 35.6396 11.9617 35.6396H15.4158C17.7164 35.6396 19.6237 36.0634 21.1246 36.9109C22.6256 37.7583 23.7529 38.9187 24.5067 40.3986C25.2604 41.8784 25.634 43.5473 25.634 45.4052V47.2501C25.634 50.3075 25.09 52.6283 24.0086 54.2189C22.9271 55.8161 21.3868 56.8918 19.4008 57.4589C17.4149 58.0261 15.0684 58.3064 12.368 58.3064V58.2999Z" fill="#FCFCFC"/>
<path d="M40.106 58.2999C39.3064 58.2999 38.3626 58.2151 37.2745 58.0522C36.1865 57.8892 35.1444 57.5306 34.1481 56.983C33.1453 56.4354 32.3129 55.588 31.6444 54.4406C30.9758 53.2933 30.6415 51.7417 30.6415 49.786V29.9159C30.6415 28.1884 30.9168 26.7477 31.4674 25.5808C32.018 24.4204 32.7193 23.5142 33.5713 22.8688C34.4234 22.2234 35.3803 21.7541 36.4487 21.4738C37.517 21.1934 38.5526 21.05 39.5554 21.05C42.2231 21.05 44.5433 21.0891 46.5162 21.1739C48.4825 21.2586 50.2194 21.3499 51.7203 21.4477C53.2213 21.5455 54.578 21.6433 55.7775 21.7476V29.0163H42.1575C41.2596 29.0163 40.5583 29.2249 40.0536 29.6421C39.5555 30.0593 39.2998 30.7113 39.2998 31.6109V35.6918L53.3196 36.1873V42.9606L39.2998 43.4104V47.2957C39.2998 48.0259 39.4178 48.5995 39.6472 49.0168C39.8766 49.434 40.1978 49.7404 40.5976 49.9359C40.9974 50.1315 41.43 50.2358 41.9019 50.2358H55.7709V57.4589C54.3027 57.6284 52.6707 57.7718 50.8682 57.9087C49.0658 58.0456 47.2371 58.1304 45.3823 58.1825C43.5274 58.2347 41.7708 58.2738 40.0995 58.3064L40.106 58.2999Z" fill="#FCFCFC"/>
<path d="M112.479 58.2999C111.679 58.2999 110.736 58.2151 109.648 58.0522C108.56 57.8892 107.517 57.5306 106.521 56.983C105.518 56.4354 104.686 55.588 104.017 54.4406C103.349 53.2933 103.015 51.7417 103.015 49.786V29.9159C103.015 28.1884 103.29 26.7477 103.84 25.5808C104.391 24.4204 105.092 23.5142 105.944 22.8688C106.796 22.2234 107.753 21.7541 108.822 21.4738C109.89 21.1934 110.926 21.05 111.929 21.05C114.596 21.05 116.916 21.0891 118.889 21.1739C120.856 21.2586 122.592 21.3499 124.093 21.4477C125.594 21.5455 126.951 21.6433 128.151 21.7476V29.0163H114.531C113.633 29.0163 112.931 29.2249 112.427 29.6421C111.929 30.0593 111.673 30.7113 111.673 31.6109V35.6918L125.693 36.1873V42.9606L111.673 43.4104V47.2957C111.673 48.0259 111.791 48.5995 112.02 49.0168C112.25 49.434 112.571 49.7404 112.971 49.9359C113.37 50.1315 113.803 50.2358 114.275 50.2358H128.144V57.4589C126.676 57.6284 125.044 57.7718 123.241 57.9087C121.439 58.0456 119.61 58.1304 117.755 58.1825C115.9 58.2347 114.144 58.2738 112.473 58.3064L112.479 58.2999Z" fill="#FCFCFC"/>
<path d="M133.256 58V21.05H140.119L154.335 43.4104V21.05H163V58H156.092L141.875 35.6918V58H133.263H133.256Z" fill="#FCFCFC"/>
<path d="M106.934 7.22311L83.7579 58H76.83L50.3636 0H60.2213L80.2973 43.984L93.7533 14.4984L93.7599 14.4723H83.9284V21.728H76.6661V7.22311H106.934Z" fill="#6CB876"/>
<path d="M52.7166 102.023V79.2651H62.5874C63.3477 79.2651 64.1277 79.3499 64.9339 79.5259C65.7401 79.7019 66.4742 80.0539 67.1361 80.582C67.8047 81.1166 68.3421 81.9184 68.7551 82.9875C69.168 84.0632 69.3712 85.4843 69.3712 87.264C69.3712 89.0437 69.168 90.4779 68.7551 91.5731C68.3421 92.6683 67.8112 93.4897 67.1689 94.0438C66.5266 94.5979 65.8187 94.9695 65.0584 95.1651C64.2981 95.3607 63.5575 95.4585 62.8365 95.4585C62.4694 95.4585 62.0565 95.4389 61.6043 95.3998C61.152 95.3607 60.6998 95.3085 60.2475 95.2433C59.7953 95.1847 59.3758 95.1129 58.9956 95.0412C58.6155 94.9695 58.3009 94.9239 58.0518 94.9043V102.017H52.7166V102.023ZM58.0518 90.7061H61.9975C62.4694 90.7061 62.8562 90.5822 63.1511 90.3345C63.446 90.0868 63.6689 89.7217 63.8131 89.2328C63.9573 88.7438 64.0294 88.0985 64.0294 87.3031C64.0294 86.5469 63.9507 85.9276 63.8 85.4452C63.6492 84.9628 63.4264 84.6042 63.138 84.3696C62.8496 84.1349 62.4826 84.0175 62.0303 84.0175H58.0518V90.7061Z" fill="#FCFCFC"/>
<path d="M72.0781 102.023V79.2651H81.6999C82.6634 79.2651 83.5548 79.3825 84.3675 79.6172C85.1803 79.8519 85.8881 80.2495 86.4977 80.8102C87.1072 81.3708 87.5792 82.1335 87.9134 83.0918C88.2543 84.0566 88.4247 85.2692 88.4247 86.7425C88.4247 87.7464 88.3329 88.6004 88.1494 89.3045C87.9659 90.0085 87.7168 90.6018 87.4087 91.0842C87.1007 91.5666 86.7468 91.9577 86.3469 92.2641C85.9471 92.5705 85.5276 92.8378 85.0951 93.0595L89.1981 102.017H83.7711L80.3497 93.92C80.1465 93.92 79.9106 93.92 79.6549 93.9069C79.3993 93.8939 79.1437 93.8939 78.9012 93.8939H77.4199V102.023H72.0847H72.0781ZM77.4134 89.6956H80.743C81.11 89.6956 81.4443 89.65 81.7327 89.5587C82.0211 89.4675 82.2701 89.3045 82.4733 89.0698C82.6765 88.8351 82.8338 88.5352 82.9387 88.1636C83.0435 87.7986 83.096 87.3357 83.096 86.7816C83.096 86.2275 83.0435 85.7777 82.9387 85.4191C82.8338 85.0606 82.6831 84.7868 82.4733 84.5912C82.2701 84.3956 82.0211 84.2522 81.7327 84.161C81.4443 84.0697 81.1166 84.024 80.743 84.024H77.4134V89.6956Z" fill="#FCFCFC"/>
<path d="M100.662 102.206C99.082 102.206 97.6859 102.049 96.4865 101.743C95.287 101.436 94.2777 100.876 93.4649 100.054C92.6522 99.2395 92.0492 98.0726 91.6428 96.5602C91.243 95.0478 91.0398 93.0725 91.0398 90.6409C91.0398 88.2093 91.243 86.2601 91.6559 84.7346C92.0689 83.2092 92.6719 82.0423 93.478 81.2209C94.2777 80.406 95.2805 79.8388 96.4865 79.5194C97.6925 79.2 99.082 79.0435 100.662 79.0435C102.241 79.0435 103.67 79.2 104.869 79.5194C106.069 79.8388 107.072 80.406 107.878 81.2209C108.678 82.0423 109.281 83.2092 109.68 84.7346C110.08 86.2601 110.283 88.2288 110.283 90.6409C110.283 93.0529 110.08 95.0478 109.68 96.5602C109.281 98.0726 108.671 99.2395 107.858 100.054C107.046 100.876 106.043 101.436 104.85 101.743C103.657 102.049 102.261 102.206 100.655 102.206H100.662ZM100.662 97.4533C101.507 97.4533 102.202 97.3555 102.759 97.1599C103.316 96.9644 103.749 96.6254 104.07 96.1495C104.391 95.6736 104.614 94.9826 104.752 94.096C104.883 93.2094 104.955 92.0555 104.955 90.6474C104.955 89.2393 104.889 88.0202 104.752 87.1206C104.62 86.221 104.391 85.53 104.07 85.0476C103.749 84.5651 103.316 84.2392 102.759 84.0632C102.202 83.8872 101.507 83.8024 100.662 83.8024C99.8161 83.8024 99.1541 83.8872 98.597 84.0632C98.0399 84.2392 97.6073 84.5651 97.2861 85.0476C96.965 85.53 96.7356 86.221 96.5914 87.1206C96.4472 88.0202 96.3751 89.1937 96.3751 90.6474C96.3751 92.1012 96.4406 93.2094 96.5783 94.096C96.7093 94.9891 96.9387 95.6736 97.2534 96.1495C97.568 96.6254 98.0071 96.9709 98.5642 97.1599C99.1213 97.3555 99.8161 97.4533 100.662 97.4533Z" fill="#FCFCFC"/>
<path d="M110.283 113.145H52.7166V116H110.283V113.145Z" fill="#6CB876"/>
</g>
<defs>
<clipPath id="clip0_37_65">
<rect width="163" height="116" fill="white"/>
</clipPath>
</defs>
</svg>
