<svg width="180" height="50" viewBox="0 0 180 50" fill="none" xmlns="http://www.w3.org/2000/svg">
<path d="M13.709 45.637C12.98 45.637 12.246 45.613 11.506 45.566C10.765 45.519 10.036 45.454 9.31997 45.372C8.60297 45.291 7.90897 45.19 7.23997 45.073C6.57097 44.955 5.95396 44.826 5.38896 44.686V39.855C6.14096 39.926 6.97597 39.985 7.89197 40.032C8.80797 40.079 9.74297 40.114 10.695 40.137C11.647 40.161 12.546 40.172 13.392 40.172C14.238 40.172 14.914 40.108 15.489 39.978C16.065 39.849 16.506 39.626 16.812 39.309C17.117 38.991 17.27 38.551 17.27 37.986V37.317C17.27 36.682 17.063 36.201 16.653 35.872C16.241 35.543 15.719 35.379 15.084 35.379H13.039C10.406 35.379 8.40797 34.803 7.04597 33.651C5.68297 32.5 5.00098 30.561 5.00098 27.835V26.6C5.00098 24.039 5.75296 22.141 7.25696 20.907C8.76096 19.673 10.924 19.056 13.744 19.056C14.779 19.056 15.777 19.11 16.741 19.215C17.704 19.321 18.621 19.445 19.49 19.585C20.359 19.727 21.123 19.88 21.781 20.044V24.838C20.7 24.767 19.49 24.697 18.15 24.627C16.811 24.556 15.588 24.521 14.484 24.521C13.755 24.521 13.109 24.586 12.545 24.715C11.981 24.845 11.546 25.079 11.241 25.42C10.935 25.761 10.783 26.261 10.783 26.919V27.412C10.783 28.165 11 28.716 11.435 29.069C11.869 29.421 12.533 29.598 13.427 29.598H15.859C17.481 29.598 18.821 29.897 19.879 30.497C20.937 31.097 21.73 31.919 22.258 32.964C22.787 34.01 23.052 35.191 23.052 36.507V37.811C23.052 39.974 22.669 41.618 21.905 42.747C21.142 43.875 20.06 44.64 18.662 45.038C17.264 45.438 15.612 45.638 13.709 45.638V45.637Z" fill="#FCFCFC"/>
<path d="M33.239 45.637C32.675 45.637 32.011 45.578 31.247 45.461C30.483 45.343 29.748 45.091 29.044 44.703C28.339 44.316 27.751 43.716 27.281 42.905C26.81 42.094 26.576 40.996 26.576 39.608V25.541C26.576 24.32 26.769 23.297 27.157 22.474C27.544 21.652 28.039 21.011 28.637 20.553C29.237 20.095 29.912 19.766 30.664 19.566C31.416 19.366 32.144 19.267 32.85 19.267C34.729 19.267 36.363 19.297 37.75 19.355C39.136 19.413 40.359 19.478 41.416 19.549C42.474 19.619 43.426 19.69 44.272 19.76V24.907H34.683C34.049 24.907 33.555 25.054 33.203 25.348C32.851 25.642 32.674 26.105 32.674 26.74V29.631L42.545 29.983V34.778L32.674 35.096V37.845C32.674 38.362 32.756 38.768 32.921 39.061C33.085 39.355 33.309 39.572 33.591 39.713C33.873 39.854 34.178 39.924 34.507 39.924H44.272V45.036C43.238 45.155 42.087 45.26 40.818 45.354C39.549 45.448 38.262 45.513 36.957 45.548C35.653 45.583 34.413 45.612 33.238 45.636L33.239 45.637Z" fill="#FCFCFC"/>
<path d="M84.202 45.637C83.638 45.637 82.974 45.578 82.21 45.461C81.446 45.343 80.711 45.091 80.007 44.703C79.302 44.316 78.714 43.716 78.244 42.905C77.773 42.094 77.539 40.996 77.539 39.608V25.541C77.539 24.32 77.732 23.297 78.12 22.474C78.507 21.652 79.002 21.011 79.6 20.553C80.2 20.095 80.875 19.766 81.627 19.566C82.379 19.366 83.107 19.267 83.813 19.267C85.692 19.267 87.326 19.297 88.713 19.355C90.099 19.413 91.322 19.478 92.379 19.549C93.437 19.619 94.389 19.69 95.235 19.76V24.907H85.646C85.012 24.907 84.518 25.054 84.166 25.348C83.814 25.642 83.637 26.105 83.637 26.74V29.631L93.508 29.983V34.778L83.637 35.096V37.845C83.637 38.362 83.719 38.768 83.884 39.061C84.048 39.355 84.272 39.572 84.554 39.713C84.836 39.854 85.141 39.924 85.47 39.924H95.235V45.036C94.201 45.155 93.05 45.26 91.781 45.354C90.512 45.448 89.225 45.513 87.92 45.548C86.616 45.583 85.376 45.612 84.201 45.636L84.202 45.637Z" fill="#FCFCFC"/>
<path d="M98.8319 45.426V19.267H103.663L113.675 35.096V19.267H119.775V45.426H114.909L104.897 29.632V45.426H98.8329H98.8319Z" fill="#FCFCFC"/>
<path d="M80.2939 9.47804L63.977 45.426H59.1L40.4609 4.36304H47.405L61.5379 35.5L71.0129 14.629L71.021 14.611H64.0959V19.743H58.9809V9.47804H80.2939Z" fill="#6CB876"/>
<path d="M134.464 35.5288V19.4178H141.412C141.948 19.4178 142.497 19.4798 143.062 19.6028C143.627 19.7258 144.144 19.9758 144.614 20.3518C145.085 20.7288 145.464 21.2968 145.754 22.0558C146.043 22.8158 146.188 23.8258 146.188 25.0848C146.188 26.3438 146.043 27.3608 145.754 28.1348C145.464 28.9098 145.091 29.4918 144.636 29.8828C144.18 30.2739 143.684 30.5378 143.149 30.6748C142.613 30.8128 142.092 30.8818 141.585 30.8818C141.325 30.8818 141.035 30.8678 140.717 30.8378C140.398 30.8088 140.08 30.7728 139.762 30.7288C139.443 30.6858 139.15 30.6388 138.883 30.5878C138.615 30.5378 138.394 30.5048 138.22 30.4908V35.5279H134.464V35.5288ZM138.22 27.5168H140.999C141.332 27.5168 141.604 27.4298 141.813 27.2558C142.023 27.0818 142.179 26.8218 142.28 26.4748C142.381 26.1268 142.432 25.6708 142.432 25.1068C142.432 24.5718 142.378 24.1338 142.269 23.7938C142.161 23.4538 142.005 23.2009 141.802 23.0339C141.599 22.8669 141.338 22.7839 141.02 22.7839H138.219V27.5178L138.22 27.5168Z" fill="#FCFCFC"/>
<path d="M148.099 35.5288V19.4178H154.874C155.554 19.4178 156.18 19.5008 156.752 19.6678C157.324 19.8348 157.823 20.1168 158.25 20.5148C158.677 20.9128 159.01 21.4518 159.249 22.1318C159.488 22.8128 159.607 23.6738 159.607 24.7158C159.607 25.4248 159.542 26.0288 159.412 26.5288C159.282 27.0278 159.108 27.4478 158.891 27.7878C158.674 28.1278 158.424 28.4068 158.142 28.6238C157.86 28.8408 157.566 29.0288 157.262 29.1888L160.15 35.5288H156.328L153.918 29.7968C153.773 29.7968 153.61 29.7928 153.43 29.7858C153.249 29.7788 153.072 29.7748 152.898 29.7748H151.856V35.5288H148.1H148.099ZM151.855 26.7998H154.2C154.46 26.7998 154.692 26.7679 154.895 26.7029C155.098 26.6369 155.271 26.5218 155.416 26.3558C155.561 26.1888 155.669 25.9759 155.742 25.7149C155.814 25.4549 155.851 25.1288 155.851 24.7378C155.851 24.3468 155.814 24.0248 155.742 23.7718C155.669 23.5188 155.561 23.3238 155.416 23.1858C155.271 23.0488 155.098 22.9468 154.895 22.8818C154.692 22.8158 154.46 22.7839 154.2 22.7839H151.855V26.8008V26.7998Z" fill="#FCFCFC"/>
<path d="M168.226 35.6598C167.112 35.6598 166.131 35.5509 165.284 35.3339C164.437 35.1169 163.728 34.7189 163.156 34.1399C162.584 33.5609 162.157 32.7359 161.875 31.6648C161.593 30.5938 161.452 29.1968 161.452 27.4748C161.452 25.7528 161.596 24.3738 161.886 23.2948C162.175 22.2168 162.602 21.3878 163.167 20.8088C163.732 20.2298 164.437 19.8288 165.284 19.6038C166.131 19.3798 167.112 19.2668 168.226 19.2668C169.34 19.2668 170.343 19.3788 171.19 19.6038C172.037 19.8278 172.742 20.2298 173.307 20.8088C173.872 21.3878 174.295 22.2168 174.577 23.2948C174.859 24.3738 175 25.7668 175 27.4748C175 29.1828 174.859 30.5948 174.577 31.6648C174.295 32.7368 173.868 33.5619 173.296 34.1399C172.724 34.7189 172.018 35.1169 171.179 35.3339C170.339 35.5509 169.355 35.6598 168.226 35.6598ZM168.226 32.2948C168.819 32.2948 169.312 32.2258 169.703 32.0878C170.093 31.9508 170.401 31.7118 170.625 31.3718C170.849 31.0318 171.008 30.5468 171.103 29.9168C171.197 29.2878 171.244 28.4728 171.244 27.4748C171.244 26.4768 171.197 25.6148 171.103 24.9778C171.009 24.3408 170.85 23.8518 170.625 23.5118C170.401 23.1718 170.093 22.9398 169.703 22.8168C169.312 22.6938 168.82 22.6328 168.226 22.6328C167.632 22.6328 167.162 22.6938 166.772 22.8168C166.381 22.9398 166.073 23.1718 165.849 23.5118C165.625 23.8518 165.462 24.3408 165.361 24.9778C165.259 25.6148 165.209 26.4468 165.209 27.4748C165.209 28.5028 165.256 29.2878 165.35 29.9168C165.444 30.5468 165.603 31.0318 165.827 31.3718C166.051 31.7118 166.359 31.9508 166.75 32.0878C167.141 32.2258 167.633 32.2948 168.226 32.2948Z" fill="#FCFCFC"/>
<path d="M175.001 43.4028H134.464V45.4248H175.001V43.4028Z" fill="#6CB876"/>
</svg>
