<svg width="130" height="31" viewBox="0 0 130 31" fill="none" xmlns="http://www.w3.org/2000/svg">
<g clip-path="url(#clip0_15_874)">
<path d="M6.65898 31C6.10252 31 5.54076 30.9818 4.9737 30.948C4.40664 30.9115 3.85018 30.8647 3.30167 30.8022C2.75315 30.7423 2.22319 30.6669 1.71178 30.5784C1.20036 30.4899 0.728694 30.3936 0.296774 30.2869V26.6588C0.871784 26.7109 1.51039 26.7577 2.20994 26.7915C2.90949 26.8254 3.62494 26.854 4.35364 26.8696C5.08234 26.8878 5.76865 26.8957 6.4152 26.8957C7.06176 26.8957 7.57847 26.8488 8.01834 26.7499C8.45821 26.6536 8.79474 26.4844 9.03057 26.2476C9.26375 26.0082 9.38035 25.6776 9.38035 25.2534V24.7511C9.38035 24.2748 9.22136 23.913 8.90868 23.6658C8.59335 23.4185 8.19323 23.2962 7.70831 23.2962H6.14492C4.13106 23.2962 2.60476 22.8642 1.56074 21.9975C0.519359 21.1334 -0.00265503 19.6759 -0.00265503 17.6277V16.7011C-0.00265503 14.7778 0.572355 13.3515 1.72238 12.425C2.8724 11.4985 4.52588 11.0352 6.68283 11.0352C7.47513 11.0352 8.23827 11.0742 8.97492 11.1549C9.71157 11.2356 10.4138 11.3267 11.0762 11.4334C11.7413 11.5401 12.3243 11.6546 12.8278 11.7769V15.379C12.001 15.3269 11.0762 15.2723 10.0507 15.2202C9.02792 15.1682 8.09254 15.1395 7.24724 15.1395C6.69078 15.1395 6.19527 15.189 5.76335 15.2853C5.33143 15.3842 5.0002 15.5586 4.76701 15.8136C4.53383 16.0713 4.41724 16.4461 4.41724 16.938V17.3075C4.41724 17.8723 4.58418 18.2861 4.9154 18.5516C5.24663 18.8171 5.7554 18.9498 6.43905 18.9498H8.29922C9.53933 18.9498 10.5648 19.1736 11.373 19.6239C12.1812 20.0741 12.788 20.691 13.1934 21.477C13.5989 22.263 13.8002 23.1505 13.8002 24.1395V25.1181C13.8002 26.7421 13.5088 27.9783 12.9232 28.8242C12.3402 29.6727 11.5134 30.2452 10.4429 30.5445C9.37504 30.8439 8.11108 30.9948 6.65633 30.9948L6.65898 31Z" fill="#1C1C1C"/>
<path d="M21.5934 31C21.1614 31 20.6553 30.9558 20.0697 30.8673C19.4841 30.7788 18.925 30.5888 18.3844 30.2973C17.8465 30.0058 17.396 29.5555 17.0357 28.9465C16.6753 28.3375 16.4978 27.5125 16.4978 26.4714V15.9047C16.4978 14.9886 16.6461 14.2208 16.9429 13.6014C17.2397 12.9846 17.616 12.5031 18.0744 12.1595C18.5328 11.816 19.0495 11.5687 19.6245 11.4178C20.1996 11.2668 20.756 11.1939 21.2966 11.1939C22.7328 11.1939 23.9835 11.2174 25.0434 11.259C26.1033 11.3032 27.0387 11.3527 27.8469 11.4048C28.6551 11.4568 29.3838 11.5115 30.0304 11.5635V15.4284H22.6983C22.2134 15.4284 21.8371 15.5403 21.5669 15.759C21.2966 15.9802 21.1614 16.3289 21.1614 16.8052V18.9758L28.7108 19.2413V22.8433L21.1614 23.0828V25.1467C21.1614 25.5345 21.225 25.839 21.3496 26.0602C21.4741 26.2814 21.6464 26.4428 21.861 26.5495C22.0756 26.6562 22.3088 26.7083 22.5605 26.7083H30.0277V30.5471C29.2381 30.6356 28.3557 30.7163 27.3859 30.7866C26.416 30.8569 25.4303 30.9063 24.434 30.9323C23.4376 30.9584 22.489 30.9792 21.5907 30.9974L21.5934 31Z" fill="#1C1C1C"/>
<path d="M60.5669 31C60.1349 31 59.6288 30.9558 59.0432 30.8673C58.4576 30.7788 57.8985 30.5888 57.3579 30.2973C56.82 30.0058 56.3695 29.5555 56.0092 28.9465C55.6488 28.3375 55.4713 27.5125 55.4713 26.4714V15.9047C55.4713 14.9886 55.6196 14.2208 55.9164 13.6014C56.2132 12.9846 56.5895 12.5031 57.0479 12.1595C57.5063 11.816 58.023 11.5687 58.598 11.4178C59.173 11.2668 59.7295 11.1939 60.2701 11.1939C61.7063 11.1939 62.957 11.2174 64.0169 11.259C65.0768 11.3032 66.0122 11.3527 66.8204 11.4048C67.6286 11.4568 68.3573 11.5115 69.0039 11.5635V15.4284H61.6718C61.1869 15.4284 60.8106 15.5403 60.5404 15.759C60.2701 15.9802 60.1349 16.3289 60.1349 16.8052V18.9758L67.6843 19.2413V22.8433L60.1349 23.0828V25.1467C60.1349 25.5345 60.1985 25.839 60.3231 26.0602C60.4476 26.2814 60.6198 26.4428 60.8345 26.5495C61.0491 26.6562 61.2823 26.7083 61.534 26.7083H69.0012V30.5471C68.2116 30.6356 67.3292 30.7163 66.3593 30.7866C65.3895 30.8569 64.4038 30.9063 63.4075 30.9323C62.4111 30.9584 61.4625 30.9792 60.5642 30.9974L60.5669 31Z" fill="#1C1C1C"/>
<path d="M71.7544 30.8412V11.1939H75.4482L83.1035 23.0828V11.1939H87.7672V30.8412H84.0469L76.3916 18.9784V30.8412H71.7544Z" fill="#1C1C1C"/>
<path d="M57.5779 3.84149L45.0999 30.8412H41.3716L27.1156 0H32.4285L43.2344 23.3873L50.4817 7.71161L50.487 7.696H45.19V11.5531H41.2788V3.84149H57.5779Z" fill="#007D77"/>
<path d="M99.0024 23.4081V11.3084H104.315C104.726 11.3084 105.145 11.3553 105.577 11.4464C106.009 11.5375 106.403 11.7275 106.764 12.0085C107.124 12.2922 107.413 12.7191 107.636 13.289C107.858 13.859 107.967 14.619 107.967 15.5638C107.967 16.5085 107.855 17.2737 107.636 17.8541C107.413 18.4371 107.129 18.8743 106.78 19.1658C106.43 19.4599 106.051 19.6577 105.643 19.7618C105.232 19.8659 104.835 19.918 104.448 19.918C104.249 19.918 104.026 19.9076 103.783 19.8841C103.539 19.8633 103.295 19.8347 103.051 19.8034C102.808 19.7722 102.582 19.7358 102.378 19.6967C102.174 19.6603 102.005 19.6343 101.872 19.6239V23.4081H98.9998H99.0024ZM101.875 17.3908H104C104.254 17.3908 104.464 17.3257 104.623 17.1956C104.782 17.0655 104.901 16.8703 104.98 16.61C105.057 16.3497 105.097 16.0062 105.097 15.582C105.097 15.1812 105.055 14.8506 104.972 14.5956C104.89 14.3405 104.771 14.1505 104.615 14.0256C104.458 13.9007 104.26 13.8382 104.016 13.8382H101.875V17.3934V17.3908Z" fill="#1C1C1C"/>
<path d="M109.429 23.4081V11.3084H114.61C115.129 11.3084 115.609 11.3709 116.046 11.4958C116.483 11.6208 116.865 11.8342 117.191 12.1309C117.517 12.4276 117.771 12.8336 117.954 13.3463C118.137 13.8564 118.227 14.5045 118.227 15.2879C118.227 15.8214 118.177 16.2743 118.078 16.6491C117.98 17.0238 117.845 17.3387 117.681 17.5938C117.514 17.8489 117.323 18.0597 117.109 18.221C116.894 18.385 116.669 18.5256 116.436 18.6453L118.646 23.4081H115.723L113.881 19.1033C113.77 19.1033 113.645 19.1007 113.508 19.0955C113.37 19.0903 113.235 19.0877 113.099 19.0877H112.302V23.4107H109.429V23.4081ZM112.302 16.8521H114.096C114.295 16.8521 114.472 16.8286 114.628 16.7792C114.782 16.7297 114.917 16.6438 115.026 16.5189C115.135 16.394 115.219 16.2326 115.275 16.0374C115.331 15.8422 115.357 15.5976 115.357 15.3035C115.357 15.0094 115.328 14.7673 115.275 14.5774C115.219 14.3874 115.137 14.2416 115.026 14.1375C114.915 14.0334 114.782 13.9579 114.628 13.9085C114.472 13.859 114.297 13.8356 114.096 13.8356H112.302V16.8521Z" fill="#1C1C1C"/>
<path d="M124.82 23.507C123.966 23.507 123.216 23.4263 122.57 23.2624C121.923 23.0984 121.38 22.8017 120.943 22.3644C120.506 21.9298 120.18 21.3104 119.962 20.5062C119.748 19.7019 119.639 18.6531 119.639 17.3596C119.639 16.0661 119.75 15.0302 119.97 14.2208C120.193 13.4114 120.519 12.7893 120.951 12.3547C121.383 11.9201 121.923 11.6182 122.57 11.449C123.216 11.2798 123.966 11.1965 124.82 11.1965C125.673 11.1965 126.439 11.2798 127.085 11.449C127.732 11.6182 128.272 11.9201 128.704 12.3547C129.136 12.7893 129.459 13.4114 129.677 14.2208C129.891 15.0302 130 16.0765 130 17.3596C130 18.6427 129.891 19.7019 129.677 20.5062C129.462 21.3104 129.133 21.9298 128.696 22.3644C128.259 22.7991 127.718 23.0984 127.077 23.2624C126.436 23.4263 125.683 23.507 124.82 23.507ZM124.82 20.9798C125.273 20.9798 125.649 20.9278 125.948 20.8237C126.248 20.7196 126.481 20.54 126.653 20.2849C126.826 20.0299 126.947 19.6655 127.019 19.1918C127.09 18.7182 127.128 18.1065 127.128 17.357C127.128 16.6074 127.09 15.9594 127.019 15.4805C126.947 15.0016 126.826 14.6346 126.653 14.3796C126.481 14.1245 126.245 13.9501 125.948 13.8564C125.649 13.7653 125.273 13.7185 124.82 13.7185C124.366 13.7185 124.006 13.7653 123.707 13.8564C123.407 13.9501 123.171 14.1219 123.002 14.3796C122.832 14.6372 122.705 15.0016 122.628 15.4805C122.551 15.9594 122.512 16.584 122.512 17.357C122.512 18.13 122.546 18.7182 122.62 19.1918C122.692 19.6655 122.814 20.0299 122.986 20.2849C123.158 20.54 123.394 20.7196 123.691 20.8237C123.99 20.9278 124.366 20.9798 124.82 20.9798Z" fill="#1C1C1C"/>
<path d="M130 29.3239H99.0024V30.8438H130V29.3239Z" fill="#007D77"/>
</g>
<defs>
<clipPath id="clip0_15_874">
<rect width="130" height="31" fill="white"/>
</clipPath>
</defs>
</svg>
