<svg width="1440" height="450" viewBox="0 0 1440 450" fill="none" xmlns="http://www.w3.org/2000/svg">
<mask id="mask0_164_1835" style="mask-type:alpha" maskUnits="userSpaceOnUse" x="0" y="0" width="1440" height="450">
<rect width="1440" height="450" fill="#D9D9D9"/>
</mask>
<g mask="url(#mask0_164_1835)">
<path d="M64.2218 -28.8616H29.6124V-11.9784H38.3027V-20.141H48.6182L33.9606 12.1458L11.6557 -37H0L29.8307 28.7076L29.9035 28.8713H38.0176L64.2218 -28.8616ZM0.855078 -36.4481H11.2979L33.9606 13.4739L49.2974 -20.3169L49.4551 -20.6989H37.7508V-12.5363H30.1642V-28.3097H63.3607L37.6538 28.3195H30.2552L0.855078 -36.4481Z" fill="#6CB876" fill-opacity="0.3"/>
<path d="M48.0238 20.7329H82.6332V3.84969H73.943V12.0124H63.6275L78.2851 -20.2744L100.59 28.8653H112.246L82.421 -36.8363L82.3482 -37H74.2341L48.0238 20.7329ZM111.391 28.3195H100.948L78.2851 -21.6025L62.9483 12.1882L62.7906 12.5703H74.4948V4.40762H82.0814V20.1871H48.8849L74.5919 -36.4481H81.9904L111.391 28.3195Z" fill="#6CB876" fill-opacity="0.3"/>
<path d="M136.54 20.739H171.149V3.85576H162.459V12.0184H152.143L166.801 -20.2684L189.106 28.8713H200.761L170.931 -36.8363L170.858 -37H162.744L136.534 20.7329L136.54 20.739ZM199.906 28.3256H189.463L166.801 -21.5965L151.464 12.1943L151.306 12.5763H163.011V4.41368H170.597V20.1932H137.401L163.102 -36.4481H170.5L199.9 28.3195L199.906 28.3256Z" fill="#6CB876" fill-opacity="0.3"/>
<path d="M152.731 -28.8616H118.122V-11.9784H126.812V-20.141H137.128L122.47 12.1458L100.165 -37H88.5095L118.34 28.7076L118.413 28.8713H126.527L152.731 -28.8616ZM89.3707 -36.4481H99.8135L122.476 13.4739L137.813 -20.3169L137.971 -20.6989H126.266V-12.5363H118.68V-28.3097H151.876L126.169 28.3195H118.771L89.3707 -36.4481Z" fill="#6CB876" fill-opacity="0.3"/>
<path d="M241.247 -28.8616H206.638V-11.9784H215.328V-20.141H225.643L210.986 12.1458L188.675 -37H177.019L206.85 28.7076L206.923 28.8713H215.037L241.247 -28.8616ZM177.88 -36.4481H188.323L210.986 13.4739L226.323 -20.3169L226.48 -20.6989H214.776V-12.5363H207.19V-28.3097H240.386L214.679 28.3195H207.28L177.88 -36.4481Z" fill="#6CB876" fill-opacity="0.3"/>
<path d="M225.049 20.7329H259.658V3.84969H250.968V12.0124H240.653L255.31 -20.2744L277.615 28.8653H289.271L259.44 -36.8363L259.367 -37H251.253L225.043 20.7329H225.049ZM288.416 28.3195H277.973L255.31 -21.6025L239.973 12.1882L239.816 12.5703H251.52V4.40762H259.107V20.1871H225.91L251.611 -36.4481H259.01L288.41 28.3195H288.416Z" fill="#6CB876" fill-opacity="0.3"/>
<path d="M313.559 20.739H348.168V3.85576H339.478V12.0184H329.163L343.82 -20.2684L366.125 28.8713H377.781L347.95 -36.8363L347.877 -37H339.763L313.553 20.7329L313.559 20.739ZM376.926 28.3256H366.483L343.82 -21.5965L328.483 12.1943L328.326 12.5763H340.03V4.41368H347.617V20.1932H314.42L340.121 -36.4481H347.52L376.92 28.3195L376.926 28.3256Z" fill="#6CB876" fill-opacity="0.3"/>
<path d="M329.757 -28.8616H295.148V-11.9784H303.838V-20.141H314.153L299.496 12.1458L277.185 -37H265.529L295.36 28.7076L295.433 28.8713H303.547L329.757 -28.8616ZM266.39 -36.4481H276.833L299.496 13.4739L314.833 -20.3169L314.99 -20.6989H303.286V-12.5363H295.699V-28.3097H328.896L303.189 28.3195H295.79L266.39 -36.4481Z" fill="#6CB876" fill-opacity="0.3"/>
<path d="M418.267 -28.8616H383.657V-11.9784H392.347V-20.141H402.663L388.005 12.1458L365.701 -37H354.045L383.876 28.7076L383.948 28.8713H392.062L418.273 -28.8616H418.267ZM354.9 -36.4481H365.343L388.005 13.4739L403.342 -20.3169L403.5 -20.6989H391.796V-12.5363H384.209V-28.3097H417.406L391.699 28.3195H384.3L354.9 -36.4481Z" fill="#6CB876" fill-opacity="0.3"/>
<path d="M402.069 20.7329H436.678V3.84969H427.988V12.0124H417.672L432.33 -20.2744L454.635 28.8653H466.291L436.466 -36.8363L436.393 -37H428.279L402.069 20.7329ZM465.436 28.3195H454.993L432.33 -21.6025L416.993 12.1882L416.836 12.5703H428.54V4.40762H436.126V20.1871H402.93L428.637 -36.4481H436.035L465.436 28.3195Z" fill="#6CB876" fill-opacity="0.3"/>
<path d="M490.584 20.739H525.193V3.85576H516.503V12.0184H506.188L520.845 -20.2684L543.15 28.8713H554.806L524.975 -36.8363L524.902 -37H516.788L490.578 20.7329L490.584 20.739ZM553.951 28.3256H543.508L520.845 -21.5965L505.508 12.1943L505.351 12.5763H517.055V4.41368H524.642V20.1932H491.445L517.146 -36.4481H524.545L553.945 28.3195L553.951 28.3256Z" fill="#6CB876" fill-opacity="0.3"/>
<path d="M506.776 -28.8616H472.167V-11.9784H480.857V-20.141H491.173L476.515 12.1458L454.21 -37H442.555L472.385 28.7076L472.458 28.8713H480.572L506.782 -28.8616H506.776ZM443.416 -36.4481H453.859L476.521 13.4739L491.858 -20.3169L492.016 -20.6989H480.311V-12.5363H472.725V-28.3097H505.921L480.214 28.3195H472.816L443.416 -36.4481Z" fill="#6CB876" fill-opacity="0.3"/>
<path d="M595.286 -28.8616H560.676V-11.9784H569.367V-20.141H579.682L565.025 12.1458L542.72 -37H531.064L560.895 28.7076L560.968 28.8713H569.082L595.292 -28.8616H595.286ZM531.925 -36.4481H542.368L565.031 13.4739L580.368 -20.3169L580.525 -20.6989H568.821V-12.5363H561.234V-28.3097H594.431L568.724 28.3195H561.325L531.925 -36.4481Z" fill="#6CB876" fill-opacity="0.3"/>
<path d="M579.094 20.7329H613.703V3.84969H605.013V12.0124H594.698L609.355 -20.2744L631.66 28.8653H643.316L613.485 -36.8363L613.412 -37H605.298L579.088 20.7329H579.094ZM642.461 28.3195H632.018L609.355 -21.6025L594.019 12.1882L593.861 12.5703H605.565V4.40762H613.152V20.1871H579.955L605.656 -36.4481H613.055L642.455 28.3195H642.461Z" fill="#6CB876" fill-opacity="0.3"/>
<path d="M667.604 20.739H702.213V3.85576H693.523V12.0184H683.207L697.865 -20.2684L720.17 28.8713H731.826L701.995 -36.8363L701.922 -37H693.808L667.598 20.7329L667.604 20.739ZM730.971 28.3256H720.528L697.865 -21.5965L682.528 12.1943L682.371 12.5763H694.075V4.41368H701.661V20.1932H668.465L694.166 -36.4481H701.564L730.965 28.3195L730.971 28.3256Z" fill="#6CB876" fill-opacity="0.3"/>
<path d="M683.802 -28.8616H649.192V-11.9784H657.883V-20.141H668.198L653.541 12.1458L631.23 -37H619.574L649.405 28.7076L649.477 28.8713H657.592L683.802 -28.8616ZM620.435 -36.4481H630.878L653.541 13.4739L668.877 -20.3169L669.035 -20.6989H657.331V-12.5363H649.744V-28.3097H682.941L657.234 28.3195H649.835L620.435 -36.4481Z" fill="#6CB876" fill-opacity="0.3"/>
<path d="M48.0236 36.4579H82.6331V53.3411H73.9428V45.1785H63.6273L78.2849 77.4653L100.59 28.3256H112.245L82.4148 94.0332L82.342 94.1969H74.2278L48.0176 36.464L48.0236 36.4579ZM111.39 28.8714H100.948L78.2849 78.7934L62.9481 45.0026L62.7904 44.6206H74.4947V52.7832H82.0812V37.0037H48.8848L74.5917 93.6329H81.9903L111.39 28.8653V28.8714Z" fill="#6CB876" fill-opacity="0.3"/>
<path d="M64.2218 86.0585H29.6124V69.1752H38.3026V77.3379H48.6182L33.9606 45.0511L11.6557 94.1908H0L29.8307 28.4832L29.9035 28.3195H38.0176L64.2279 86.0524L64.2218 86.0585ZM0.855078 93.6389H11.2979L33.9606 43.7169L49.2974 77.5077L49.4551 77.8897H37.7508V69.7271H30.1642V85.5066H63.3607L37.6538 28.8774H30.2552L0.855078 93.6389Z" fill="#6CB876" fill-opacity="0.3"/>
<path d="M152.731 86.0524H118.122V69.1691H126.812V77.3318H137.128L122.47 45.045L100.165 94.1847H88.5095L118.34 28.4771L118.413 28.3134H126.527L152.737 86.0463L152.731 86.0524ZM89.3646 93.6389H99.8075L122.47 43.7169L137.807 77.5076L137.965 77.8897H126.26V69.727H118.674V85.5066H151.87L126.163 28.8773H118.765L89.3646 93.645V93.6389Z" fill="#6CB876" fill-opacity="0.3"/>
<path d="M136.54 36.4578H171.149V53.341H162.459V45.1784H152.143L166.801 77.4651L189.106 28.3254H200.761L170.931 94.033L170.858 94.1968H162.744L136.534 36.4638L136.54 36.4578ZM199.906 28.8712H189.463L166.801 78.7932L151.464 45.0025L151.306 44.6204H163.011V52.7831H170.597V37.0036H137.401L163.108 93.6328H170.506L199.906 28.8652V28.8712Z" fill="#6CB876" fill-opacity="0.3"/>
<path d="M225.049 36.4579H259.659V53.3411H250.968V45.1785H240.653L255.31 77.4653L277.615 28.3256H289.271L259.44 94.0332L259.368 94.1969H251.253L225.043 36.464L225.049 36.4579ZM288.416 28.8714H277.973L255.31 78.7934L239.974 45.0026L239.816 44.6206H251.52V52.7832H259.107V37.0037H225.91L251.617 93.6329H259.016L288.416 28.8653V28.8714Z" fill="#6CB876" fill-opacity="0.3"/>
<path d="M241.247 86.0585H206.638V69.1752H215.328V77.3379H225.644L210.986 45.0511L188.681 94.1908H177.025L206.856 28.4832L206.929 28.3195H215.043L241.253 86.0524L241.247 86.0585ZM177.881 93.645H188.323L210.986 43.723L226.323 77.5137L226.48 77.8958H214.776V69.7331H207.19V85.5127H240.386L214.679 28.8834H207.281L177.881 93.6511V93.645Z" fill="#6CB876" fill-opacity="0.3"/>
<path d="M329.757 86.0524H295.147V69.1691H303.838V77.3318H314.153L299.496 45.045L277.191 94.1847H265.535L295.366 28.4771L295.438 28.3134H303.553L329.763 86.0463L329.757 86.0524ZM266.39 93.6389H276.833L299.496 43.7169L314.832 77.5076L314.99 77.8897H303.286V69.727H295.699V85.5066H328.896L303.189 28.8773H295.79L266.39 93.645V93.6389Z" fill="#6CB876" fill-opacity="0.3"/>
<path d="M313.559 36.4578H348.168V53.341H339.478V45.1784H329.163L343.82 77.4651L366.125 28.3254H377.781L347.95 94.033L347.877 94.1968H339.763L313.553 36.4638L313.559 36.4578ZM376.926 28.8712H366.483L343.82 78.7932L328.483 45.0025L328.326 44.6204H340.03V52.7831H347.616V37.0036H314.42L340.127 93.6328H347.525L376.926 28.8652V28.8712Z" fill="#6CB876" fill-opacity="0.3"/>
<path d="M402.069 36.4579H436.678V53.3411H427.988V45.1785H417.672L432.33 77.4653L454.635 28.3256H466.291L436.46 94.0332L436.387 94.1969H428.273L402.063 36.464L402.069 36.4579ZM465.436 28.8714H454.993L432.33 78.7934L416.993 45.0026L416.836 44.6206H428.54V52.7832H436.126V37.0037H402.93L428.637 93.6329H436.035L465.436 28.8653V28.8714Z" fill="#6CB876" fill-opacity="0.3"/>
<path d="M418.267 86.0585H383.657V69.1752H392.347V77.3379H402.663L388.005 45.0511L365.701 94.1908H354.045L383.876 28.4832L383.948 28.3195H392.062L418.273 86.0524L418.267 86.0585ZM354.9 93.645H365.343L388.005 43.723L403.342 77.5137L403.5 77.8958H391.796V69.7331H384.209V85.5127H417.406L391.699 28.8834H384.3L354.9 93.6511V93.645Z" fill="#6CB876" fill-opacity="0.3"/>
<path d="M506.776 86.0524H472.167V69.1691H480.857V77.3318H491.173L476.515 45.045L454.21 94.1847H442.555L472.385 28.4771L472.458 28.3134H480.572L506.782 86.0463L506.776 86.0524ZM443.41 93.6389H453.853L476.515 43.7169L491.852 77.5076L492.01 77.8897H480.305V69.727H472.719V85.5066H505.915L480.208 28.8773H472.81L443.41 93.645V93.6389Z" fill="#6CB876" fill-opacity="0.3"/>
<path d="M490.584 36.4578H525.193V53.341H516.503V45.1784H506.188L520.845 77.4651L543.15 28.3254H554.806L524.975 94.033L524.902 94.1968H516.788L490.578 36.4638L490.584 36.4578ZM553.951 28.8712H543.508L520.845 78.7932L505.508 45.0025L505.351 44.6204H517.055V52.7831H524.642V37.0036H491.445L517.152 93.6328H524.551L553.951 28.8652V28.8712Z" fill="#6CB876" fill-opacity="0.3"/>
<path d="M579.094 36.4579H613.703V53.3411H605.013V45.1785H594.698L609.355 77.4653L631.66 28.3256H643.316L613.485 94.0332L613.412 94.1969H605.298L579.088 36.464L579.094 36.4579ZM642.461 28.8714H632.018L609.355 78.7934L594.019 45.0026L593.861 44.6206H605.565V52.7832H613.152V37.0037H579.955L605.662 93.6329H613.061L642.461 28.8653V28.8714Z" fill="#6CB876" fill-opacity="0.3"/>
<path d="M595.286 86.0585H560.676V69.1752H569.367V77.3379H579.682L565.025 45.0511L542.72 94.1908H531.064L560.895 28.4832L560.968 28.3195H569.082L595.292 86.0524L595.286 86.0585ZM531.919 93.645H542.362L565.025 43.723L580.361 77.5137L580.519 77.8958H568.815V69.7331H561.228V85.5127H594.425L568.718 28.8834H561.319L531.919 93.6511V93.645Z" fill="#6CB876" fill-opacity="0.3"/>
<path d="M683.802 86.0524H649.192V69.1691H657.882V77.3318H668.198L653.54 45.045L631.236 94.1847H619.58L649.411 28.4771L649.483 28.3134H657.597L683.808 86.0463L683.802 86.0524ZM620.435 93.6389H630.878L653.54 43.7169L668.877 77.5076L669.035 77.8897H657.331V69.727H649.744V85.5066H682.941L657.234 28.8773H649.835L620.435 93.645V93.6389Z" fill="#6CB876" fill-opacity="0.3"/>
<path d="M667.604 36.4578H702.213V53.341H693.523V45.1784H683.207L697.865 77.4651L720.17 28.3254H731.826L701.995 94.033L701.922 94.1968H693.808L667.598 36.4638L667.604 36.4578ZM730.971 28.8712H720.528L697.865 78.7932L682.528 45.0025L682.371 44.6204H694.075V52.7831H701.661V37.0036H668.465L694.172 93.6328H701.57L730.971 28.8652V28.8712Z" fill="#6CB876" fill-opacity="0.3"/>
<path d="M64.2218 101.777H29.6124V118.661H38.3026V110.498H48.6182L33.9606 142.785L11.6557 93.6451H0L29.8307 159.353L29.9035 159.516H38.0176L64.2279 101.784L64.2218 101.777ZM0.855078 94.1909H11.2979L33.9606 144.113L49.2974 110.322L49.4551 109.94H37.7508V118.103H30.1642V102.323H63.3607L37.6538 158.952H30.2552L0.855078 94.1909Z" fill="#6CB876" fill-opacity="0.3"/>
<path d="M48.0236 151.378H82.6331V134.495H73.9428V142.657H63.6273L78.2849 110.371L100.59 159.51H112.245L82.4148 93.8028L82.342 93.639H74.2278L48.0176 151.372L48.0236 151.378ZM111.39 158.965H100.948L78.2849 109.043L62.9481 142.833L62.7904 143.215H74.4947V135.053H82.0812V150.832H48.8848L74.5917 94.203H81.9903L111.39 158.971V158.965Z" fill="#6CB876" fill-opacity="0.3"/>
<path d="M136.54 151.378H171.149V134.495H162.459V142.657H152.143L166.801 110.371L189.106 159.51H200.761L170.931 93.8028L170.858 93.639H162.744L136.534 151.372L136.54 151.378ZM199.906 158.965H189.463L166.801 109.043L151.464 142.833L151.306 143.215H163.011V135.053H170.597V150.832H137.401L163.108 94.203H170.506L199.906 158.971V158.965Z" fill="#6CB876" fill-opacity="0.3"/>
<path d="M152.731 101.777H118.122V118.661H126.812V110.498H137.128L122.47 142.785L100.165 93.6451H88.5095L118.34 159.353L118.413 159.516H126.527L152.737 101.784L152.731 101.777ZM89.3646 94.1909H99.8075L122.47 144.113L137.807 110.322L137.965 109.94H126.26V118.103H118.674V102.323H151.87L126.163 158.952H118.765L89.3646 94.1849V94.1909Z" fill="#6CB876" fill-opacity="0.3"/>
<path d="M241.247 101.777H206.638V118.661H215.328V110.498H225.644L210.986 142.785L188.681 93.6451H177.026L206.856 159.353L206.929 159.516H215.043L241.253 101.784L241.247 101.777ZM177.881 94.1909H188.323L210.986 144.113L226.323 110.322L226.481 109.94H214.776V118.103H207.19V102.323H240.386L214.679 158.952H207.281L177.881 94.1849V94.1909Z" fill="#6CB876" fill-opacity="0.3"/>
<path d="M225.049 151.378H259.659V134.495H250.968V142.657H240.653L255.31 110.371L277.615 159.51H289.271L259.44 93.8028L259.368 93.639H251.253L225.043 151.372L225.049 151.378ZM288.416 158.965H277.973L255.31 109.043L239.974 142.833L239.816 143.215H251.52V135.053H259.107V150.832H225.91L251.617 94.203H259.016L288.416 158.971V158.965Z" fill="#6CB876" fill-opacity="0.3"/>
<path d="M313.559 151.378H348.168V134.495H339.478V142.657H329.163L343.82 110.371L366.125 159.51H377.781L347.95 93.8028L347.877 93.639H339.763L313.553 151.372L313.559 151.378ZM376.926 158.965H366.483L343.82 109.043L328.483 142.833L328.326 143.215H340.03V135.053H347.616V150.832H314.42L340.127 94.203H347.525L376.926 158.971V158.965Z" fill="#6CB876" fill-opacity="0.3"/>
<path d="M329.757 101.777H295.147V118.661H303.838V110.498H314.153L299.496 142.785L277.191 93.6451H265.535L295.366 159.353L295.439 159.516H303.553L329.763 101.784L329.757 101.777ZM266.39 94.1909H276.833L299.496 144.113L314.832 110.322L314.99 109.94H303.286V118.103H295.699V102.323H328.896L303.189 158.952H295.79L266.39 94.1849V94.1909Z" fill="#6CB876" fill-opacity="0.3"/>
<path d="M418.267 101.777H383.657V118.661H392.347V110.498H402.663L388.005 142.785L365.701 93.6451H354.045L383.876 159.353L383.948 159.516H392.062L418.273 101.784L418.267 101.777ZM354.9 94.1909H365.343L388.005 144.113L403.342 110.322L403.5 109.94H391.796V118.103H384.209V102.323H417.405L391.699 158.952H384.3L354.9 94.1849V94.1909Z" fill="#6CB876" fill-opacity="0.3"/>
<path d="M402.069 151.378H436.678V134.495H427.988V142.657H417.672L432.33 110.371L454.635 159.51H466.291L436.46 93.8028L436.387 93.639H428.273L402.063 151.372L402.069 151.378ZM465.436 158.965H454.993L432.33 109.043L416.993 142.833L416.836 143.215H428.54V135.053H436.126V150.832H402.93L428.637 94.203H436.035L465.436 158.971V158.965Z" fill="#6CB876" fill-opacity="0.3"/>
<path d="M490.584 151.378H525.193V134.495H516.503V142.657H506.188L520.845 110.371L543.15 159.51H554.806L524.975 93.8028L524.902 93.639H516.788L490.578 151.372L490.584 151.378ZM553.951 158.965H543.508L520.845 109.043L505.508 142.833L505.351 143.215H517.055V135.053H524.642V150.832H491.445L517.152 94.203H524.551L553.951 158.971V158.965Z" fill="#6CB876" fill-opacity="0.3"/>
<path d="M506.776 101.777H472.167V118.661H480.857V110.498H491.172L476.515 142.785L454.21 93.645H442.554L472.385 159.353L472.458 159.516H480.572L506.782 101.783L506.776 101.777ZM443.409 94.1908H453.852L476.515 144.113L491.852 110.322L492.009 109.94H480.305V118.103H472.719V102.323H505.915L480.208 158.952H472.809L443.409 94.1848V94.1908Z" fill="#6CB876" fill-opacity="0.3"/>
<path d="M595.286 101.777H560.677V118.661H569.367V110.498H579.682L565.025 142.785L542.72 93.6451H531.064L560.895 159.353L560.968 159.516H569.082L595.292 101.784L595.286 101.777ZM531.919 94.1909H542.362L565.025 144.113L580.362 110.322L580.519 109.94H568.815V118.103H561.228V102.323H594.425L568.718 158.952H561.319L531.919 94.1849V94.1909Z" fill="#6CB876" fill-opacity="0.3"/>
<path d="M579.094 151.378H613.703V134.495H605.013V142.657H594.698L609.355 110.371L631.66 159.51H643.316L613.485 93.8028L613.412 93.639H605.298L579.088 151.372L579.094 151.378ZM642.461 158.965H632.018L609.355 109.043L594.019 142.833L593.861 143.215H605.565V135.053H613.152V150.832H579.955L605.662 94.203H613.061L642.461 158.971V158.965Z" fill="#6CB876" fill-opacity="0.3"/>
<path d="M667.604 151.378H702.213V134.495H693.523V142.657H683.207L697.865 110.371L720.17 159.51H731.826L701.995 93.8028L701.922 93.639H693.808L667.598 151.372L667.604 151.378ZM730.971 158.965H720.528L697.865 109.043L682.528 142.833L682.371 143.215H694.075V135.053H701.661V150.832H668.465L694.172 94.203H701.57L730.971 158.971V158.965Z" fill="#6CB876" fill-opacity="0.3"/>
<path d="M683.802 101.777H649.192V118.661H657.882V110.498H668.198L653.54 142.785L631.236 93.6451H619.58L649.411 159.353L649.483 159.516H657.597L683.808 101.784L683.802 101.777ZM620.435 94.1909H630.878L653.54 144.113L668.877 110.322L669.035 109.94H657.331V118.103H649.744V102.323H682.941L657.234 158.952H649.835L620.435 94.1849V94.1909Z" fill="#6CB876" fill-opacity="0.3"/>
<path d="M48.0236 167.097H82.6331V183.98H73.9428V175.817H63.6273L78.2849 208.104L100.59 158.964H112.245L82.4148 224.672L82.342 224.836H74.2278L48.0176 167.103L48.0236 167.097ZM111.39 159.51H100.948L78.2849 209.432L62.9481 175.642L62.7904 175.259H74.4947V183.422H82.0812V167.643H48.8848L74.5917 224.272H81.9903L111.39 159.504V159.51Z" fill="#6CB876" fill-opacity="0.3"/>
<path d="M64.2218 216.697H29.6124V199.814H38.3026V207.977H48.6182L33.9606 175.69L11.6557 224.83H0L29.8307 159.122L29.9035 158.958H38.0176L64.2279 216.691L64.2218 216.697ZM0.855078 224.278H11.2979L33.9606 174.356L49.2974 208.147L49.4551 208.529H37.7508V200.366H30.1642V216.146H63.3607L37.6538 159.516H30.2552L0.855078 224.278Z" fill="#6CB876" fill-opacity="0.3"/>
<path d="M152.731 216.697H118.122V199.814H126.812V207.977H137.128L122.47 175.69L100.165 224.83H88.5095L118.34 159.122L118.413 158.958H126.527L152.737 216.691L152.731 216.697ZM89.3646 224.284H99.8075L122.47 174.362L137.807 208.153L137.965 208.535H126.26V200.372H118.674V216.152H151.87L126.163 159.522H118.765L89.3646 224.29V224.284Z" fill="#6CB876" fill-opacity="0.3"/>
<path d="M136.54 167.097H171.149V183.98H162.459V175.817H152.143L166.801 208.104L189.106 158.964H200.761L170.931 224.672L170.858 224.836H162.744L136.534 167.103L136.54 167.097ZM199.906 159.51H189.463L166.801 209.432L151.464 175.642L151.306 175.259H163.011V183.422H170.597V167.643H137.401L163.108 224.272H170.506L199.906 159.504V159.51Z" fill="#6CB876" fill-opacity="0.3"/>
<path d="M225.049 167.097H259.659V183.98H250.968V175.817H240.653L255.31 208.104L277.615 158.964H289.271L259.44 224.672L259.368 224.836H251.253L225.043 167.103L225.049 167.097ZM288.416 159.51H277.973L255.31 209.432L239.974 175.642L239.816 175.259H251.52V183.422H259.107V167.643H225.91L251.617 224.272H259.016L288.416 159.504V159.51Z" fill="#6CB876" fill-opacity="0.3"/>
<path d="M241.247 216.697H206.638V199.814H215.328V207.977H225.644L210.986 175.69L188.681 224.83H177.025L206.856 159.122L206.929 158.958H215.043L241.253 216.691L241.247 216.697ZM177.881 224.284H188.323L210.986 174.362L226.323 208.153L226.48 208.535H214.776V200.372H207.19V216.152H240.386L214.679 159.522H207.281L177.881 224.29V224.284Z" fill="#6CB876" fill-opacity="0.3"/>
<path d="M329.757 216.697H295.147V199.814H303.838V207.977H314.153L299.496 175.69L277.191 224.83H265.535L295.366 159.122L295.438 158.958H303.553L329.763 216.691L329.757 216.697ZM266.39 224.284H276.833L299.496 174.362L314.832 208.153L314.99 208.535H303.286V200.372H295.699V216.152H328.896L303.189 159.522H295.79L266.39 224.29V224.284Z" fill="#6CB876" fill-opacity="0.3"/>
<path d="M313.559 167.097H348.168V183.98H339.478V175.817H329.163L343.82 208.104L366.125 158.964H377.781L347.95 224.672L347.877 224.836H339.763L313.553 167.103L313.559 167.097ZM376.926 159.51H366.483L343.82 209.432L328.483 175.642L328.326 175.259H340.03V183.422H347.616V167.643H314.42L340.127 224.272H347.525L376.926 159.504V159.51Z" fill="#6CB876" fill-opacity="0.3"/>
<path d="M402.069 167.097H436.678V183.98H427.988V175.817H417.672L432.33 208.104L454.635 158.964H466.291L436.46 224.672L436.387 224.836H428.273L402.063 167.103L402.069 167.097ZM465.436 159.51H454.993L432.33 209.432L416.993 175.642L416.836 175.259H428.54V183.422H436.126V167.643H402.93L428.637 224.272H436.035L465.436 159.504V159.51Z" fill="#6CB876" fill-opacity="0.3"/>
<path d="M418.267 216.697H383.657V199.814H392.347V207.977H402.663L388.005 175.69L365.701 224.83H354.045L383.876 159.122L383.948 158.958H392.062L418.273 216.691L418.267 216.697ZM354.9 224.284H365.343L388.005 174.362L403.342 208.153L403.5 208.535H391.796V200.372H384.209V216.152H417.406L391.699 159.522H384.3L354.9 224.29V224.284Z" fill="#6CB876" fill-opacity="0.3"/>
<path d="M506.776 216.697H472.167V199.814H480.857V207.977H491.173L476.515 175.69L454.21 224.83H442.555L472.385 159.122L472.458 158.958H480.572L506.782 216.691L506.776 216.697ZM443.41 224.284H453.853L476.515 174.362L491.852 208.153L492.01 208.535H480.305V200.372H472.719V216.152H505.915L480.208 159.522H472.81L443.41 224.29V224.284Z" fill="#6CB876" fill-opacity="0.3"/>
<path d="M490.584 167.097H525.193V183.98H516.503V175.817H506.188L520.845 208.104L543.15 158.964H554.806L524.975 224.672L524.902 224.836H516.788L490.578 167.103L490.584 167.097ZM553.951 159.51H543.508L520.845 209.432L505.508 175.642L505.351 175.259H517.055V183.422H524.642V167.643H491.445L517.152 224.272H524.551L553.951 159.504V159.51Z" fill="#6CB876" fill-opacity="0.3"/>
<path d="M579.094 167.097H613.703V183.98H605.013V175.817H594.698L609.355 208.104L631.66 158.964H643.316L613.485 224.672L613.412 224.836H605.298L579.088 167.103L579.094 167.097ZM642.461 159.51H632.018L609.355 209.432L594.019 175.642L593.861 175.259H605.565V183.422H613.152V167.643H579.955L605.662 224.272H613.061L642.461 159.504V159.51Z" fill="#6CB876" fill-opacity="0.3"/>
<path d="M595.286 216.697H560.676V199.814H569.367V207.977H579.682L565.025 175.69L542.72 224.83H531.064L560.895 159.122L560.968 158.958H569.082L595.292 216.691L595.286 216.697ZM531.919 224.284H542.362L565.025 174.362L580.361 208.153L580.519 208.535H568.815V200.372H561.228V216.152H594.425L568.718 159.522H561.319L531.919 224.29V224.284Z" fill="#6CB876" fill-opacity="0.3"/>
<path d="M683.802 216.697H649.192V199.814H657.882V207.977H668.198L653.54 175.69L631.236 224.83H619.58L649.411 159.122L649.483 158.958H657.597L683.808 216.691L683.802 216.697ZM620.435 224.284H630.878L653.54 174.362L668.877 208.153L669.035 208.535H657.331V200.372H649.744V216.152H682.941L657.234 159.522H649.835L620.435 224.29V224.284Z" fill="#6CB876" fill-opacity="0.3"/>
<path d="M667.604 167.097H702.213V183.98H693.523V175.817H683.207L697.865 208.104L720.17 158.964H731.826L701.995 224.672L701.922 224.836H693.808L667.598 167.103L667.604 167.097ZM730.971 159.51H720.528L697.865 209.432L682.528 175.642L682.371 175.259H694.075V183.422H701.661V167.643H668.465L694.172 224.272H701.57L730.971 159.504V159.51Z" fill="#6CB876" fill-opacity="0.3"/>
<path d="M64.2218 232.416H29.6124V249.3H38.3026V241.137H48.6182L33.9606 273.424L11.6557 224.284H0L29.8307 289.992L29.9035 290.155H38.0176L64.2279 232.422L64.2218 232.416ZM0.855078 224.83H11.2979L33.9606 274.752L49.2974 240.961L49.4551 240.579H37.7508V248.742H30.1642V232.962H63.3607L37.6538 289.591H30.2552L0.855078 224.83Z" fill="#6CB876" fill-opacity="0.3"/>
<path d="M48.0236 282.017H82.6331V265.134H73.9428V273.296H63.6273L78.2849 241.01L100.59 290.149H112.245L82.4148 224.442L82.342 224.278H74.2278L48.0176 282.011L48.0236 282.017ZM111.39 289.603H100.948L78.2849 239.681L62.9481 273.472L62.7904 273.854H74.4947V265.692H82.0812V281.471H48.8848L74.5917 224.842H81.9903L111.39 289.61V289.603Z" fill="#6CB876" fill-opacity="0.3"/>
<path d="M136.54 282.017H171.149V265.134H162.459V273.296H152.143L166.801 241.01L189.106 290.149H200.761L170.931 224.442L170.858 224.278H162.744L136.534 282.011L136.54 282.017ZM199.906 289.603H189.463L166.801 239.681L151.464 273.472L151.306 273.854H163.011V265.692H170.597V281.471H137.401L163.108 224.842H170.506L199.906 289.61V289.603Z" fill="#6CB876" fill-opacity="0.3"/>
<path d="M152.731 232.416H118.122V249.3H126.812V241.137H137.128L122.47 273.424L100.165 224.284H88.5095L118.34 289.992L118.413 290.155H126.527L152.737 232.422L152.731 232.416ZM89.3646 224.83H99.8075L122.47 274.752L137.807 240.961L137.965 240.579H126.26V248.742H118.674V232.962H151.87L126.163 289.591H118.765L89.3646 224.824V224.83Z" fill="#6CB876" fill-opacity="0.3"/>
<path d="M241.247 232.416H206.638V249.3H215.328V241.137H225.644L210.986 273.424L188.681 224.284H177.026L206.856 289.992L206.929 290.155H215.043L241.253 232.422L241.247 232.416ZM177.881 224.83H188.323L210.986 274.752L226.323 240.961L226.481 240.579H214.776V248.742H207.19V232.962H240.386L214.679 289.591H207.281L177.881 224.824V224.83Z" fill="#6CB876" fill-opacity="0.3"/>
<path d="M225.049 282.017H259.659V265.134H250.968V273.296H240.653L255.31 241.01L277.615 290.149H289.271L259.44 224.442L259.368 224.278H251.253L225.043 282.011L225.049 282.017ZM288.416 289.603H277.973L255.31 239.681L239.974 273.472L239.816 273.854H251.52V265.692H259.107V281.471H225.91L251.617 224.842H259.016L288.416 289.61V289.603Z" fill="#6CB876" fill-opacity="0.3"/>
<path d="M313.559 282.017H348.168V265.134H339.478V273.296H329.163L343.82 241.01L366.125 290.149H377.781L347.95 224.442L347.877 224.278H339.763L313.553 282.011L313.559 282.017ZM376.926 289.603H366.483L343.82 239.681L328.483 273.472L328.326 273.854H340.03V265.692H347.616V281.471H314.42L340.127 224.842H347.525L376.926 289.61V289.603Z" fill="#6CB876" fill-opacity="0.3"/>
<path d="M329.757 232.416H295.147V249.3H303.838V241.137H314.153L299.496 273.424L277.191 224.284H265.535L295.366 289.992L295.439 290.155H303.553L329.763 232.422L329.757 232.416ZM266.39 224.83H276.833L299.496 274.752L314.832 240.961L314.99 240.579H303.286V248.742H295.699V232.962H328.896L303.189 289.591H295.79L266.39 224.824V224.83Z" fill="#6CB876" fill-opacity="0.3"/>
<path d="M418.267 232.416H383.657V249.3H392.347V241.137H402.663L388.005 273.424L365.701 224.284H354.045L383.876 289.992L383.948 290.155H392.062L418.273 232.422L418.267 232.416ZM354.9 224.83H365.343L388.005 274.752L403.342 240.961L403.5 240.579H391.796V248.742H384.209V232.962H417.405L391.699 289.591H384.3L354.9 224.824V224.83Z" fill="#6CB876" fill-opacity="0.3"/>
<path d="M402.069 282.017H436.678V265.134H427.988V273.296H417.672L432.33 241.01L454.635 290.149H466.291L436.46 224.442L436.387 224.278H428.273L402.063 282.011L402.069 282.017ZM465.436 289.603H454.993L432.33 239.681L416.993 273.472L416.836 273.854H428.54V265.692H436.126V281.471H402.93L428.637 224.842H436.035L465.436 289.61V289.603Z" fill="#6CB876" fill-opacity="0.3"/>
<path d="M490.584 282.017H525.193V265.134H516.503V273.296H506.188L520.845 241.01L543.15 290.149H554.806L524.975 224.442L524.902 224.278H516.788L490.578 282.011L490.584 282.017ZM553.951 289.603H543.508L520.845 239.681L505.508 273.472L505.351 273.854H517.055V265.692H524.642V281.471H491.445L517.152 224.842H524.551L553.951 289.61V289.603Z" fill="#6CB876" fill-opacity="0.3"/>
<path d="M506.776 232.416H472.167V249.3H480.857V241.137H491.172L476.515 273.424L454.21 224.284H442.554L472.385 289.992L472.458 290.155H480.572L506.782 232.422L506.776 232.416ZM443.409 224.83H453.852L476.515 274.752L491.852 240.961L492.009 240.579H480.305V248.742H472.719V232.962H505.915L480.208 289.591H472.809L443.409 224.824V224.83Z" fill="#6CB876" fill-opacity="0.3"/>
<path d="M595.286 232.416H560.677V249.3H569.367V241.137H579.682L565.025 273.424L542.72 224.284H531.064L560.895 289.992L560.968 290.155H569.082L595.292 232.422L595.286 232.416ZM531.919 224.83H542.362L565.025 274.752L580.362 240.961L580.519 240.579H568.815V248.742H561.228V232.962H594.425L568.718 289.591H561.319L531.919 224.824V224.83Z" fill="#6CB876" fill-opacity="0.3"/>
<path d="M579.094 282.017H613.703V265.134H605.013V273.296H594.698L609.355 241.01L631.66 290.149H643.316L613.485 224.442L613.412 224.278H605.298L579.088 282.011L579.094 282.017ZM642.461 289.603H632.018L609.355 239.681L594.019 273.472L593.861 273.854H605.565V265.692H613.152V281.471H579.955L605.662 224.842H613.061L642.461 289.61V289.603Z" fill="#6CB876" fill-opacity="0.3"/>
<path d="M667.604 282.017H702.213V265.134H693.523V273.296H683.207L697.865 241.01L720.17 290.149H731.826L701.995 224.442L701.922 224.278H693.808L667.598 282.011L667.604 282.017ZM730.971 289.603H720.528L697.865 239.681L682.528 273.472L682.371 273.854H694.075V265.692H701.661V281.471H668.465L694.172 224.842H701.57L730.971 289.61V289.603Z" fill="#6CB876" fill-opacity="0.3"/>
<path d="M683.802 232.416H649.192V249.3H657.882V241.137H668.198L653.54 273.424L631.236 224.284H619.58L649.411 289.992L649.483 290.155H657.597L683.808 232.422L683.802 232.416ZM620.435 224.83H630.878L653.54 274.752L668.877 240.961L669.035 240.579H657.331V248.742H649.744V232.962H682.941L657.234 289.591H649.835L620.435 224.824V224.83Z" fill="#6CB876" fill-opacity="0.3"/>
<path d="M48.0236 297.736H82.6331V314.619H73.9428V306.456H63.6273L78.2849 338.743L100.59 289.604H112.245L82.4148 355.311L82.342 355.475H74.2278L48.0176 297.742L48.0236 297.736ZM111.39 290.149H100.948L78.2849 340.071L62.9481 306.281L62.7904 305.899H74.4947V314.061H82.0812V298.282H48.8848L74.5917 354.911H81.9903L111.39 290.143V290.149Z" fill="#6CB876" fill-opacity="0.3"/>
<path d="M64.2218 347.336H29.6124V330.453H38.3026V338.616H48.6182L33.9606 306.329L11.6557 355.469H0L29.8307 289.761L29.9035 289.597H38.0176L64.2279 347.33L64.2218 347.336ZM0.855078 354.923H11.2979L33.9606 305.001L49.2974 338.792L49.4551 339.174H37.7508V331.011H30.1642V346.791H63.3607L37.6538 290.161H30.2552L0.855078 354.917V354.923Z" fill="#6CB876" fill-opacity="0.3"/>
<path d="M152.731 347.336H118.122V330.453H126.812V338.616H137.128L122.47 306.329L100.165 355.469H88.5095L118.34 289.761L118.413 289.597H126.527L152.737 347.33L152.731 347.336ZM89.3646 354.923H99.8075L122.47 305.001L137.807 338.792L137.965 339.174H126.26V331.011H118.674V346.791H151.87L126.163 290.161H118.765L89.3646 354.929V354.923Z" fill="#6CB876" fill-opacity="0.3"/>
<path d="M136.54 297.736H171.149V314.619H162.459V306.456H152.143L166.801 338.743L189.106 289.604H200.761L170.931 355.311L170.858 355.475H162.744L136.534 297.742L136.54 297.736ZM199.906 290.149H189.463L166.801 340.071L151.464 306.281L151.306 305.899H163.011V314.061H170.597V298.282H137.401L163.108 354.911H170.506L199.906 290.143V290.149Z" fill="#6CB876" fill-opacity="0.3"/>
<path d="M225.049 297.736H259.659V314.619H250.968V306.456H240.653L255.31 338.743L277.615 289.604H289.271L259.44 355.311L259.368 355.475H251.253L225.043 297.742L225.049 297.736ZM288.416 290.149H277.973L255.31 340.071L239.974 306.281L239.816 305.899H251.52V314.061H259.107V298.282H225.91L251.617 354.911H259.016L288.416 290.143V290.149Z" fill="#6CB876" fill-opacity="0.3"/>
<path d="M241.247 347.336H206.638V330.453H215.328V338.616H225.644L210.986 306.329L188.681 355.469H177.025L206.856 289.761L206.929 289.597H215.043L241.253 347.33L241.247 347.336ZM177.881 354.923H188.323L210.986 305.001L226.323 338.792L226.48 339.174H214.776V331.011H207.19V346.791H240.386L214.679 290.161H207.281L177.881 354.929V354.923Z" fill="#6CB876" fill-opacity="0.3"/>
<path d="M329.757 347.336H295.147V330.453H303.838V338.616H314.153L299.496 306.329L277.191 355.469H265.535L295.366 289.761L295.438 289.597H303.553L329.763 347.33L329.757 347.336ZM266.39 354.923H276.833L299.496 305.001L314.832 338.792L314.99 339.174H303.286V331.011H295.699V346.791H328.896L303.189 290.161H295.79L266.39 354.929V354.923Z" fill="#6CB876" fill-opacity="0.3"/>
<path d="M313.559 297.736H348.168V314.619H339.478V306.456H329.163L343.82 338.743L366.125 289.604H377.781L347.95 355.311L347.877 355.475H339.763L313.553 297.742L313.559 297.736ZM376.926 290.149H366.483L343.82 340.071L328.483 306.281L328.326 305.899H340.03V314.061H347.616V298.282H314.42L340.127 354.911H347.525L376.926 290.143V290.149Z" fill="#6CB876" fill-opacity="0.3"/>
<path d="M402.069 297.736H436.678V314.619H427.988V306.456H417.672L432.33 338.743L454.635 289.604H466.291L436.46 355.311L436.387 355.475H428.273L402.063 297.742L402.069 297.736ZM465.436 290.149H454.993L432.33 340.071L416.993 306.281L416.836 305.899H428.54V314.061H436.126V298.282H402.93L428.637 354.911H436.035L465.436 290.143V290.149Z" fill="#6CB876" fill-opacity="0.3"/>
<path d="M418.267 347.336H383.657V330.453H392.347V338.616H402.663L388.005 306.329L365.701 355.469H354.045L383.876 289.761L383.948 289.597H392.062L418.273 347.33L418.267 347.336ZM354.9 354.923H365.343L388.005 305.001L403.342 338.792L403.5 339.174H391.796V331.011H384.209V346.791H417.406L391.699 290.161H384.3L354.9 354.929V354.923Z" fill="#6CB876" fill-opacity="0.3"/>
<path d="M506.776 347.336H472.167V330.453H480.857V338.616H491.173L476.515 306.329L454.21 355.469H442.555L472.385 289.761L472.458 289.597H480.572L506.782 347.33L506.776 347.336ZM443.41 354.923H453.853L476.515 305.001L491.852 338.792L492.01 339.174H480.305V331.011H472.719V346.791H505.915L480.208 290.161H472.81L443.41 354.929V354.923Z" fill="#6CB876" fill-opacity="0.3"/>
<path d="M490.584 297.736H525.193V314.619H516.503V306.456H506.188L520.845 338.743L543.15 289.604H554.806L524.975 355.311L524.902 355.475H516.788L490.578 297.742L490.584 297.736ZM553.951 290.149H543.508L520.845 340.071L505.508 306.281L505.351 305.899H517.055V314.061H524.642V298.282H491.445L517.152 354.911H524.551L553.951 290.143V290.149Z" fill="#6CB876" fill-opacity="0.3"/>
<path d="M579.094 297.736H613.703V314.619H605.013V306.456H594.698L609.355 338.743L631.66 289.604H643.316L613.485 355.311L613.412 355.475H605.298L579.088 297.742L579.094 297.736ZM642.461 290.149H632.018L609.355 340.071L594.019 306.281L593.861 305.899H605.565V314.061H613.152V298.282H579.955L605.662 354.911H613.061L642.461 290.143V290.149Z" fill="#6CB876" fill-opacity="0.3"/>
<path d="M595.286 347.336H560.676V330.453H569.367V338.616H579.682L565.025 306.329L542.72 355.469H531.064L560.895 289.761L560.968 289.597H569.082L595.292 347.33L595.286 347.336ZM531.919 354.923H542.362L565.025 305.001L580.361 338.792L580.519 339.174H568.815V331.011H561.228V346.791H594.425L568.718 290.161H561.319L531.919 354.929V354.923Z" fill="#6CB876" fill-opacity="0.3"/>
<path d="M683.802 347.336H649.192V330.453H657.882V338.616H668.198L653.54 306.329L631.236 355.469H619.58L649.411 289.761L649.483 289.597H657.597L683.808 347.33L683.802 347.336ZM620.435 354.923H630.878L653.54 305.001L668.877 338.792L669.035 339.174H657.331V331.011H649.744V346.791H682.941L657.234 290.161H649.835L620.435 354.929V354.923Z" fill="#6CB876" fill-opacity="0.3"/>
<path d="M667.604 297.736H702.213V314.619H693.523V306.456H683.207L697.865 338.743L720.17 289.604H731.826L701.995 355.311L701.922 355.475H693.808L667.598 297.742L667.604 297.736ZM730.971 290.149H720.528L697.865 340.071L682.528 306.281L682.371 305.899H694.075V314.061H701.661V298.282H668.465L694.172 354.911H701.57L730.971 290.143V290.149Z" fill="#6CB876" fill-opacity="0.3"/>
<path d="M64.2218 363.055H29.6124V379.939H38.3026V371.776H48.6182L33.9606 404.063L11.6557 354.923H0L29.8307 420.631L29.9035 420.794H38.0176L64.2279 363.061L64.2218 363.055ZM0.855078 355.469H11.2979L33.9606 405.391L49.2974 371.6L49.4551 371.218H37.7508V379.381H30.1642V363.601H63.3607L37.6538 420.23H30.2552L0.855078 355.469Z" fill="#6CB876" fill-opacity="0.3"/>
<path d="M48.0236 412.656H82.6331V395.773H73.9428V403.935H63.6273L78.2849 371.648L100.59 420.788H112.245L82.4148 355.081L82.342 354.917H74.2278L48.0176 412.65L48.0236 412.656ZM111.39 420.242H100.948L78.2849 370.32L62.9481 404.111L62.7904 404.493H74.4947V396.331H82.0812V412.11H48.8848L74.5917 355.481H81.9903L111.39 420.248V420.242Z" fill="#6CB876" fill-opacity="0.3"/>
<path d="M136.54 412.656H171.149V395.773H162.459V403.935H152.143L166.801 371.648L189.106 420.788H200.761L170.931 355.081L170.858 354.917H162.744L136.534 412.65L136.54 412.656ZM199.906 420.242H189.463L166.801 370.32L151.464 404.111L151.306 404.493H163.011V396.331H170.597V412.11H137.401L163.108 355.481H170.506L199.906 420.248V420.242Z" fill="#6CB876" fill-opacity="0.3"/>
<path d="M152.731 363.055H118.122V379.939H126.812V371.776H137.128L122.47 404.063L100.165 354.923H88.5095L118.34 420.631L118.413 420.794H126.527L152.737 363.061L152.731 363.055ZM89.3646 355.469H99.8075L122.47 405.391L137.807 371.6L137.965 371.218H126.26V379.381H118.674V363.601H151.87L126.163 420.23H118.765L89.3646 355.463V355.469Z" fill="#6CB876" fill-opacity="0.3"/>
<path d="M241.247 363.055H206.638V379.939H215.328V371.776H225.644L210.986 404.063L188.681 354.923H177.026L206.856 420.631L206.929 420.794H215.043L241.253 363.061L241.247 363.055ZM177.881 355.469H188.323L210.986 405.391L226.323 371.6L226.481 371.218H214.776V379.381H207.19V363.601H240.386L214.679 420.23H207.281L177.881 355.463V355.469Z" fill="#6CB876" fill-opacity="0.3"/>
<path d="M225.049 412.656H259.659V395.773H250.968V403.935H240.653L255.31 371.648L277.615 420.788H289.271L259.44 355.081L259.368 354.917H251.253L225.043 412.65L225.049 412.656ZM288.416 420.242H277.973L255.31 370.32L239.974 404.111L239.816 404.493H251.52V396.331H259.107V412.11H225.91L251.617 355.481H259.016L288.416 420.248V420.242Z" fill="#6CB876" fill-opacity="0.3"/>
<path d="M313.559 412.656H348.168V395.773H339.478V403.935H329.163L343.82 371.648L366.125 420.788H377.781L347.95 355.081L347.877 354.917H339.763L313.553 412.65L313.559 412.656ZM376.926 420.242H366.483L343.82 370.32L328.483 404.111L328.326 404.493H340.03V396.331H347.616V412.11H314.42L340.127 355.481H347.525L376.926 420.248V420.242Z" fill="#6CB876" fill-opacity="0.3"/>
<path d="M329.757 363.055H295.147V379.939H303.838V371.776H314.153L299.496 404.063L277.191 354.923H265.535L295.366 420.631L295.439 420.794H303.553L329.763 363.061L329.757 363.055ZM266.39 355.469H276.833L299.496 405.391L314.832 371.6L314.99 371.218H303.286V379.381H295.699V363.601H328.896L303.189 420.23H295.79L266.39 355.463V355.469Z" fill="#6CB876" fill-opacity="0.3"/>
<path d="M418.267 363.055H383.657V379.939H392.347V371.776H402.663L388.005 404.063L365.701 354.923H354.045L383.876 420.631L383.948 420.794H392.062L418.273 363.061L418.267 363.055ZM354.9 355.469H365.343L388.005 405.391L403.342 371.6L403.5 371.218H391.796V379.381H384.209V363.601H417.405L391.699 420.23H384.3L354.9 355.463V355.469Z" fill="#6CB876" fill-opacity="0.3"/>
<path d="M402.069 412.656H436.678V395.773H427.988V403.935H417.672L432.33 371.648L454.635 420.788H466.291L436.46 355.081L436.387 354.917H428.273L402.063 412.65L402.069 412.656ZM465.436 420.242H454.993L432.33 370.32L416.993 404.111L416.836 404.493H428.54V396.331H436.126V412.11H402.93L428.637 355.481H436.035L465.436 420.248V420.242Z" fill="#6CB876" fill-opacity="0.3"/>
<path d="M490.584 412.656H525.193V395.773H516.503V403.935H506.188L520.845 371.649L543.15 420.788H554.806L524.975 355.081L524.902 354.917H516.788L490.578 412.65L490.584 412.656ZM553.951 420.243H543.508L520.845 370.321L505.508 404.111L505.351 404.493H517.055V396.331H524.642V412.11H491.445L517.152 355.481H524.551L553.951 420.249V420.243Z" fill="#6CB876" fill-opacity="0.3"/>
<path d="M506.776 363.055H472.167V379.939H480.857V371.776H491.172L476.515 404.063L454.21 354.923H442.554L472.385 420.631L472.458 420.794H480.572L506.782 363.061L506.776 363.055ZM443.409 355.469H453.852L476.515 405.391L491.852 371.6L492.009 371.218H480.305V379.381H472.719V363.601H505.915L480.208 420.23H472.809L443.409 355.463V355.469Z" fill="#6CB876" fill-opacity="0.3"/>
<path d="M595.286 363.055H560.677V379.939H569.367V371.776H579.682L565.025 404.063L542.72 354.923H531.064L560.895 420.631L560.968 420.794H569.082L595.292 363.061L595.286 363.055ZM531.919 355.469H542.362L565.025 405.391L580.362 371.6L580.519 371.218H568.815V379.381H561.228V363.601H594.425L568.718 420.23H561.319L531.919 355.463V355.469Z" fill="#6CB876" fill-opacity="0.3"/>
<path d="M579.094 412.656H613.703V395.773H605.013V403.935H594.698L609.355 371.648L631.66 420.788H643.316L613.485 355.081L613.412 354.917H605.298L579.088 412.65L579.094 412.656ZM642.461 420.242H632.018L609.355 370.32L594.019 404.111L593.861 404.493H605.565V396.331H613.152V412.11H579.955L605.662 355.481H613.061L642.461 420.248V420.242Z" fill="#6CB876" fill-opacity="0.3"/>
<path d="M667.604 412.656H702.213V395.773H693.523V403.935H683.207L697.865 371.648L720.17 420.788H731.826L701.995 355.081L701.922 354.917H693.808L667.598 412.65L667.604 412.656ZM730.971 420.242H720.528L697.865 370.32L682.528 404.111L682.371 404.493H694.075V396.331H701.661V412.11H668.465L694.172 355.481H701.57L730.971 420.248V420.242Z" fill="#6CB876" fill-opacity="0.3"/>
<path d="M683.802 363.055H649.192V379.939H657.882V371.776H668.198L653.54 404.063L631.236 354.923H619.58L649.411 420.631L649.483 420.794H657.597L683.808 363.061L683.802 363.055ZM620.435 355.469H630.878L653.54 405.391L668.877 371.6L669.035 371.218H657.331V379.381H649.744V363.601H682.941L657.234 420.23H649.835L620.435 355.463V355.469Z" fill="#6CB876" fill-opacity="0.3"/>
<path d="M48.0236 428.375H82.6331V445.258H73.9428V437.095H63.6273L78.2849 469.382L100.59 420.242H112.245L82.4148 485.95L82.342 486.114H74.2278L48.0176 428.381L48.0236 428.375ZM111.39 420.788H100.948L78.2849 470.71L62.9481 436.919L62.7904 436.537H74.4947V444.7H82.0812V428.92H48.8848L74.5917 485.55H81.9903L111.39 420.782V420.788Z" fill="#6CB876" fill-opacity="0.3"/>
<path d="M64.2218 477.975H29.6124V461.092H38.3026V469.255H48.6182L33.9606 436.968L11.6557 486.108H0L29.8307 420.4L29.9035 420.236H38.0176L64.2279 477.969L64.2218 477.975ZM0.855078 485.562H11.2979L33.9606 435.64L49.2974 469.431L49.4551 469.813H37.7508V461.65H30.1642V477.43H63.3607L37.6538 420.8H30.2552L0.855078 485.556V485.562Z" fill="#6CB876" fill-opacity="0.3"/>
<path d="M152.731 477.975H118.122V461.092H126.812V469.255H137.128L122.47 436.968L100.165 486.108H88.5095L118.34 420.4L118.413 420.236H126.527L152.737 477.969L152.731 477.975ZM89.3646 485.562H99.8075L122.47 435.64L137.807 469.431L137.965 469.813H126.26V461.65H118.674V477.43H151.87L126.163 420.8H118.765L89.3646 485.568V485.562Z" fill="#6CB876" fill-opacity="0.3"/>
<path d="M136.54 428.375H171.149V445.258H162.459V437.095H152.143L166.801 469.382L189.106 420.242H200.761L170.931 485.95L170.858 486.114H162.744L136.534 428.381L136.54 428.375ZM199.906 420.788H189.463L166.801 470.71L151.464 436.919L151.306 436.537H163.011V444.7H170.597V428.92H137.401L163.108 485.55H170.506L199.906 420.782V420.788Z" fill="#6CB876" fill-opacity="0.3"/>
<path d="M225.049 428.375H259.659V445.258H250.968V437.095H240.653L255.31 469.382L277.615 420.242H289.271L259.44 485.95L259.368 486.114H251.253L225.043 428.381L225.049 428.375ZM288.416 420.788H277.973L255.31 470.71L239.974 436.919L239.816 436.537H251.52V444.7H259.107V428.92H225.91L251.617 485.55H259.016L288.416 420.782V420.788Z" fill="#6CB876" fill-opacity="0.3"/>
<path d="M241.247 477.975H206.638V461.092H215.328V469.255H225.644L210.986 436.968L188.681 486.108H177.025L206.856 420.4L206.929 420.236H215.043L241.253 477.969L241.247 477.975ZM177.881 485.562H188.323L210.986 435.64L226.323 469.431L226.48 469.813H214.776V461.65H207.19V477.43H240.386L214.679 420.8H207.281L177.881 485.568V485.562Z" fill="#6CB876" fill-opacity="0.3"/>
<path d="M329.757 477.975H295.147V461.092H303.838V469.255H314.153L299.496 436.968L277.191 486.108H265.535L295.366 420.4L295.438 420.236H303.553L329.763 477.969L329.757 477.975ZM266.39 485.562H276.833L299.496 435.64L314.832 469.431L314.99 469.813H303.286V461.65H295.699V477.43H328.896L303.189 420.8H295.79L266.39 485.568V485.562Z" fill="#6CB876" fill-opacity="0.3"/>
<path d="M313.559 428.375H348.168V445.258H339.478V437.095H329.163L343.82 469.382L366.125 420.242H377.781L347.95 485.95L347.877 486.114H339.763L313.553 428.381L313.559 428.375ZM376.926 420.788H366.483L343.82 470.71L328.483 436.919L328.326 436.537H340.03V444.7H347.616V428.92H314.42L340.127 485.55H347.525L376.926 420.782V420.788Z" fill="#6CB876" fill-opacity="0.3"/>
<path d="M402.069 428.375H436.678V445.258H427.988V437.095H417.672L432.33 469.382L454.635 420.242H466.291L436.46 485.95L436.387 486.114H428.273L402.063 428.381L402.069 428.375ZM465.436 420.788H454.993L432.33 470.71L416.993 436.919L416.836 436.537H428.54V444.7H436.126V428.92H402.93L428.637 485.55H436.035L465.436 420.782V420.788Z" fill="#6CB876" fill-opacity="0.3"/>
<path d="M418.267 477.975H383.657V461.092H392.347V469.255H402.663L388.005 436.968L365.701 486.108H354.045L383.876 420.4L383.948 420.236H392.062L418.273 477.969L418.267 477.975ZM354.9 485.562H365.343L388.005 435.64L403.342 469.431L403.5 469.813H391.796V461.65H384.209V477.43H417.406L391.699 420.8H384.3L354.9 485.568V485.562Z" fill="#6CB876" fill-opacity="0.3"/>
<path d="M506.776 477.975H472.167V461.092H480.857V469.255H491.173L476.515 436.968L454.21 486.108H442.555L472.385 420.4L472.458 420.236H480.572L506.782 477.969L506.776 477.975ZM443.41 485.562H453.853L476.515 435.64L491.852 469.431L492.01 469.813H480.305V461.65H472.719V477.43H505.915L480.208 420.8H472.81L443.41 485.568V485.562Z" fill="#6CB876" fill-opacity="0.3"/>
<path d="M490.584 428.375H525.193V445.258H516.503V437.095H506.188L520.845 469.382L543.15 420.242H554.806L524.975 485.95L524.902 486.114H516.788L490.578 428.381L490.584 428.375ZM553.951 420.788H543.508L520.845 470.71L505.508 436.919L505.351 436.537H517.055V444.7H524.642V428.92H491.445L517.152 485.55H524.551L553.951 420.782V420.788Z" fill="#6CB876" fill-opacity="0.3"/>
<path d="M579.094 428.375H613.703V445.258H605.013V437.095H594.698L609.355 469.382L631.66 420.242H643.316L613.485 485.95L613.412 486.114H605.298L579.088 428.381L579.094 428.375ZM642.461 420.788H632.018L609.355 470.71L594.019 436.919L593.861 436.537H605.565V444.7H613.152V428.92H579.955L605.662 485.55H613.061L642.461 420.782V420.788Z" fill="#6CB876" fill-opacity="0.3"/>
<path d="M595.286 477.975H560.676V461.092H569.367V469.255H579.682L565.025 436.968L542.72 486.108H531.064L560.895 420.4L560.968 420.236H569.082L595.292 477.969L595.286 477.975ZM531.919 485.562H542.362L565.025 435.64L580.361 469.431L580.519 469.813H568.815V461.65H561.228V477.43H594.425L568.718 420.8H561.319L531.919 485.568V485.562Z" fill="#6CB876" fill-opacity="0.3"/>
<path d="M683.802 477.975H649.192V461.092H657.882V469.255H668.198L653.54 436.968L631.236 486.108H619.58L649.411 420.4L649.483 420.236H657.597L683.808 477.969L683.802 477.975ZM620.435 485.562H630.878L653.54 435.64L668.877 469.431L669.035 469.813H657.331V461.65H649.744V477.43H682.941L657.234 420.8H649.835L620.435 485.568V485.562Z" fill="#6CB876" fill-opacity="0.3"/>
<path d="M667.604 428.375H702.213V445.258H693.523V437.095H683.207L697.865 469.382L720.17 420.242H731.826L701.995 485.95L701.922 486.114H693.808L667.598 428.381L667.604 428.375ZM730.971 420.788H720.528L697.865 470.71L682.528 436.919L682.371 436.537H694.075V444.7H701.661V428.92H668.465L694.172 485.55H701.57L730.971 420.782V420.788Z" fill="#6CB876" fill-opacity="0.3"/>
<path d="M772.396 -28.8616H737.787V-11.9784H746.477V-20.141H756.792L742.135 12.1458L719.83 -37H708.174L738.005 28.7076L738.078 28.8713H746.192L772.396 -28.8616ZM709.029 -36.4481H719.472L742.135 13.4739L757.472 -20.3169L757.629 -20.6989H745.925V-12.5363H738.339V-28.3097H771.535L745.828 28.3195H738.43L709.029 -36.4481Z" fill="#6CB876" fill-opacity="0.3"/>
<path d="M756.198 20.7329H790.808V3.84969H782.117V12.0124H771.802L786.459 -20.2744L808.764 28.8653H820.42L790.595 -36.8363L790.523 -37H782.408L756.198 20.7329ZM819.565 28.3195H809.122L786.459 -21.6025L771.123 12.1882L770.965 12.5703H782.669V4.40762H790.256V20.1871H757.059L782.766 -36.4481H790.165L819.565 28.3195Z" fill="#6CB876" fill-opacity="0.3"/>
<path d="M844.714 20.739H879.324V3.85576H870.633V12.0184H860.318L874.975 -20.2684L897.28 28.8713H908.936L879.105 -36.8363L879.033 -37H870.918L844.708 20.7329L844.714 20.739ZM908.081 28.3256H897.638L874.975 -21.5965L859.639 12.1943L859.481 12.5763H871.185V4.41368H878.772V20.1932H845.575L871.276 -36.4481H878.675L908.075 28.3195L908.081 28.3256Z" fill="#6CB876" fill-opacity="0.3"/>
<path d="M860.906 -28.8616H826.297V-11.9784H834.987V-20.141H845.302L830.645 12.1458L808.34 -37H796.684L826.515 28.7076L826.588 28.8713H834.702L860.906 -28.8616ZM797.545 -36.4481H807.988L830.651 13.4739L845.988 -20.3169L846.145 -20.6989H834.441V-12.5363H826.855V-28.3097H860.051L834.344 28.3195H826.945L797.545 -36.4481Z" fill="#6CB876" fill-opacity="0.3"/>
<path d="M949.422 -28.8616H914.812V-11.9784H923.502V-20.141H933.818L919.16 12.1458L896.849 -37H885.194L915.024 28.7076L915.097 28.8713H923.211L949.422 -28.8616ZM886.055 -36.4481H896.498L919.16 13.4739L934.497 -20.3169L934.655 -20.6989H922.951V-12.5363H915.364V-28.3097H948.56L922.854 28.3195H915.455L886.055 -36.4481Z" fill="#6CB876" fill-opacity="0.3"/>
<path d="M933.224 20.7329H967.833V3.84969H959.143V12.0124H948.827L963.485 -20.2744L985.79 28.8653H997.445L967.615 -36.8363L967.542 -37H959.428L933.218 20.7329H933.224ZM996.59 28.3195H986.148L963.485 -21.6025L948.148 12.1882L947.99 12.5703H959.695V4.40762H967.281V20.1871H934.085L959.786 -36.4481H967.184L996.584 28.3195H996.59Z" fill="#6CB876" fill-opacity="0.3"/>
<path d="M1021.73 20.739H1056.34V3.85576H1047.65V12.0184H1037.34L1051.99 -20.2684L1074.3 28.8713H1085.96L1056.12 -36.8363L1056.05 -37H1047.94L1021.73 20.7329L1021.73 20.739ZM1085.1 28.3256H1074.66L1051.99 -21.5965L1036.66 12.1943L1036.5 12.5763H1048.2V4.41368H1055.79V20.1932H1022.59L1048.3 -36.4481H1055.69L1085.09 28.3195L1085.1 28.3256Z" fill="#6CB876" fill-opacity="0.3"/>
<path d="M1037.93 -28.8616H1003.32V-11.9784H1012.01V-20.141H1022.33L1007.67 12.1458L985.359 -37H973.703L1003.53 28.7076L1003.61 28.8713H1011.72L1037.93 -28.8616ZM974.565 -36.4481H985.007L1007.67 13.4739L1023.01 -20.3169L1023.16 -20.6989H1011.46V-12.5363H1003.87V-28.3097H1037.07L1011.36 28.3195H1003.96L974.565 -36.4481Z" fill="#6CB876" fill-opacity="0.3"/>
<path d="M1126.44 -28.8616H1091.83V-11.9784H1100.52V-20.141H1110.84L1096.18 12.1458L1073.87 -37H1062.22L1092.05 28.7076L1092.12 28.8713H1100.24L1126.45 -28.8616H1126.44ZM1063.07 -36.4481H1073.52L1096.18 13.4739L1111.52 -20.3169L1111.67 -20.6989H1099.97V-12.5363H1092.38V-28.3097H1125.58L1099.87 28.3195H1092.47L1063.07 -36.4481Z" fill="#6CB876" fill-opacity="0.3"/>
<path d="M1110.24 20.7329H1144.85V3.84969H1136.16V12.0124H1125.85L1140.5 -20.2744L1162.81 28.8653H1174.46L1144.64 -36.8363L1144.57 -37H1136.45L1110.24 20.7329ZM1173.61 28.3195H1163.17L1140.5 -21.6025L1125.17 12.1882L1125.01 12.5703H1136.71V4.40762H1144.3V20.1871H1111.1L1136.81 -36.4481H1144.21L1173.61 28.3195Z" fill="#6CB876" fill-opacity="0.3"/>
<path d="M1198.76 20.739H1233.37V3.85576H1224.68V12.0184H1214.36L1229.02 -20.2684L1251.32 28.8713H1262.98L1233.15 -36.8363L1233.08 -37H1224.96L1198.75 20.7329L1198.76 20.739ZM1262.13 28.3256H1251.68L1229.02 -21.5965L1213.68 12.1943L1213.53 12.5763H1225.23V4.41368H1232.82V20.1932H1199.62L1225.32 -36.4481H1232.72L1262.12 28.3195L1262.13 28.3256Z" fill="#6CB876" fill-opacity="0.3"/>
<path d="M1214.95 -28.8616H1180.34V-11.9784H1189.03V-20.141H1199.35L1184.69 12.1458L1162.38 -37H1150.73L1180.56 28.7076L1180.63 28.8713H1188.75L1214.96 -28.8616H1214.95ZM1151.59 -36.4481H1162.03L1184.7 13.4739L1200.03 -20.3169L1200.19 -20.6989H1188.49V-12.5363H1180.9V-28.3097H1214.1L1188.39 28.3195H1180.99L1151.59 -36.4481Z" fill="#6CB876" fill-opacity="0.3"/>
<path d="M1303.46 -28.8616H1268.85V-11.9784H1277.54V-20.141H1287.86L1273.2 12.1458L1250.89 -37H1239.24L1269.07 28.7076L1269.14 28.8713H1277.26L1303.47 -28.8616H1303.46ZM1240.1 -36.4481H1250.54L1273.21 13.4739L1288.54 -20.3169L1288.7 -20.6989H1277V-12.5363H1269.41V-28.3097H1302.61L1276.9 28.3195H1269.5L1240.1 -36.4481Z" fill="#6CB876" fill-opacity="0.3"/>
<path d="M1287.27 20.7329H1321.88V3.84969H1313.19V12.0124H1302.87L1317.53 -20.2744L1339.83 28.8653H1351.49L1321.66 -36.8363L1321.59 -37H1313.47L1287.26 20.7329H1287.27ZM1350.64 28.3195H1340.19L1317.53 -21.6025L1302.19 12.1882L1302.04 12.5703H1313.74V4.40762H1321.33V20.1871H1288.13L1313.83 -36.4481H1321.23L1350.63 28.3195H1350.64Z" fill="#6CB876" fill-opacity="0.3"/>
<path d="M1375.78 20.739H1410.39V3.85576H1401.7V12.0184H1391.38L1406.04 -20.2684L1428.34 28.8713H1440L1410.17 -36.8363L1410.1 -37H1401.98L1375.77 20.7329L1375.78 20.739ZM1439.15 28.3256H1428.7L1406.04 -21.5965L1390.7 12.1943L1390.55 12.5763H1402.25V4.41368H1409.84V20.1932H1376.64L1402.34 -36.4481H1409.74L1439.14 28.3195L1439.15 28.3256Z" fill="#6CB876" fill-opacity="0.3"/>
<path d="M1391.98 -28.8616H1357.37V-11.9784H1366.06V-20.141H1376.37L1361.72 12.1458L1339.4 -37H1327.75L1357.58 28.7076L1357.65 28.8713H1365.77L1391.98 -28.8616ZM1328.61 -36.4481H1339.05L1361.72 13.4739L1377.05 -20.3169L1377.21 -20.6989H1365.51V-12.5363H1357.92V-28.3097H1391.12L1365.41 28.3195H1358.01L1328.61 -36.4481Z" fill="#6CB876" fill-opacity="0.3"/>
<path d="M756.198 36.4579H790.808V53.3411H782.118V45.1785H771.802L786.46 77.4653L808.764 28.3256H820.42L790.589 94.0332L790.517 94.1969H782.403L756.192 36.464L756.198 36.4579ZM819.565 28.8714H809.122L786.46 78.7934L771.123 45.0026L770.965 44.6206H782.669V52.7832H790.256V37.0037H757.059L782.766 93.6329H790.165L819.565 28.8653V28.8714Z" fill="#6CB876" fill-opacity="0.3"/>
<path d="M772.396 86.0585H737.787V69.1752H746.477V77.3379H756.792L742.135 45.0511L719.83 94.1908H708.174L738.005 28.4832L738.078 28.3195H746.192L772.402 86.0524L772.396 86.0585ZM709.029 93.6389H719.472L742.135 43.7169L757.472 77.5077L757.629 77.8897H745.925V69.7271H738.339V85.5066H771.535L745.828 28.8774H738.43L709.029 93.6389Z" fill="#6CB876" fill-opacity="0.3"/>
<path d="M860.906 86.0524H826.297V69.1691H834.987V77.3318H845.302L830.645 45.045L808.34 94.1847H796.684L826.515 28.4771L826.588 28.3134H834.702L860.912 86.0463L860.906 86.0524ZM797.539 93.6389H807.982L830.645 43.7169L845.982 77.5076L846.139 77.8897H834.435V69.727H826.848V85.5066H860.045L834.338 28.8773H826.939L797.539 93.645V93.6389Z" fill="#6CB876" fill-opacity="0.3"/>
<path d="M844.714 36.4578H879.324V53.341H870.633V45.1784H860.318L874.975 77.4651L897.28 28.3254H908.936L879.105 94.033L879.033 94.1968H870.918L844.708 36.4638L844.714 36.4578ZM908.081 28.8712H897.638L874.975 78.7932L859.639 45.0025L859.481 44.6204H871.185V52.7831H878.772V37.0036H845.575L871.282 93.6328H878.681L908.081 28.8652V28.8712Z" fill="#6CB876" fill-opacity="0.3"/>
<path d="M933.224 36.4579H967.834V53.3411H959.144V45.1785H948.828L963.486 77.4653L985.79 28.3256H997.446L967.615 94.0332L967.543 94.1969H959.429L933.218 36.464L933.224 36.4579ZM996.591 28.8714H986.148L963.486 78.7934L948.149 45.0026L947.991 44.6206H959.695V52.7832H967.282V37.0037H934.085L959.792 93.6329H967.191L996.591 28.8653V28.8714Z" fill="#6CB876" fill-opacity="0.3"/>
<path d="M949.422 86.0585H914.812V69.1752H923.503V77.3379H933.818L919.161 45.0511L896.856 94.1908H885.2L915.031 28.4832L915.103 28.3195H923.218L949.428 86.0524L949.422 86.0585ZM886.055 93.645H896.498L919.161 43.723L934.497 77.5137L934.655 77.8958H922.951V69.7331H915.364V85.5127H948.561L922.854 28.8834H915.455L886.055 93.6511V93.645Z" fill="#6CB876" fill-opacity="0.3"/>
<path d="M1037.93 86.0524H1003.32V69.1691H1012.01V77.3318H1022.33L1007.67 45.045L985.365 94.1847H973.709L1003.54 28.4771L1003.61 28.3134H1011.73L1037.94 86.0463L1037.93 86.0524ZM974.564 93.6389H985.007L1007.67 43.7169L1023.01 77.5076L1023.16 77.8897H1011.46V69.727H1003.87V85.5066H1037.07L1011.36 28.8773H1003.96L974.564 93.645V93.6389Z" fill="#6CB876" fill-opacity="0.3"/>
<path d="M1021.73 36.4578H1056.34V53.341H1047.65V45.1784H1037.34L1051.99 77.4651L1074.3 28.3254H1085.96L1056.12 94.033L1056.05 94.1968H1047.94L1021.73 36.4638L1021.73 36.4578ZM1085.1 28.8712H1074.66L1051.99 78.7932L1036.66 45.0025L1036.5 44.6204H1048.2V52.7831H1055.79V37.0036H1022.59L1048.3 93.6328H1055.7L1085.1 28.8652V28.8712Z" fill="#6CB876" fill-opacity="0.3"/>
<path d="M1110.24 36.4579H1144.85V53.3411H1136.16V45.1785H1125.85L1140.5 77.4653L1162.81 28.3256H1174.46L1144.63 94.0332L1144.56 94.1969H1136.45L1110.24 36.464L1110.24 36.4579ZM1173.61 28.8714H1163.17L1140.5 78.7934L1125.17 45.0026L1125.01 44.6206H1136.71V52.7832H1144.3V37.0037H1111.1L1136.81 93.6329H1144.21L1173.61 28.8653V28.8714Z" fill="#6CB876" fill-opacity="0.3"/>
<path d="M1126.44 86.0585H1091.83V69.1752H1100.52V77.3379H1110.84L1096.18 45.0511L1073.87 94.1908H1062.22L1092.05 28.4832L1092.12 28.3195H1100.24L1126.45 86.0524L1126.44 86.0585ZM1063.07 93.645H1073.52L1096.18 43.723L1111.52 77.5137L1111.67 77.8958H1099.97V69.7331H1092.38V85.5127H1125.58L1099.87 28.8834H1092.47L1063.07 93.6511V93.645Z" fill="#6CB876" fill-opacity="0.3"/>
<path d="M1214.95 86.0524H1180.34V69.1691H1189.03V77.3318H1199.35L1184.69 45.045L1162.38 94.1847H1150.73L1180.56 28.4771L1180.63 28.3134H1188.75L1214.96 86.0463L1214.95 86.0524ZM1151.58 93.6389H1162.03L1184.69 43.7169L1200.03 77.5076L1200.18 77.8897H1188.48V69.727H1180.89V85.5066H1214.09L1188.38 28.8773H1180.98L1151.58 93.645V93.6389Z" fill="#6CB876" fill-opacity="0.3"/>
<path d="M1198.76 36.4578H1233.37V53.341H1224.68V45.1784H1214.36L1229.02 77.4651L1251.32 28.3254H1262.98L1233.15 94.033L1233.08 94.1968H1224.96L1198.75 36.4638L1198.76 36.4578ZM1262.13 28.8712H1251.68L1229.02 78.7932L1213.68 45.0025L1213.53 44.6204H1225.23V52.7831H1232.82V37.0036H1199.62L1225.33 93.6328H1232.73L1262.13 28.8652V28.8712Z" fill="#6CB876" fill-opacity="0.3"/>
<path d="M1287.27 36.4579H1321.88V53.3411H1313.19V45.1785H1302.87L1317.53 77.4653L1339.83 28.3256H1351.49L1321.66 94.0332L1321.59 94.1969H1313.47L1287.26 36.464L1287.27 36.4579ZM1350.64 28.8714H1340.19L1317.53 78.7934L1302.19 45.0026L1302.04 44.6206H1313.74V52.7832H1321.33V37.0037H1288.13L1313.84 93.6329H1321.23L1350.64 28.8653V28.8714Z" fill="#6CB876" fill-opacity="0.3"/>
<path d="M1303.46 86.0585H1268.85V69.1752H1277.54V77.3379H1287.86L1273.2 45.0511L1250.89 94.1908H1239.24L1269.07 28.4832L1269.14 28.3195H1277.26L1303.47 86.0524L1303.46 86.0585ZM1240.09 93.645H1250.54L1273.2 43.723L1288.54 77.5137L1288.69 77.8958H1276.99V69.7331H1269.4V85.5127H1302.6L1276.89 28.8834H1269.49L1240.09 93.6511V93.645Z" fill="#6CB876" fill-opacity="0.3"/>
<path d="M1391.98 86.0524H1357.37V69.1691H1366.06V77.3318H1376.37L1361.71 45.045L1339.41 94.1847H1327.75L1357.58 28.4771L1357.66 28.3134H1365.77L1391.98 86.0463L1391.98 86.0524ZM1328.61 93.6389H1339.05L1361.71 43.7169L1377.05 77.5076L1377.21 77.8897H1365.5V69.727H1357.92V85.5066H1391.11L1365.41 28.8773H1358.01L1328.61 93.645V93.6389Z" fill="#6CB876" fill-opacity="0.3"/>
<path d="M1375.78 36.4578H1410.39V53.341H1401.7V45.1784H1391.38L1406.04 77.4651L1428.34 28.3254H1440L1410.17 94.033L1410.1 94.1968H1401.98L1375.77 36.4638L1375.78 36.4578ZM1439.14 28.8712H1428.7L1406.04 78.7932L1390.7 45.0025L1390.54 44.6204H1402.25V52.7831H1409.84V37.0036H1376.64L1402.35 93.6328H1409.74L1439.14 28.8652V28.8712Z" fill="#6CB876" fill-opacity="0.3"/>
<path d="M772.396 101.777H737.787V118.661H746.477V110.498H756.792L742.135 142.785L719.83 93.6451H708.174L738.005 159.353L738.078 159.516H746.192L772.402 101.784L772.396 101.777ZM709.029 94.1909H719.472L742.135 144.113L757.472 110.322L757.629 109.94H745.925V118.103H738.339V102.323H771.535L745.828 158.952H738.43L709.029 94.1909Z" fill="#6CB876" fill-opacity="0.3"/>
<path d="M756.198 151.378H790.808V134.495H782.118V142.657H771.802L786.46 110.371L808.764 159.51H820.42L790.589 93.8028L790.517 93.639H782.403L756.192 151.372L756.198 151.378ZM819.565 158.965H809.122L786.46 109.043L771.123 142.833L770.965 143.215H782.669V135.053H790.256V150.832H757.059L782.766 94.203H790.165L819.565 158.971V158.965Z" fill="#6CB876" fill-opacity="0.3"/>
<path d="M844.714 151.378H879.324V134.495H870.633V142.657H860.318L874.975 110.371L897.28 159.51H908.936L879.105 93.8028L879.033 93.639H870.918L844.708 151.372L844.714 151.378ZM908.081 158.965H897.638L874.975 109.043L859.639 142.833L859.481 143.215H871.185V135.053H878.772V150.832H845.575L871.282 94.203H878.681L908.081 158.971V158.965Z" fill="#6CB876" fill-opacity="0.3"/>
<path d="M860.906 101.777H826.297V118.661H834.987V110.498H845.302L830.645 142.785L808.34 93.6451H796.684L826.515 159.353L826.588 159.516H834.702L860.912 101.784L860.906 101.777ZM797.539 94.1909H807.982L830.645 144.113L845.982 110.322L846.139 109.94H834.435V118.103H826.849V102.323H860.045L834.338 158.952H826.94L797.539 94.1849V94.1909Z" fill="#6CB876" fill-opacity="0.3"/>
<path d="M949.422 101.777H914.813V118.661H923.503V110.498H933.819L919.161 142.785L896.856 93.6451H885.2L915.031 159.353L915.104 159.516H923.218L949.428 101.784L949.422 101.777ZM886.056 94.1909H896.498L919.161 144.113L934.498 110.322L934.655 109.94H922.951V118.103H915.365V102.323H948.561L922.854 158.952H915.456L886.056 94.1849V94.1909Z" fill="#6CB876" fill-opacity="0.3"/>
<path d="M933.224 151.378H967.834V134.495H959.144V142.657H948.828L963.486 110.371L985.791 159.51H997.446L967.616 93.8028L967.543 93.639H959.429L933.218 151.372L933.224 151.378ZM996.591 158.965H986.148L963.486 109.043L948.149 142.833L947.991 143.215H959.695V135.053H967.282V150.832H934.086L959.793 94.203H967.191L996.591 158.971V158.965Z" fill="#6CB876" fill-opacity="0.3"/>
<path d="M1021.73 151.378H1056.34V134.495H1047.65V142.657H1037.34L1051.99 110.371L1074.3 159.51H1085.96L1056.12 93.8028L1056.05 93.639H1047.94L1021.73 151.372L1021.73 151.378ZM1085.1 158.965H1074.66L1051.99 109.043L1036.66 142.833L1036.5 143.215H1048.2V135.053H1055.79V150.832H1022.59L1048.3 94.203H1055.7L1085.1 158.971V158.965Z" fill="#6CB876" fill-opacity="0.3"/>
<path d="M1037.93 101.777H1003.32V118.661H1012.01V110.498H1022.33L1007.67 142.785L985.365 93.6451H973.709L1003.54 159.353L1003.61 159.516H1011.73L1037.94 101.784L1037.93 101.777ZM974.564 94.1909H985.007L1007.67 144.113L1023.01 110.322L1023.16 109.94H1011.46V118.103H1003.87V102.323H1037.07L1011.36 158.952H1003.96L974.564 94.1849V94.1909Z" fill="#6CB876" fill-opacity="0.3"/>
<path d="M1126.44 101.777H1091.83V118.661H1100.52V110.498H1110.84L1096.18 142.785L1073.87 93.6451H1062.22L1092.05 159.353L1092.12 159.516H1100.24L1126.45 101.784L1126.44 101.777ZM1063.07 94.1909H1073.52L1096.18 144.113L1111.52 110.322L1111.67 109.94H1099.97V118.103H1092.38V102.323H1125.58L1099.87 158.952H1092.47L1063.07 94.1849V94.1909Z" fill="#6CB876" fill-opacity="0.3"/>
<path d="M1110.24 151.378H1144.85V134.495H1136.16V142.657H1125.85L1140.5 110.371L1162.81 159.51H1174.46L1144.63 93.8028L1144.56 93.639H1136.45L1110.24 151.372L1110.24 151.378ZM1173.61 158.965H1163.17L1140.5 109.043L1125.17 142.833L1125.01 143.215H1136.71V135.053H1144.3V150.832H1111.1L1136.81 94.203H1144.21L1173.61 158.971V158.965Z" fill="#6CB876" fill-opacity="0.3"/>
<path d="M1198.76 151.378H1233.37V134.495H1224.68V142.657H1214.36L1229.02 110.371L1251.32 159.51H1262.98L1233.15 93.8028L1233.08 93.639H1224.96L1198.75 151.372L1198.76 151.378ZM1262.13 158.965H1251.68L1229.02 109.043L1213.68 142.833L1213.53 143.215H1225.23V135.053H1232.82V150.832H1199.62L1225.33 94.203H1232.73L1262.13 158.971V158.965Z" fill="#6CB876" fill-opacity="0.3"/>
<path d="M1214.95 101.777H1180.34V118.661H1189.03V110.498H1199.35L1184.69 142.785L1162.38 93.6451H1150.73L1180.56 159.353L1180.63 159.516H1188.75L1214.96 101.784L1214.95 101.777ZM1151.58 94.1909H1162.03L1184.69 144.113L1200.03 110.322L1200.18 109.94H1188.48V118.103H1180.89V102.323H1214.09L1188.38 158.952H1180.98L1151.58 94.1849V94.1909Z" fill="#6CB876" fill-opacity="0.3"/>
<path d="M1303.46 101.777H1268.85V118.661H1277.54V110.498H1287.86L1273.2 142.785L1250.89 93.6451H1239.24L1269.07 159.353L1269.14 159.516H1277.26L1303.47 101.784L1303.46 101.777ZM1240.09 94.1909H1250.54L1273.2 144.113L1288.54 110.322L1288.69 109.94H1276.99V118.103H1269.4V102.323H1302.6L1276.89 158.952H1269.49L1240.09 94.1849V94.1909Z" fill="#6CB876" fill-opacity="0.3"/>
<path d="M1287.27 151.378H1321.88V134.495H1313.19V142.657H1302.87L1317.53 110.371L1339.83 159.51H1351.49L1321.66 93.8028L1321.59 93.639H1313.47L1287.26 151.372L1287.27 151.378ZM1350.64 158.965H1340.19L1317.53 109.043L1302.19 142.833L1302.04 143.215H1313.74V135.053H1321.33V150.832H1288.13L1313.84 94.203H1321.23L1350.64 158.971V158.965Z" fill="#6CB876" fill-opacity="0.3"/>
<path d="M1375.78 151.378H1410.39V134.495H1401.7V142.657H1391.38L1406.04 110.371L1428.34 159.51H1440L1410.17 93.8028L1410.1 93.639H1401.98L1375.77 151.372L1375.78 151.378ZM1439.14 158.965H1428.7L1406.04 109.043L1390.7 142.833L1390.54 143.215H1402.25V135.053H1409.84V150.832H1376.64L1402.35 94.203H1409.74L1439.14 158.971V158.965Z" fill="#6CB876" fill-opacity="0.3"/>
<path d="M1391.98 101.777H1357.37V118.661H1366.06V110.498H1376.37L1361.71 142.785L1339.41 93.6451H1327.75L1357.58 159.353L1357.66 159.516H1365.77L1391.98 101.784L1391.98 101.777ZM1328.61 94.1909H1339.05L1361.71 144.113L1377.05 110.322L1377.21 109.94H1365.5V118.103H1357.92V102.323H1391.11L1365.41 158.952H1358.01L1328.61 94.1849V94.1909Z" fill="#6CB876" fill-opacity="0.3"/>
<path d="M756.198 167.097H790.808V183.98H782.118V175.817H771.802L786.46 208.104L808.764 158.964H820.42L790.589 224.672L790.517 224.836H782.403L756.192 167.103L756.198 167.097ZM819.565 159.51H809.122L786.46 209.432L771.123 175.642L770.965 175.259H782.669V183.422H790.256V167.643H757.059L782.766 224.272H790.165L819.565 159.504V159.51Z" fill="#6CB876" fill-opacity="0.3"/>
<path d="M772.396 216.697H737.787V199.814H746.477V207.977H756.792L742.135 175.69L719.83 224.83H708.174L738.005 159.122L738.078 158.958H746.192L772.402 216.691L772.396 216.697ZM709.029 224.278H719.472L742.135 174.356L757.472 208.147L757.629 208.529H745.925V200.366H738.339V216.146H771.535L745.828 159.516H738.43L709.029 224.278Z" fill="#6CB876" fill-opacity="0.3"/>
<path d="M860.906 216.697H826.297V199.814H834.987V207.977H845.302L830.645 175.69L808.34 224.83H796.684L826.515 159.122L826.588 158.958H834.702L860.912 216.691L860.906 216.697ZM797.539 224.284H807.982L830.645 174.362L845.982 208.153L846.139 208.535H834.435V200.372H826.848V216.152H860.045L834.338 159.522H826.939L797.539 224.29V224.284Z" fill="#6CB876" fill-opacity="0.3"/>
<path d="M844.714 167.097H879.324V183.98H870.633V175.817H860.318L874.975 208.104L897.28 158.964H908.936L879.105 224.672L879.033 224.836H870.918L844.708 167.103L844.714 167.097ZM908.081 159.51H897.638L874.975 209.432L859.639 175.642L859.481 175.259H871.185V183.422H878.772V167.643H845.575L871.282 224.272H878.681L908.081 159.504V159.51Z" fill="#6CB876" fill-opacity="0.3"/>
<path d="M933.224 167.097H967.834V183.98H959.144V175.817H948.828L963.486 208.104L985.79 158.964H997.446L967.615 224.672L967.543 224.836H959.429L933.218 167.103L933.224 167.097ZM996.591 159.51H986.148L963.486 209.432L948.149 175.642L947.991 175.259H959.695V183.422H967.282V167.643H934.085L959.792 224.272H967.191L996.591 159.504V159.51Z" fill="#6CB876" fill-opacity="0.3"/>
<path d="M949.422 216.697H914.812V199.814H923.503V207.977H933.818L919.161 175.69L896.856 224.83H885.2L915.031 159.122L915.103 158.958H923.218L949.428 216.691L949.422 216.697ZM886.055 224.284H896.498L919.161 174.362L934.497 208.153L934.655 208.535H922.951V200.372H915.364V216.152H948.561L922.854 159.522H915.455L886.055 224.29V224.284Z" fill="#6CB876" fill-opacity="0.3"/>
<path d="M1037.93 216.697H1003.32V199.814H1012.01V207.977H1022.33L1007.67 175.69L985.365 224.83H973.709L1003.54 159.122L1003.61 158.958H1011.73L1037.94 216.691L1037.93 216.697ZM974.564 224.284H985.007L1007.67 174.362L1023.01 208.153L1023.16 208.535H1011.46V200.372H1003.87V216.152H1037.07L1011.36 159.522H1003.96L974.564 224.29V224.284Z" fill="#6CB876" fill-opacity="0.3"/>
<path d="M1021.73 167.097H1056.34V183.98H1047.65V175.817H1037.34L1051.99 208.104L1074.3 158.964H1085.96L1056.12 224.672L1056.05 224.836H1047.94L1021.73 167.103L1021.73 167.097ZM1085.1 159.51H1074.66L1051.99 209.432L1036.66 175.642L1036.5 175.259H1048.2V183.422H1055.79V167.643H1022.59L1048.3 224.272H1055.7L1085.1 159.504V159.51Z" fill="#6CB876" fill-opacity="0.3"/>
<path d="M1110.24 167.097H1144.85V183.98H1136.16V175.817H1125.85L1140.5 208.104L1162.81 158.964H1174.46L1144.63 224.672L1144.56 224.836H1136.45L1110.24 167.103L1110.24 167.097ZM1173.61 159.51H1163.17L1140.5 209.432L1125.17 175.642L1125.01 175.259H1136.71V183.422H1144.3V167.643H1111.1L1136.81 224.272H1144.21L1173.61 159.504V159.51Z" fill="#6CB876" fill-opacity="0.3"/>
<path d="M1126.44 216.697H1091.83V199.814H1100.52V207.977H1110.84L1096.18 175.69L1073.87 224.83H1062.22L1092.05 159.122L1092.12 158.958H1100.24L1126.45 216.691L1126.44 216.697ZM1063.07 224.284H1073.52L1096.18 174.362L1111.52 208.153L1111.67 208.535H1099.97V200.372H1092.38V216.152H1125.58L1099.87 159.522H1092.47L1063.07 224.29V224.284Z" fill="#6CB876" fill-opacity="0.3"/>
<path d="M1214.95 216.697H1180.34V199.814H1189.03V207.977H1199.35L1184.69 175.69L1162.38 224.83H1150.73L1180.56 159.122L1180.63 158.958H1188.75L1214.96 216.691L1214.95 216.697ZM1151.58 224.284H1162.03L1184.69 174.362L1200.03 208.153L1200.18 208.535H1188.48V200.372H1180.89V216.152H1214.09L1188.38 159.522H1180.98L1151.58 224.29V224.284Z" fill="#6CB876" fill-opacity="0.3"/>
<path d="M1198.76 167.097H1233.37V183.98H1224.68V175.817H1214.36L1229.02 208.104L1251.32 158.964H1262.98L1233.15 224.672L1233.08 224.836H1224.96L1198.75 167.103L1198.76 167.097ZM1262.13 159.51H1251.68L1229.02 209.432L1213.68 175.642L1213.53 175.259H1225.23V183.422H1232.82V167.643H1199.62L1225.33 224.272H1232.73L1262.13 159.504V159.51Z" fill="#6CB876" fill-opacity="0.3"/>
<path d="M1287.27 167.097H1321.88V183.98H1313.19V175.817H1302.87L1317.53 208.104L1339.83 158.964H1351.49L1321.66 224.672L1321.59 224.836H1313.47L1287.26 167.103L1287.27 167.097ZM1350.64 159.51H1340.19L1317.53 209.432L1302.19 175.642L1302.04 175.259H1313.74V183.422H1321.33V167.643H1288.13L1313.84 224.272H1321.23L1350.64 159.504V159.51Z" fill="#6CB876" fill-opacity="0.3"/>
<path d="M1303.46 216.697H1268.85V199.814H1277.54V207.977H1287.86L1273.2 175.69L1250.89 224.83H1239.24L1269.07 159.122L1269.14 158.958H1277.26L1303.47 216.691L1303.46 216.697ZM1240.09 224.284H1250.54L1273.2 174.362L1288.54 208.153L1288.69 208.535H1276.99V200.372H1269.4V216.152H1302.6L1276.89 159.522H1269.49L1240.09 224.29V224.284Z" fill="#6CB876" fill-opacity="0.3"/>
<path d="M1391.98 216.697H1357.37V199.814H1366.06V207.977H1376.37L1361.71 175.69L1339.41 224.83H1327.75L1357.58 159.122L1357.66 158.958H1365.77L1391.98 216.691L1391.98 216.697ZM1328.61 224.284H1339.05L1361.71 174.362L1377.05 208.153L1377.21 208.535H1365.5V200.372H1357.92V216.152H1391.11L1365.41 159.522H1358.01L1328.61 224.29V224.284Z" fill="#6CB876" fill-opacity="0.3"/>
<path d="M1375.78 167.097H1410.39V183.98H1401.7V175.817H1391.38L1406.04 208.104L1428.34 158.964H1440L1410.17 224.672L1410.1 224.836H1401.98L1375.77 167.103L1375.78 167.097ZM1439.14 159.51H1428.7L1406.04 209.432L1390.7 175.642L1390.54 175.259H1402.25V183.422H1409.84V167.643H1376.64L1402.35 224.272H1409.74L1439.14 159.504V159.51Z" fill="#6CB876" fill-opacity="0.3"/>
<path d="M772.396 232.416H737.787V249.3H746.477V241.137H756.792L742.135 273.424L719.83 224.284H708.174L738.005 289.992L738.078 290.155H746.192L772.402 232.422L772.396 232.416ZM709.029 224.83H719.472L742.135 274.752L757.472 240.961L757.629 240.579H745.925V248.742H738.339V232.962H771.535L745.828 289.591H738.43L709.029 224.83Z" fill="#6CB876" fill-opacity="0.3"/>
<path d="M756.198 282.017H790.808V265.134H782.118V273.296H771.802L786.46 241.01L808.764 290.149H820.42L790.589 224.442L790.517 224.278H782.403L756.192 282.011L756.198 282.017ZM819.565 289.603H809.122L786.46 239.681L771.123 273.472L770.965 273.854H782.669V265.692H790.256V281.471H757.059L782.766 224.842H790.165L819.565 289.61V289.603Z" fill="#6CB876" fill-opacity="0.3"/>
<path d="M844.714 282.017H879.324V265.134H870.633V273.296H860.318L874.975 241.01L897.28 290.149H908.936L879.105 224.442L879.033 224.278H870.918L844.708 282.011L844.714 282.017ZM908.081 289.603H897.638L874.975 239.681L859.639 273.472L859.481 273.854H871.185V265.692H878.772V281.471H845.575L871.282 224.842H878.681L908.081 289.61V289.603Z" fill="#6CB876" fill-opacity="0.3"/>
<path d="M860.906 232.416H826.297V249.3H834.987V241.137H845.302L830.645 273.424L808.34 224.284H796.684L826.515 289.992L826.588 290.155H834.702L860.912 232.422L860.906 232.416ZM797.539 224.83H807.982L830.645 274.752L845.982 240.961L846.139 240.579H834.435V248.742H826.849V232.962H860.045L834.338 289.591H826.94L797.539 224.824V224.83Z" fill="#6CB876" fill-opacity="0.3"/>
<path d="M949.422 232.416H914.813V249.3H923.503V241.137H933.819L919.161 273.424L896.856 224.284H885.2L915.031 289.992L915.104 290.155H923.218L949.428 232.422L949.422 232.416ZM886.056 224.83H896.498L919.161 274.752L934.498 240.961L934.655 240.579H922.951V248.742H915.365V232.962H948.561L922.854 289.591H915.456L886.056 224.824V224.83Z" fill="#6CB876" fill-opacity="0.3"/>
<path d="M933.224 282.017H967.834V265.134H959.144V273.296H948.828L963.486 241.01L985.791 290.149H997.446L967.616 224.442L967.543 224.278H959.429L933.218 282.011L933.224 282.017ZM996.591 289.603H986.148L963.486 239.681L948.149 273.472L947.991 273.854H959.695V265.692H967.282V281.471H934.086L959.793 224.842H967.191L996.591 289.61V289.603Z" fill="#6CB876" fill-opacity="0.3"/>
<path d="M1021.73 282.017H1056.34V265.134H1047.65V273.296H1037.34L1051.99 241.01L1074.3 290.149H1085.96L1056.12 224.442L1056.05 224.278H1047.94L1021.73 282.011L1021.73 282.017ZM1085.1 289.603H1074.66L1051.99 239.681L1036.66 273.472L1036.5 273.854H1048.2V265.692H1055.79V281.471H1022.59L1048.3 224.842H1055.7L1085.1 289.61V289.603Z" fill="#6CB876" fill-opacity="0.3"/>
<path d="M1037.93 232.416H1003.32V249.3H1012.01V241.137H1022.33L1007.67 273.424L985.365 224.284H973.709L1003.54 289.992L1003.61 290.155H1011.73L1037.94 232.422L1037.93 232.416ZM974.564 224.83H985.007L1007.67 274.752L1023.01 240.961L1023.16 240.579H1011.46V248.742H1003.87V232.962H1037.07L1011.36 289.591H1003.96L974.564 224.824V224.83Z" fill="#6CB876" fill-opacity="0.3"/>
<path d="M1126.44 232.416H1091.83V249.3H1100.52V241.137H1110.84L1096.18 273.424L1073.87 224.284H1062.22L1092.05 289.992L1092.12 290.155H1100.24L1126.45 232.422L1126.44 232.416ZM1063.07 224.83H1073.52L1096.18 274.752L1111.52 240.961L1111.67 240.579H1099.97V248.742H1092.38V232.962H1125.58L1099.87 289.591H1092.47L1063.07 224.824V224.83Z" fill="#6CB876" fill-opacity="0.3"/>
<path d="M1110.24 282.017H1144.85V265.134H1136.16V273.296H1125.85L1140.5 241.01L1162.81 290.149H1174.46L1144.63 224.442L1144.56 224.278H1136.45L1110.24 282.011L1110.24 282.017ZM1173.61 289.603H1163.17L1140.5 239.681L1125.17 273.472L1125.01 273.854H1136.71V265.692H1144.3V281.471H1111.1L1136.81 224.842H1144.21L1173.61 289.61V289.603Z" fill="#6CB876" fill-opacity="0.3"/>
<path d="M1198.76 282.017H1233.37V265.134H1224.68V273.296H1214.36L1229.02 241.01L1251.32 290.149H1262.98L1233.15 224.442L1233.08 224.278H1224.96L1198.75 282.011L1198.76 282.017ZM1262.13 289.603H1251.68L1229.02 239.681L1213.68 273.472L1213.53 273.854H1225.23V265.692H1232.82V281.471H1199.62L1225.33 224.842H1232.73L1262.13 289.61V289.603Z" fill="#6CB876" fill-opacity="0.3"/>
<path d="M1214.95 232.416H1180.34V249.3H1189.03V241.137H1199.35L1184.69 273.424L1162.38 224.284H1150.73L1180.56 289.992L1180.63 290.155H1188.75L1214.96 232.422L1214.95 232.416ZM1151.58 224.83H1162.03L1184.69 274.752L1200.03 240.961L1200.18 240.579H1188.48V248.742H1180.89V232.962H1214.09L1188.38 289.591H1180.98L1151.58 224.824V224.83Z" fill="#6CB876" fill-opacity="0.3"/>
<path d="M1303.46 232.416H1268.85V249.3H1277.54V241.137H1287.86L1273.2 273.424L1250.89 224.284H1239.24L1269.07 289.992L1269.14 290.155H1277.26L1303.47 232.422L1303.46 232.416ZM1240.09 224.83H1250.54L1273.2 274.752L1288.54 240.961L1288.69 240.579H1276.99V248.742H1269.4V232.962H1302.6L1276.89 289.591H1269.49L1240.09 224.824V224.83Z" fill="#6CB876" fill-opacity="0.3"/>
<path d="M1287.27 282.017H1321.88V265.134H1313.19V273.296H1302.87L1317.53 241.01L1339.83 290.149H1351.49L1321.66 224.442L1321.59 224.278H1313.47L1287.26 282.011L1287.27 282.017ZM1350.64 289.603H1340.19L1317.53 239.681L1302.19 273.472L1302.04 273.854H1313.74V265.692H1321.33V281.471H1288.13L1313.84 224.842H1321.23L1350.64 289.61V289.603Z" fill="#6CB876" fill-opacity="0.3"/>
<path d="M1375.78 282.017H1410.39V265.134H1401.7V273.296H1391.38L1406.04 241.01L1428.34 290.149H1440L1410.17 224.442L1410.1 224.278H1401.98L1375.77 282.011L1375.78 282.017ZM1439.14 289.603H1428.7L1406.04 239.681L1390.7 273.472L1390.54 273.854H1402.25V265.692H1409.84V281.471H1376.64L1402.35 224.842H1409.74L1439.14 289.61V289.603Z" fill="#6CB876" fill-opacity="0.3"/>
<path d="M1391.98 232.416H1357.37V249.3H1366.06V241.137H1376.37L1361.71 273.424L1339.41 224.284H1327.75L1357.58 289.992L1357.66 290.155H1365.77L1391.98 232.422L1391.98 232.416ZM1328.61 224.83H1339.05L1361.71 274.752L1377.05 240.961L1377.21 240.579H1365.5V248.742H1357.92V232.962H1391.11L1365.41 289.591H1358.01L1328.61 224.824V224.83Z" fill="#6CB876" fill-opacity="0.3"/>
<path d="M756.198 297.736H790.808V314.619H782.118V306.456H771.802L786.46 338.743L808.764 289.604H820.42L790.589 355.311L790.517 355.475H782.403L756.192 297.742L756.198 297.736ZM819.565 290.149H809.122L786.46 340.071L771.123 306.281L770.965 305.899H782.669V314.061H790.256V298.282H757.059L782.766 354.911H790.165L819.565 290.143V290.149Z" fill="#6CB876" fill-opacity="0.3"/>
<path d="M772.396 347.336H737.787V330.453H746.477V338.616H756.792L742.135 306.329L719.83 355.469H708.174L738.005 289.761L738.078 289.597H746.192L772.402 347.33L772.396 347.336ZM709.029 354.923H719.472L742.135 305.001L757.472 338.792L757.629 339.174H745.925V331.011H738.339V346.791H771.535L745.828 290.161H738.43L709.029 354.917V354.923Z" fill="#6CB876" fill-opacity="0.3"/>
<path d="M860.906 347.336H826.297V330.453H834.987V338.616H845.302L830.645 306.329L808.34 355.469H796.684L826.515 289.761L826.588 289.597H834.702L860.912 347.33L860.906 347.336ZM797.539 354.923H807.982L830.645 305.001L845.982 338.792L846.139 339.174H834.435V331.011H826.848V346.791H860.045L834.338 290.161H826.939L797.539 354.929V354.923Z" fill="#6CB876" fill-opacity="0.3"/>
<path d="M844.714 297.736H879.324V314.619H870.633V306.456H860.318L874.975 338.743L897.28 289.604H908.936L879.105 355.311L879.033 355.475H870.918L844.708 297.742L844.714 297.736ZM908.081 290.149H897.638L874.975 340.071L859.639 306.281L859.481 305.899H871.185V314.061H878.772V298.282H845.575L871.282 354.911H878.681L908.081 290.143V290.149Z" fill="#6CB876" fill-opacity="0.3"/>
<path d="M933.224 297.736H967.834V314.619H959.144V306.456H948.828L963.486 338.743L985.79 289.604H997.446L967.615 355.311L967.543 355.475H959.429L933.218 297.742L933.224 297.736ZM996.591 290.149H986.148L963.486 340.071L948.149 306.281L947.991 305.899H959.695V314.061H967.282V298.282H934.085L959.792 354.911H967.191L996.591 290.143V290.149Z" fill="#6CB876" fill-opacity="0.3"/>
<path d="M949.422 347.336H914.812V330.453H923.503V338.616H933.818L919.161 306.329L896.856 355.469H885.2L915.031 289.761L915.103 289.597H923.218L949.428 347.33L949.422 347.336ZM886.055 354.923H896.498L919.161 305.001L934.497 338.792L934.655 339.174H922.951V331.011H915.364V346.791H948.561L922.854 290.161H915.455L886.055 354.929V354.923Z" fill="#6CB876" fill-opacity="0.3"/>
<path d="M1037.93 347.336H1003.32V330.453H1012.01V338.616H1022.33L1007.67 306.329L985.365 355.469H973.709L1003.54 289.761L1003.61 289.597H1011.73L1037.94 347.33L1037.93 347.336ZM974.564 354.923H985.007L1007.67 305.001L1023.01 338.792L1023.16 339.174H1011.46V331.011H1003.87V346.791H1037.07L1011.36 290.161H1003.96L974.564 354.929V354.923Z" fill="#6CB876" fill-opacity="0.3"/>
<path d="M1021.73 297.736H1056.34V314.619H1047.65V306.456H1037.34L1051.99 338.743L1074.3 289.604H1085.96L1056.12 355.311L1056.05 355.475H1047.94L1021.73 297.742L1021.73 297.736ZM1085.1 290.149H1074.66L1051.99 340.071L1036.66 306.281L1036.5 305.899H1048.2V314.061H1055.79V298.282H1022.59L1048.3 354.911H1055.7L1085.1 290.143V290.149Z" fill="#6CB876" fill-opacity="0.3"/>
<path d="M1110.24 297.736H1144.85V314.619H1136.16V306.456H1125.85L1140.5 338.743L1162.81 289.604H1174.46L1144.63 355.311L1144.56 355.475H1136.45L1110.24 297.742L1110.24 297.736ZM1173.61 290.149H1163.17L1140.5 340.071L1125.17 306.281L1125.01 305.899H1136.71V314.061H1144.3V298.282H1111.1L1136.81 354.911H1144.21L1173.61 290.143V290.149Z" fill="#6CB876" fill-opacity="0.3"/>
<path d="M1126.44 347.336H1091.83V330.453H1100.52V338.616H1110.84L1096.18 306.329L1073.87 355.469H1062.22L1092.05 289.761L1092.12 289.597H1100.24L1126.45 347.33L1126.44 347.336ZM1063.07 354.923H1073.52L1096.18 305.001L1111.52 338.792L1111.67 339.174H1099.97V331.011H1092.38V346.791H1125.58L1099.87 290.161H1092.47L1063.07 354.929V354.923Z" fill="#6CB876" fill-opacity="0.3"/>
<path d="M1214.95 347.336H1180.34V330.453H1189.03V338.616H1199.35L1184.69 306.329L1162.38 355.469H1150.73L1180.56 289.761L1180.63 289.597H1188.75L1214.96 347.33L1214.95 347.336ZM1151.58 354.923H1162.03L1184.69 305.001L1200.03 338.792L1200.18 339.174H1188.48V331.011H1180.89V346.791H1214.09L1188.38 290.161H1180.98L1151.58 354.929V354.923Z" fill="#6CB876" fill-opacity="0.3"/>
<path d="M1198.76 297.736H1233.37V314.619H1224.68V306.456H1214.36L1229.02 338.743L1251.32 289.604H1262.98L1233.15 355.311L1233.08 355.475H1224.96L1198.75 297.742L1198.76 297.736ZM1262.13 290.149H1251.68L1229.02 340.071L1213.68 306.281L1213.53 305.899H1225.23V314.061H1232.82V298.282H1199.62L1225.33 354.911H1232.73L1262.13 290.143V290.149Z" fill="#6CB876" fill-opacity="0.3"/>
<path d="M1287.27 297.736H1321.88V314.619H1313.19V306.456H1302.87L1317.53 338.743L1339.83 289.604H1351.49L1321.66 355.311L1321.59 355.475H1313.47L1287.26 297.742L1287.27 297.736ZM1350.64 290.149H1340.19L1317.53 340.071L1302.19 306.281L1302.04 305.899H1313.74V314.061H1321.33V298.282H1288.13L1313.84 354.911H1321.23L1350.64 290.143V290.149Z" fill="#6CB876" fill-opacity="0.3"/>
<path d="M1303.46 347.336H1268.85V330.453H1277.54V338.616H1287.86L1273.2 306.329L1250.89 355.469H1239.24L1269.07 289.761L1269.14 289.597H1277.26L1303.47 347.33L1303.46 347.336ZM1240.09 354.923H1250.54L1273.2 305.001L1288.54 338.792L1288.69 339.174H1276.99V331.011H1269.4V346.791H1302.6L1276.89 290.161H1269.49L1240.09 354.929V354.923Z" fill="#6CB876" fill-opacity="0.3"/>
<path d="M1391.98 347.336H1357.37V330.453H1366.06V338.616H1376.37L1361.71 306.329L1339.41 355.469H1327.75L1357.58 289.761L1357.66 289.597H1365.77L1391.98 347.33L1391.98 347.336ZM1328.61 354.923H1339.05L1361.71 305.001L1377.05 338.792L1377.21 339.174H1365.5V331.011H1357.92V346.791H1391.11L1365.41 290.161H1358.01L1328.61 354.929V354.923Z" fill="#6CB876" fill-opacity="0.3"/>
<path d="M1375.78 297.736H1410.39V314.619H1401.7V306.456H1391.38L1406.04 338.743L1428.34 289.604H1440L1410.17 355.311L1410.1 355.475H1401.98L1375.77 297.742L1375.78 297.736ZM1439.14 290.149H1428.7L1406.04 340.071L1390.7 306.281L1390.54 305.899H1402.25V314.061H1409.84V298.282H1376.64L1402.35 354.911H1409.74L1439.14 290.143V290.149Z" fill="#6CB876" fill-opacity="0.3"/>
<path d="M772.396 363.055H737.787V379.939H746.477V371.776H756.792L742.135 404.063L719.83 354.923H708.174L738.005 420.631L738.078 420.794H746.192L772.402 363.061L772.396 363.055ZM709.029 355.469H719.472L742.135 405.391L757.472 371.6L757.629 371.218H745.925V379.381H738.339V363.601H771.535L745.828 420.23H738.43L709.029 355.469Z" fill="#6CB876" fill-opacity="0.3"/>
<path d="M756.198 412.656H790.808V395.773H782.118V403.935H771.802L786.46 371.648L808.764 420.788H820.42L790.589 355.081L790.517 354.917H782.403L756.192 412.65L756.198 412.656ZM819.565 420.242H809.122L786.46 370.32L771.123 404.111L770.965 404.493H782.669V396.331H790.256V412.11H757.059L782.766 355.481H790.165L819.565 420.248V420.242Z" fill="#6CB876" fill-opacity="0.3"/>
<path d="M844.714 412.656H879.324V395.773H870.633V403.935H860.318L874.975 371.648L897.28 420.788H908.936L879.105 355.081L879.033 354.917H870.918L844.708 412.65L844.714 412.656ZM908.081 420.242H897.638L874.975 370.32L859.639 404.111L859.481 404.493H871.185V396.331H878.772V412.11H845.575L871.282 355.481H878.681L908.081 420.248V420.242Z" fill="#6CB876" fill-opacity="0.3"/>
<path d="M860.906 363.055H826.297V379.939H834.987V371.776H845.302L830.645 404.063L808.34 354.923H796.684L826.515 420.631L826.588 420.794H834.702L860.912 363.061L860.906 363.055ZM797.539 355.469H807.982L830.645 405.391L845.982 371.6L846.139 371.218H834.435V379.381H826.849V363.601H860.045L834.338 420.23H826.94L797.539 355.463V355.469Z" fill="#6CB876" fill-opacity="0.3"/>
<path d="M949.422 363.055H914.813V379.939H923.503V371.776H933.819L919.161 404.063L896.856 354.923H885.2L915.031 420.631L915.104 420.794H923.218L949.428 363.061L949.422 363.055ZM886.056 355.469H896.498L919.161 405.391L934.498 371.6L934.655 371.218H922.951V379.381H915.365V363.601H948.561L922.854 420.23H915.456L886.056 355.463V355.469Z" fill="#6CB876" fill-opacity="0.3"/>
<path d="M933.224 412.656H967.834V395.773H959.144V403.935H948.828L963.486 371.648L985.791 420.788H997.446L967.616 355.081L967.543 354.917H959.429L933.218 412.65L933.224 412.656ZM996.591 420.242H986.148L963.486 370.32L948.149 404.111L947.991 404.493H959.695V396.331H967.282V412.11H934.086L959.793 355.481H967.191L996.591 420.248V420.242Z" fill="#6CB876" fill-opacity="0.3"/>
<path d="M1021.73 412.656H1056.34V395.773H1047.65V403.935H1037.34L1051.99 371.648L1074.3 420.788H1085.96L1056.12 355.081L1056.05 354.917H1047.94L1021.73 412.65L1021.73 412.656ZM1085.1 420.242H1074.66L1051.99 370.32L1036.66 404.111L1036.5 404.493H1048.2V396.331H1055.79V412.11H1022.59L1048.3 355.481H1055.7L1085.1 420.248V420.242Z" fill="#6CB876" fill-opacity="0.3"/>
<path d="M1037.93 363.055H1003.32V379.939H1012.01V371.776H1022.33L1007.67 404.063L985.365 354.923H973.709L1003.54 420.631L1003.61 420.794H1011.73L1037.94 363.061L1037.93 363.055ZM974.564 355.469H985.007L1007.67 405.391L1023.01 371.6L1023.16 371.218H1011.46V379.381H1003.87V363.601H1037.07L1011.36 420.23H1003.96L974.564 355.463V355.469Z" fill="#6CB876" fill-opacity="0.3"/>
<path d="M1126.44 363.055H1091.83V379.939H1100.52V371.776H1110.84L1096.18 404.063L1073.87 354.923H1062.22L1092.05 420.631L1092.12 420.794H1100.24L1126.45 363.061L1126.44 363.055ZM1063.07 355.469H1073.52L1096.18 405.391L1111.52 371.6L1111.67 371.218H1099.97V379.381H1092.38V363.601H1125.58L1099.87 420.23H1092.47L1063.07 355.463V355.469Z" fill="#6CB876" fill-opacity="0.3"/>
<path d="M1110.24 412.656H1144.85V395.773H1136.16V403.935H1125.85L1140.5 371.648L1162.81 420.788H1174.46L1144.63 355.081L1144.56 354.917H1136.45L1110.24 412.65L1110.24 412.656ZM1173.61 420.242H1163.17L1140.5 370.32L1125.17 404.111L1125.01 404.493H1136.71V396.331H1144.3V412.11H1111.1L1136.81 355.481H1144.21L1173.61 420.248V420.242Z" fill="#6CB876" fill-opacity="0.3"/>
<path d="M1198.76 412.656H1233.37V395.773H1224.68V403.935H1214.36L1229.02 371.648L1251.32 420.788H1262.98L1233.15 355.081L1233.08 354.917H1224.96L1198.75 412.65L1198.76 412.656ZM1262.13 420.242H1251.68L1229.02 370.32L1213.68 404.111L1213.53 404.493H1225.23V396.331H1232.82V412.11H1199.62L1225.33 355.481H1232.73L1262.13 420.248V420.242Z" fill="#6CB876" fill-opacity="0.3"/>
<path d="M1214.95 363.055H1180.34V379.939H1189.03V371.776H1199.35L1184.69 404.063L1162.38 354.923H1150.73L1180.56 420.631L1180.63 420.794H1188.75L1214.96 363.061L1214.95 363.055ZM1151.58 355.469H1162.03L1184.69 405.391L1200.03 371.6L1200.18 371.218H1188.48V379.381H1180.89V363.601H1214.09L1188.38 420.23H1180.98L1151.58 355.463V355.469Z" fill="#6CB876" fill-opacity="0.3"/>
<path d="M1303.46 363.055H1268.85V379.939H1277.54V371.776H1287.86L1273.2 404.063L1250.89 354.923H1239.24L1269.07 420.631L1269.14 420.794H1277.26L1303.47 363.061L1303.46 363.055ZM1240.09 355.469H1250.54L1273.2 405.391L1288.54 371.6L1288.69 371.218H1276.99V379.381H1269.4V363.601H1302.6L1276.89 420.23H1269.49L1240.09 355.463V355.469Z" fill="#6CB876" fill-opacity="0.3"/>
<path d="M1287.27 412.656H1321.88V395.773H1313.19V403.935H1302.87L1317.53 371.648L1339.83 420.788H1351.49L1321.66 355.081L1321.59 354.917H1313.47L1287.26 412.65L1287.27 412.656ZM1350.64 420.242H1340.19L1317.53 370.32L1302.19 404.111L1302.04 404.493H1313.74V396.331H1321.33V412.11H1288.13L1313.84 355.481H1321.23L1350.64 420.248V420.242Z" fill="#6CB876" fill-opacity="0.3"/>
<path d="M1375.78 412.656H1410.39V395.773H1401.7V403.935H1391.38L1406.04 371.648L1428.34 420.788H1440L1410.17 355.081L1410.1 354.917H1401.98L1375.77 412.65L1375.78 412.656ZM1439.14 420.242H1428.7L1406.04 370.32L1390.7 404.111L1390.54 404.493H1402.25V396.331H1409.84V412.11H1376.64L1402.35 355.481H1409.74L1439.14 420.248V420.242Z" fill="#6CB876" fill-opacity="0.3"/>
<path d="M1391.98 363.055H1357.37V379.939H1366.06V371.776H1376.37L1361.71 404.063L1339.41 354.923H1327.75L1357.58 420.631L1357.66 420.794H1365.77L1391.98 363.061L1391.98 363.055ZM1328.61 355.469H1339.05L1361.71 405.391L1377.05 371.6L1377.21 371.218H1365.5V379.381H1357.92V363.601H1391.11L1365.41 420.23H1358.01L1328.61 355.463V355.469Z" fill="#6CB876" fill-opacity="0.3"/>
<path d="M756.198 428.375H790.808V445.258H782.118V437.095H771.802L786.46 469.382L808.764 420.242H820.42L790.589 485.95L790.517 486.114H782.403L756.192 428.381L756.198 428.375ZM819.565 420.788H809.122L786.46 470.71L771.123 436.919L770.965 436.537H782.669V444.7H790.256V428.92H757.059L782.766 485.55H790.165L819.565 420.782V420.788Z" fill="#6CB876" fill-opacity="0.3"/>
<path d="M772.396 477.975H737.787V461.092H746.477V469.255H756.792L742.135 436.968L719.83 486.108H708.174L738.005 420.4L738.078 420.236H746.192L772.402 477.969L772.396 477.975ZM709.029 485.562H719.472L742.135 435.64L757.472 469.431L757.629 469.813H745.925V461.65H738.339V477.43H771.535L745.828 420.8H738.43L709.029 485.556V485.562Z" fill="#6CB876" fill-opacity="0.3"/>
<path d="M860.906 477.975H826.297V461.092H834.987V469.255H845.302L830.645 436.968L808.34 486.108H796.684L826.515 420.4L826.588 420.236H834.702L860.912 477.969L860.906 477.975ZM797.539 485.562H807.982L830.645 435.64L845.982 469.431L846.139 469.813H834.435V461.65H826.848V477.43H860.045L834.338 420.8H826.939L797.539 485.568V485.562Z" fill="#6CB876" fill-opacity="0.3"/>
<path d="M844.714 428.375H879.324V445.258H870.633V437.095H860.318L874.975 469.382L897.28 420.242H908.936L879.105 485.95L879.033 486.114H870.918L844.708 428.381L844.714 428.375ZM908.081 420.788H897.638L874.975 470.71L859.639 436.919L859.481 436.537H871.185V444.7H878.772V428.92H845.575L871.282 485.55H878.681L908.081 420.782V420.788Z" fill="#6CB876" fill-opacity="0.3"/>
<path d="M933.224 428.375H967.834V445.258H959.144V437.095H948.828L963.486 469.382L985.79 420.242H997.446L967.615 485.95L967.543 486.114H959.429L933.218 428.381L933.224 428.375ZM996.591 420.788H986.148L963.486 470.71L948.149 436.919L947.991 436.537H959.695V444.7H967.282V428.92H934.085L959.792 485.55H967.191L996.591 420.782V420.788Z" fill="#6CB876" fill-opacity="0.3"/>
<path d="M949.422 477.975H914.812V461.092H923.503V469.255H933.818L919.161 436.968L896.856 486.108H885.2L915.031 420.4L915.103 420.236H923.218L949.428 477.969L949.422 477.975ZM886.055 485.562H896.498L919.161 435.64L934.497 469.431L934.655 469.813H922.951V461.65H915.364V477.43H948.561L922.854 420.8H915.455L886.055 485.568V485.562Z" fill="#6CB876" fill-opacity="0.3"/>
<path d="M1037.93 477.975H1003.32V461.092H1012.01V469.255H1022.33L1007.67 436.968L985.365 486.108H973.709L1003.54 420.4L1003.61 420.236H1011.73L1037.94 477.969L1037.93 477.975ZM974.564 485.562H985.007L1007.67 435.64L1023.01 469.431L1023.16 469.813H1011.46V461.65H1003.87V477.43H1037.07L1011.36 420.8H1003.96L974.564 485.568V485.562Z" fill="#6CB876" fill-opacity="0.3"/>
<path d="M1021.73 428.375H1056.34V445.258H1047.65V437.095H1037.34L1051.99 469.382L1074.3 420.242H1085.96L1056.12 485.95L1056.05 486.114H1047.94L1021.73 428.381L1021.73 428.375ZM1085.1 420.788H1074.66L1051.99 470.71L1036.66 436.919L1036.5 436.537H1048.2V444.7H1055.79V428.92H1022.59L1048.3 485.55H1055.7L1085.1 420.782V420.788Z" fill="#6CB876" fill-opacity="0.3"/>
<path d="M1110.24 428.375H1144.85V445.258H1136.16V437.095H1125.85L1140.5 469.382L1162.81 420.242H1174.46L1144.63 485.95L1144.56 486.114H1136.45L1110.24 428.381L1110.24 428.375ZM1173.61 420.788H1163.17L1140.5 470.71L1125.17 436.919L1125.01 436.537H1136.71V444.7H1144.3V428.92H1111.1L1136.81 485.55H1144.21L1173.61 420.782V420.788Z" fill="#6CB876" fill-opacity="0.3"/>
<path d="M1126.44 477.975H1091.83V461.092H1100.52V469.255H1110.84L1096.18 436.968L1073.87 486.108H1062.22L1092.05 420.4L1092.12 420.236H1100.24L1126.45 477.969L1126.44 477.975ZM1063.07 485.562H1073.52L1096.18 435.64L1111.52 469.431L1111.67 469.813H1099.97V461.65H1092.38V477.43H1125.58L1099.87 420.8H1092.47L1063.07 485.568V485.562Z" fill="#6CB876" fill-opacity="0.3"/>
<path d="M1214.95 477.975H1180.34V461.092H1189.03V469.255H1199.35L1184.69 436.968L1162.38 486.108H1150.73L1180.56 420.4L1180.63 420.236H1188.75L1214.96 477.969L1214.95 477.975ZM1151.58 485.562H1162.03L1184.69 435.64L1200.03 469.431L1200.18 469.813H1188.48V461.65H1180.89V477.43H1214.09L1188.38 420.8H1180.98L1151.58 485.568V485.562Z" fill="#6CB876" fill-opacity="0.3"/>
<path d="M1198.76 428.375H1233.37V445.258H1224.68V437.095H1214.36L1229.02 469.382L1251.32 420.242H1262.98L1233.15 485.95L1233.08 486.114H1224.96L1198.75 428.381L1198.76 428.375ZM1262.13 420.788H1251.68L1229.02 470.71L1213.68 436.919L1213.53 436.537H1225.23V444.7H1232.82V428.92H1199.62L1225.33 485.55H1232.73L1262.13 420.782V420.788Z" fill="#6CB876" fill-opacity="0.3"/>
<path d="M1287.27 428.375H1321.88V445.258H1313.19V437.095H1302.87L1317.53 469.382L1339.83 420.242H1351.49L1321.66 485.95L1321.59 486.114H1313.47L1287.26 428.381L1287.27 428.375ZM1350.64 420.788H1340.19L1317.53 470.71L1302.19 436.919L1302.04 436.537H1313.74V444.7H1321.33V428.92H1288.13L1313.84 485.55H1321.23L1350.64 420.782V420.788Z" fill="#6CB876" fill-opacity="0.3"/>
<path d="M1303.46 477.975H1268.85V461.092H1277.54V469.255H1287.86L1273.2 436.968L1250.89 486.108H1239.24L1269.07 420.4L1269.14 420.236H1277.26L1303.47 477.969L1303.46 477.975ZM1240.09 485.562H1250.54L1273.2 435.64L1288.54 469.431L1288.69 469.813H1276.99V461.65H1269.4V477.43H1302.6L1276.89 420.8H1269.49L1240.09 485.568V485.562Z" fill="#6CB876" fill-opacity="0.3"/>
<path d="M1391.98 477.975H1357.37V461.092H1366.06V469.255H1376.37L1361.71 436.968L1339.41 486.108H1327.75L1357.58 420.4L1357.66 420.236H1365.77L1391.98 477.969L1391.98 477.975ZM1328.61 485.562H1339.05L1361.71 435.64L1377.05 469.431L1377.21 469.813H1365.5V461.65H1357.92V477.43H1391.11L1365.41 420.8H1358.01L1328.61 485.568V485.562Z" fill="#6CB876" fill-opacity="0.3"/>
<path d="M1375.78 428.375H1410.39V445.258H1401.7V437.095H1391.38L1406.04 469.382L1428.34 420.242H1440L1410.17 485.95L1410.1 486.114H1401.98L1375.77 428.381L1375.78 428.375ZM1439.14 420.788H1428.7L1406.04 470.71L1390.7 436.919L1390.54 436.537H1402.25V444.7H1409.84V428.92H1376.64L1402.35 485.55H1409.74L1439.14 420.782V420.788Z" fill="#6CB876" fill-opacity="0.3"/>
</g>
</svg>
