<svg width="17" height="17" viewBox="0 0 17 17" fill="none" xmlns="http://www.w3.org/2000/svg">
<path d="M7.03276 11.6369C5.74595 11.6369 4.65701 11.1911 3.76592 10.2996C2.87484 9.40803 2.42906 8.31909 2.42859 7.03276C2.42859 5.74595 2.87437 4.65701 3.76592 3.76592C4.65748 2.87484 5.74642 2.42906 7.03276 2.42859C8.31956 2.42859 9.40851 2.87437 10.2996 3.76592C11.1907 4.65748 11.6364 5.74642 11.6369 7.03276C11.6369 7.5522 11.5543 8.04213 11.389 8.50255C11.2237 8.96296 10.9994 9.37026 10.7161 9.72442L14.6828 13.6911C14.8126 13.8209 14.8775 13.9862 14.8775 14.1869C14.8775 14.3876 14.8126 14.5529 14.6828 14.6828C14.5529 14.8126 14.3876 14.8775 14.1869 14.8775C13.9862 14.8775 13.8209 14.8126 13.6911 14.6828L9.72442 10.7161C9.37026 10.9994 8.96296 11.2237 8.50255 11.389C8.04213 11.5543 7.5522 11.6369 7.03276 11.6369ZM7.03276 10.2203C7.91817 10.2203 8.67089 9.91024 9.29092 9.29021C9.91095 8.67019 10.2207 7.9177 10.2203 7.03276C10.2203 6.14734 9.91024 5.39462 9.29021 4.77459C8.67019 4.15456 7.9177 3.84478 7.03276 3.84526C6.14734 3.84526 5.39462 4.15527 4.77459 4.7753C4.15456 5.39532 3.84478 6.14781 3.84526 7.03276C3.84526 7.91817 4.15527 8.67089 4.7753 9.29092C5.39532 9.91095 6.14781 10.2207 7.03276 10.2203Z" fill="#FCFCFC"/>
</svg>
